<svg width="500" height="500" viewBox="0 0 500 500" fill="none" xmlns="http://www.w3.org/2000/svg">
<path d="M249.33 89.68C174.15 123.5 242.4 183.79 198.99 216.68C155.58 249.57 37.5502 211.5 82.5402 296.76C135.39 396.91 366.83 383.01 416.73 260.16C466.63 137.31 324.51 55.85 249.33 89.68Z" fill="#4D2553"/>
<path opacity="0.9" d="M249.33 89.68C174.15 123.5 242.4 183.79 198.99 216.68C155.58 249.57 37.5502 211.5 82.5402 296.76C135.39 396.91 366.83 383.01 416.73 260.16C466.63 137.31 324.51 55.85 249.33 89.68Z" fill="white"/>
<path d="M250 427.56C357.082 427.56 443.89 422.492 443.89 416.24C443.89 409.988 357.082 404.92 250 404.92C142.917 404.92 56.1099 409.988 56.1099 416.24C56.1099 422.492 142.917 427.56 250 427.56Z" fill="#F5F5F5"/>
<path d="M98.4698 387.31H97.5298C97.5298 385.91 98.6898 352.86 104.44 347.31C110.35 341.55 117.3 347.22 117.37 347.31L116.76 348.04C116.51 347.82 110.4 342.86 105.1 348.04C99.6198 353.25 98.4798 387 98.4698 387.31Z" fill="#4D2553"/>
<path d="M97.9999 393.94L97.0599 393.85C97.0599 393.45 100.77 353.73 86.3799 337.22L87.0999 336.6C101.75 353.42 97.9999 393.54 97.9999 393.94Z" fill="#4D2553"/>
<path d="M98.46 389.7C98.33 387.82 95.56 343.7 106.62 333.51L107.26 334.2C96.53 344.07 99.37 389.2 99.4 389.64L98.46 389.7Z" fill="#4D2553"/>
<path d="M97.06 389.67C97.06 389.37 96.71 359.67 88.85 355.2C88.1801 354.761 87.4144 354.488 86.6173 354.407C85.8203 354.325 85.0152 354.436 84.27 354.73C79.65 356.63 77.2 365.44 77.18 365.53L76.27 365.28C76.37 364.9 78.86 355.94 83.91 353.85C84.7886 353.5 85.7382 353.365 86.6795 353.457C87.6207 353.55 88.5262 353.866 89.32 354.38C97.65 359.15 97.99 388.38 98 389.66L97.06 389.67Z" fill="#4D2553"/>
<path d="M100.29 389.7C100.24 388.7 99.0199 366.25 105.4 357.93C107.09 355.72 108.97 354.66 111.01 354.81C115.54 355.13 119.01 361.27 119.21 361.53L118.38 361.99C118.38 361.93 114.97 355.99 110.95 355.75C109.25 355.63 107.63 356.56 106.15 358.5C99.9799 366.55 101.22 389.41 101.24 389.64L100.29 389.7Z" fill="#4D2553"/>
<path d="M98.9997 392.81L98.0597 392.74C98.0597 392.2 102.06 338.61 95.4697 329.68L96.2297 329.11C103.06 338.33 99.1897 390.59 98.9997 392.81Z" fill="#4D2553"/>
<path d="M82.0699 359.19C82.0699 359.19 86.1599 360.69 84.9399 364.25C83.7199 367.81 70.8199 373.65 70.8199 373.65C70.8199 373.65 65.4099 368.65 70.3699 360.65C75.3299 352.65 81.9999 356.64 82.0699 359.19Z" fill="#4D2553"/>
<path opacity="0.4" d="M82.0699 359.19C82.0699 359.19 86.1599 360.69 84.9399 364.25C83.7199 367.81 70.8199 373.65 70.8199 373.65C70.8199 373.65 65.4099 368.65 70.3699 360.65C75.3299 352.65 81.9999 356.64 82.0699 359.19Z" fill="white"/>
<path d="M99.82 352.42C99.82 352.42 95.47 352.24 95.23 355.99C94.99 359.74 104.65 370.1 104.65 370.1C104.65 370.1 111.54 367.61 110.06 358.26C108.58 348.91 100.9 350.12 99.82 352.42Z" fill="#4D2553"/>
<path opacity="0.4" d="M99.82 352.42C99.82 352.42 95.47 352.24 95.23 355.99C94.99 359.74 104.65 370.1 104.65 370.1C104.65 370.1 111.54 367.61 110.06 358.26C108.58 348.91 100.9 350.12 99.82 352.42Z" fill="white"/>
<path d="M103.5 334.49C103.5 334.49 100.6 334.17 100.84 332.41C101.08 330.65 112.11 326.1 118.62 333.41C118.62 333.41 114.45 340.57 108.42 340.66C102.39 340.75 103.5 334.49 103.5 334.49Z" fill="#4D2553"/>
<path opacity="0.4" d="M103.5 334.49C103.5 334.49 100.6 334.17 100.84 332.41C101.08 330.65 112.11 326.1 118.62 333.41C118.62 333.41 114.45 340.57 108.42 340.66C102.39 340.75 103.5 334.49 103.5 334.49Z" fill="white"/>
<path d="M98.0999 330.2C98.0999 330.2 100.73 331.47 101.46 329.85C102.19 328.23 95.2399 318.53 85.8199 321.32C85.8199 321.32 85.5699 329.61 90.6399 332.87C95.7099 336.13 98.0999 330.2 98.0999 330.2Z" fill="#4D2553"/>
<path opacity="0.4" d="M98.0999 330.2C98.0999 330.2 100.73 331.47 101.46 329.85C102.19 328.23 95.2399 318.53 85.8199 321.32C85.8199 321.32 85.5699 329.61 90.6399 332.87C95.7099 336.13 98.0999 330.2 98.0999 330.2Z" fill="white"/>
<path d="M111.83 357.76C111.83 357.76 109.83 356.14 111.98 355.36C114.13 354.58 124.74 354.79 124.85 365.29C124.85 365.29 112.51 367.29 110.98 363.29C109.45 359.29 111.83 357.76 111.83 357.76Z" fill="#4D2553"/>
<path opacity="0.4" d="M111.83 357.76C111.83 357.76 109.83 356.14 111.98 355.36C114.13 354.58 124.74 354.79 124.85 365.29C124.85 365.29 112.51 367.29 110.98 363.29C109.45 359.29 111.83 357.76 111.83 357.76Z" fill="white"/>
<path d="M86.6701 334.22C86.6701 334.22 88.6701 332.61 86.5101 331.82C84.3501 331.03 73.7501 331.25 73.6401 341.75C73.6401 341.75 85.9801 343.8 87.5101 339.8C89.0401 335.8 86.6701 334.22 86.6701 334.22Z" fill="#4D2553"/>
<path opacity="0.4" d="M86.6701 334.22C86.6701 334.22 88.6701 332.61 86.5101 331.82C84.3501 331.03 73.7501 331.25 73.6401 341.75C73.6401 341.75 85.9801 343.8 87.5101 339.8C89.0401 335.8 86.6701 334.22 86.6701 334.22Z" fill="white"/>
<path d="M93.1898 342.68C93.1898 342.68 93.3598 340.68 91.7798 341.48C90.1998 342.28 84.6698 348.21 90.3998 353.86C90.3998 353.86 98.0998 348.16 96.7098 345.18C95.3198 342.2 93.1898 342.68 93.1898 342.68Z" fill="#4D2553"/>
<path opacity="0.4" d="M93.1898 342.68C93.1898 342.68 93.3598 340.68 91.7798 341.48C90.1998 342.28 84.6698 348.21 90.3998 353.86C90.3998 353.86 98.0998 348.16 96.7098 345.18C95.3198 342.2 93.1898 342.68 93.1898 342.68Z" fill="white"/>
<path d="M113.61 345.47C113.61 345.47 112.42 343.91 114.17 343.71C115.92 343.51 123.77 345.61 121.94 353.45C121.94 353.45 112.38 352.73 111.94 349.45C111.5 346.17 113.61 345.47 113.61 345.47Z" fill="#4D2553"/>
<path opacity="0.4" d="M113.61 345.47C113.61 345.47 112.42 343.91 114.17 343.71C115.92 343.51 123.77 345.61 121.94 353.45C121.94 353.45 112.38 352.73 111.94 349.45C111.5 346.17 113.61 345.47 113.61 345.47Z" fill="white"/>
<path d="M82.7797 418.76H113.7L117.81 388.69H78.6797L82.7797 418.76Z" fill="#263238"/>
<path opacity="0.2" d="M82.7797 418.76H113.7L117.81 388.69H78.6797L82.7797 418.76Z" fill="white"/>
<path d="M121.68 386.26V389.11C121.681 389.565 121.592 390.015 121.419 390.436C121.246 390.856 120.991 391.238 120.669 391.56C120.348 391.881 119.966 392.136 119.545 392.309C119.125 392.483 118.674 392.571 118.22 392.57H77.8697C77.4149 392.571 76.9644 392.483 76.544 392.309C76.1237 392.136 75.7417 391.881 75.4201 391.56C75.0986 391.238 74.8438 390.856 74.6704 390.436C74.4969 390.015 74.4084 389.565 74.4097 389.11V386.26H121.68Z" fill="#263238"/>
<path d="M372.37 392.28C372.145 391.819 372.035 391.31 372.049 390.796C372.063 390.283 372.202 389.781 372.452 389.333C372.703 388.885 373.058 388.504 373.488 388.223C373.918 387.942 374.409 387.77 374.92 387.72C374.479 386.408 374.448 384.993 374.832 383.664C375.217 382.335 375.997 381.154 377.07 380.28C377.331 380.046 377.661 379.902 378.01 379.87C378.381 379.908 378.731 380.062 379.01 380.31L385.01 384.59C385.487 384.881 385.891 385.278 386.19 385.75C387.41 388.11 383.02 391.13 384.82 393.08C385.34 393.64 386.18 393.75 386.82 394.16C388.24 395.04 388.41 396.99 389.07 398.52C389.73 400.05 392.07 401.25 392.92 399.83C392.27 398.36 394.23 397.09 395.83 396.9C397.43 396.71 399.1 396.63 399.98 395.13C402.25 397.13 407.33 391.58 407.21 389.35C409.08 389.49 410.35 391.24 410.76 392.98C411.019 394.821 411.082 396.685 410.95 398.54C411.01 402.15 412.17 405.69 412.11 409.3C412.06 412.11 410.97 415.23 408.4 416.36C407.118 416.812 405.756 416.996 404.4 416.9L375.1 416.71C374.396 416.755 373.692 416.638 373.04 416.37C371.72 415.68 371.44 413.94 371.32 412.45C370.8 406.09 370.277 399.727 369.75 393.36L372.37 392.28Z" fill="#4D2553"/>
<path opacity="0.3" d="M372.37 392.28C372.145 391.819 372.035 391.31 372.049 390.796C372.063 390.283 372.202 389.781 372.452 389.333C372.703 388.885 373.058 388.504 373.488 388.223C373.918 387.942 374.409 387.77 374.92 387.72C374.479 386.408 374.448 384.993 374.832 383.664C375.217 382.335 375.997 381.154 377.07 380.28C377.331 380.046 377.661 379.902 378.01 379.87C378.381 379.908 378.731 380.062 379.01 380.31L385.01 384.59C385.487 384.881 385.891 385.278 386.19 385.75C387.41 388.11 383.02 391.13 384.82 393.08C385.34 393.64 386.18 393.75 386.82 394.16C388.24 395.04 388.41 396.99 389.07 398.52C389.73 400.05 392.07 401.25 392.92 399.83C392.27 398.36 394.23 397.09 395.83 396.9C397.43 396.71 399.1 396.63 399.98 395.13C402.25 397.13 407.33 391.58 407.21 389.35C409.08 389.49 410.35 391.24 410.76 392.98C411.019 394.821 411.082 396.685 410.95 398.54C411.01 402.15 412.17 405.69 412.11 409.3C412.06 412.11 410.97 415.23 408.4 416.36C407.118 416.812 405.756 416.996 404.4 416.9L375.1 416.71C374.396 416.755 373.692 416.638 373.04 416.37C371.72 415.68 371.44 413.94 371.32 412.45C370.8 406.09 370.277 399.727 369.75 393.36L372.37 392.28Z" fill="white"/>
<path d="M365.54 361.32L365.92 365.91L366.18 369.19L366.87 377.73L367.26 382.62L367.8 389.15L368 392L368.06 392.83L368.33 396.11L368.69 400.63L368.92 403.42L369.15 406.25L369.42 409.54L369.62 412.05L369.85 414.84L370 416H411.72L411.82 414.78L412 412L412.2 409.51L412.47 406.22L412.71 403.38L412.93 400.59L413.29 396.08L413.56 392.79L413.64 391.96L413.86 389.16L414.38 382.63L414.78 377.73L415.47 369.2L415.74 365.92L416.11 361.33H365.54V361.32ZM367.85 363.45H368.8L367.92 364.33L367.85 363.45ZM371.85 363.45H372.85L377.03 367.63L372.36 372.29L368.29 368.23L368.21 367.11L371.85 363.45ZM369.12 378.54L372.34 375.32L377 380L372.33 384.67L369.33 381.67L369.12 378.54ZM412.36 381.66L409.36 384.66L404.69 380L409.35 375.35L412.58 378.57L412.36 381.66ZM378.52 369.13L383.18 373.8L378.52 378.47L373.85 373.8L378.52 369.13ZM378.52 366.13L375.85 363.46H381.19L378.52 366.13ZM384.69 375.33L389.36 379.98L384.69 384.65L380 380L384.69 375.33ZM390.86 390.82L386.21 386.16L390.86 381.5L395.53 386.16L390.86 390.82ZM397.04 387.67L401.7 392.34L397 397L392.33 392.33L397.04 387.67ZM389.36 392.33L384.65 397L380 392.33L384.66 387.66L389.36 392.33ZM386.21 373.81L390.86 369.14L395.53 373.81L390.86 378.48L386.21 373.81ZM397 375.32L401.66 379.97L397 384.64L392.34 380L397 375.32ZM398.51 373.8L403.18 369.13L407.84 373.8L403.18 378.47L398.51 373.8ZM407.84 386.15L403.18 390.81L398.51 386.15L403.18 381.49L407.84 386.15ZM403.18 393.84L407.84 398.5L403.18 403.16L398.51 398.5L403.18 393.84ZM401.66 404.68L397 409.34L392.34 404.68L397 400L401.66 404.68ZM390.82 403.16L386.17 398.5L390.82 393.84L395.49 398.5L390.82 403.16ZM389.32 404.68L384.65 409.34L380 404.68L384.66 400.01L389.32 404.68ZM383.14 410.85L380.14 413.85H376.85L373.85 410.85L378.52 406.18L383.14 410.85ZM378.48 403.16L373.81 398.5L378.48 393.84L383.14 398.5L378.48 403.16ZM378.48 390.81L373.81 386.15L378.48 381.49L383.14 386.15L378.48 390.81ZM384.16 363.45H385.16L389.34 367.63L384.67 372.29L380 367.63L384.16 363.45ZM388.16 363.45H393.49L390.82 366.12L388.16 363.45ZM396.5 363.45H397.5L401.67 367.63L397 372.29L392.34 367.63L396.5 363.45ZM405.84 363.45L403.18 366.12L400.51 363.45H405.84ZM409.84 363.45L413.5 367.11L413.41 368.23L409.35 372.29L404.69 367.63L408.86 363.45H409.84ZM413.84 363.45L413.76 364.32L412.9 363.45H413.84ZM412.84 375.74L410.9 373.8L413.18 371.52L412.84 375.74ZM411.91 387.16L410.91 386.16L412.11 384.96L411.92 387.17L411.91 387.16ZM411.27 395.11L409.35 397L404.69 392.34L409.35 387.67L411.65 389.98L411.27 395.11ZM411 398.6L410.9 398.5L411.01 398.4V398.6H411ZM410.18 408.54L409.39 409.33L404.73 404.68L409.39 400.01L410.77 401.39L410.18 408.54ZM407.88 413.87L409.39 412.36L409.84 412.8L409.76 413.87H407.88ZM404.88 413.87H401.59L398.59 410.87L403.26 406.2L407.92 410.87L404.88 413.87ZM395.54 413.87L397.06 412.36L398.57 413.87H395.54ZM389.24 413.87L386.24 410.87L390.89 406.2L395.56 410.87L392.56 413.87H389.24ZM383.19 413.87L384.71 412.36L386.23 413.87H383.19ZM371.91 412.8L372.36 412.36L373.88 413.87H372L371.91 412.8ZM370.99 401.39L372.3 400L376.97 404.67L372.3 409.32L371.5 408.53L370.99 401.39ZM370.74 398.39L370.86 398.5L370.76 398.6V398.39H370.74ZM370 390L372.3 387.69L376.97 392.36L372.3 397L370.41 395.12L370 390ZM369.59 385L370.8 386.2L369.8 387.2L369.59 385ZM368.5 371.5L370.8 373.8L368.8 375.8L368.46 371.54L368.5 371.5Z" fill="#4D2553"/>
<g opacity="0.6">
<path d="M365.54 361.32L365.92 365.91L366.18 369.19L366.87 377.73L367.26 382.62L367.8 389.15L368 392L368.06 392.83L368.33 396.11L368.69 400.63L368.92 403.42L369.15 406.25L369.42 409.54L369.62 412.05L369.85 414.84L370 416H411.72L411.82 414.78L412 412L412.2 409.51L412.47 406.22L412.71 403.38L412.93 400.59L413.29 396.08L413.56 392.79L413.64 391.96L413.86 389.16L414.38 382.63L414.78 377.73L415.47 369.2L415.74 365.92L416.11 361.33H365.54V361.32ZM367.85 363.45H368.8L367.92 364.33L367.85 363.45ZM371.85 363.45H372.85L377.03 367.63L372.36 372.29L368.29 368.23L368.21 367.11L371.85 363.45ZM369.12 378.54L372.34 375.32L377 380L372.33 384.67L369.33 381.67L369.12 378.54ZM412.36 381.66L409.36 384.66L404.69 380L409.35 375.35L412.58 378.57L412.36 381.66ZM378.52 369.13L383.18 373.8L378.52 378.47L373.85 373.8L378.52 369.13ZM378.52 366.13L375.85 363.46H381.19L378.52 366.13ZM384.69 375.33L389.36 379.98L384.69 384.65L380 380L384.69 375.33ZM390.86 390.82L386.21 386.16L390.86 381.5L395.53 386.16L390.86 390.82ZM397.04 387.67L401.7 392.34L397 397L392.33 392.33L397.04 387.67ZM389.36 392.33L384.65 397L380 392.33L384.66 387.66L389.36 392.33ZM386.21 373.81L390.86 369.14L395.53 373.81L390.86 378.48L386.21 373.81ZM397 375.32L401.66 379.97L397 384.64L392.34 380L397 375.32ZM398.51 373.8L403.18 369.13L407.84 373.8L403.18 378.47L398.51 373.8ZM407.84 386.15L403.18 390.81L398.51 386.15L403.18 381.49L407.84 386.15ZM403.18 393.84L407.84 398.5L403.18 403.16L398.51 398.5L403.18 393.84ZM401.66 404.68L397 409.34L392.34 404.68L397 400L401.66 404.68ZM390.82 403.16L386.17 398.5L390.82 393.84L395.49 398.5L390.82 403.16ZM389.32 404.68L384.65 409.34L380 404.68L384.66 400.01L389.32 404.68ZM383.14 410.85L380.14 413.85H376.85L373.85 410.85L378.52 406.18L383.14 410.85ZM378.48 403.16L373.81 398.5L378.48 393.84L383.14 398.5L378.48 403.16ZM378.48 390.81L373.81 386.15L378.48 381.49L383.14 386.15L378.48 390.81ZM384.16 363.45H385.16L389.34 367.63L384.67 372.29L380 367.63L384.16 363.45ZM388.16 363.45H393.49L390.82 366.12L388.16 363.45ZM396.5 363.45H397.5L401.67 367.63L397 372.29L392.34 367.63L396.5 363.45ZM405.84 363.45L403.18 366.12L400.51 363.45H405.84ZM409.84 363.45L413.5 367.11L413.41 368.23L409.35 372.29L404.69 367.63L408.86 363.45H409.84ZM413.84 363.45L413.76 364.32L412.9 363.45H413.84ZM412.84 375.74L410.9 373.8L413.18 371.52L412.84 375.74ZM411.91 387.16L410.91 386.16L412.11 384.96L411.92 387.17L411.91 387.16ZM411.27 395.11L409.35 397L404.69 392.34L409.35 387.67L411.65 389.98L411.27 395.11ZM411 398.6L410.9 398.5L411.01 398.4V398.6H411ZM410.18 408.54L409.39 409.33L404.73 404.68L409.39 400.01L410.77 401.39L410.18 408.54ZM407.88 413.87L409.39 412.36L409.84 412.8L409.76 413.87H407.88ZM404.88 413.87H401.59L398.59 410.87L403.26 406.2L407.92 410.87L404.88 413.87ZM395.54 413.87L397.06 412.36L398.57 413.87H395.54ZM389.24 413.87L386.24 410.87L390.89 406.2L395.56 410.87L392.56 413.87H389.24ZM383.19 413.87L384.71 412.36L386.23 413.87H383.19ZM371.91 412.8L372.36 412.36L373.88 413.87H372L371.91 412.8ZM370.99 401.39L372.3 400L376.97 404.67L372.3 409.32L371.5 408.53L370.99 401.39ZM370.74 398.39L370.86 398.5L370.76 398.6V398.39H370.74ZM370 390L372.3 387.69L376.97 392.36L372.3 397L370.41 395.12L370 390ZM369.59 385L370.8 386.2L369.8 387.2L369.59 385ZM368.5 371.5L370.8 373.8L368.8 375.8L368.46 371.54L368.5 371.5Z" fill="white"/>
</g>
<path d="M417.38 359.41H364.27C363.364 359.41 362.63 360.144 362.63 361.05V363.72C362.63 364.626 363.364 365.36 364.27 365.36H417.38C418.286 365.36 419.02 364.626 419.02 363.72V361.05C419.02 360.144 418.286 359.41 417.38 359.41Z" fill="#4D2553"/>
<path d="M368.33 418.76H413.31C414.215 418.76 414.95 418.026 414.95 417.12V414.45C414.95 413.544 414.215 412.81 413.31 412.81H368.33C367.424 412.81 366.69 413.544 366.69 414.45V417.12C366.69 418.026 367.424 418.76 368.33 418.76Z" fill="#4D2553"/>
<path d="M226.56 115.71H193.09C190.037 115.71 187.11 116.923 184.951 119.081C182.793 121.24 181.58 124.167 181.58 127.22V159.74C181.58 162.793 182.793 165.72 184.951 167.879C187.11 170.037 190.037 171.25 193.09 171.25H197.64V183.4L205.35 171.25H226.53C229.583 171.25 232.51 170.037 234.669 167.879C236.827 165.72 238.04 162.793 238.04 159.74V127.22C238.04 124.173 236.832 121.249 234.679 119.092C232.527 116.934 229.608 115.718 226.56 115.71Z" fill="#4D2553"/>
<path opacity="0.4" d="M226.56 115.71H193.09C190.037 115.71 187.11 116.923 184.951 119.081C182.793 121.24 181.58 124.167 181.58 127.22V159.74C181.58 162.793 182.793 165.72 184.951 167.879C187.11 170.037 190.037 171.25 193.09 171.25H197.64V183.4L205.35 171.25H226.53C229.583 171.25 232.51 170.037 234.669 167.879C236.827 165.72 238.04 162.793 238.04 159.74V127.22C238.04 124.173 236.832 121.249 234.679 119.092C232.527 116.934 229.608 115.718 226.56 115.71Z" fill="white"/>
<path d="M215.36 138.16C215.36 135.71 213.27 134.06 209.91 134.06C208.541 133.982 207.174 134.247 205.934 134.833C204.694 135.418 203.62 136.304 202.81 137.41L198.58 134.67C201.02 131.35 204.94 129.35 210.39 129.35C216.8 129.35 221.08 132.27 221.08 137.28C221.08 144.39 213.62 145.04 213.62 150.19H208.08C208.08 143.74 215.36 142.52 215.36 138.16ZM207.36 157.21C207.346 156.521 207.538 155.844 207.91 155.264C208.282 154.685 208.819 154.229 209.451 153.956C210.083 153.682 210.782 153.603 211.459 153.728C212.137 153.853 212.762 154.177 213.254 154.658C213.747 155.139 214.085 155.756 214.226 156.431C214.367 157.105 214.304 157.806 214.045 158.444C213.786 159.083 213.343 159.629 212.772 160.015C212.201 160.401 211.529 160.608 210.84 160.61C210.387 160.626 209.935 160.55 209.512 160.386C209.09 160.221 208.705 159.972 208.382 159.654C208.059 159.336 207.804 158.955 207.634 158.534C207.463 158.114 207.38 157.663 207.39 157.21H207.36Z" fill="white"/>
<path d="M142.85 270.11C142.85 270.11 145.67 326.58 157.85 336.3H144.85C144.85 336.3 133.25 317.06 132.38 270.11H142.85Z" fill="#263238"/>
<path opacity="0.2" d="M142.85 270.11C142.85 270.11 145.67 326.58 157.85 336.3H144.85C144.85 336.3 133.25 317.06 132.38 270.11H142.85Z" fill="white"/>
<path d="M133.08 278.07H145.39C149 278.07 151.61 274.83 151.21 270.83L150.69 265.49C150.29 261.49 147.05 258.25 143.44 258.25H131.13C127.52 258.25 124.92 261.5 125.31 265.49L125.84 270.83C126.23 274.83 129.47 278.07 133.08 278.07Z" fill="#263238"/>
<path d="M131.17 282.47H152C158.1 282.47 162.51 276.98 161.84 270.22L160.95 261.22C160.29 254.45 154.8 248.97 148.7 248.97H127.87C121.76 248.97 117.36 254.45 118.02 261.22L118.91 270.22C119.58 277 125.07 282.47 131.17 282.47Z" fill="#263238"/>
<path opacity="0.5" d="M131.17 282.47H152C158.1 282.47 162.51 276.98 161.84 270.22L160.95 261.22C160.29 254.45 154.8 248.97 148.7 248.97H127.87C121.76 248.97 117.36 254.45 118.02 261.22L118.91 270.22C119.58 277 125.07 282.47 131.17 282.47Z" fill="white"/>
<path d="M141.39 330.53H199.86C200.45 330.53 201.033 330.646 201.578 330.872C202.123 331.097 202.618 331.428 203.035 331.845C203.452 332.262 203.782 332.757 204.008 333.302C204.234 333.847 204.35 334.43 204.35 335.02V339.89H136.9V335C136.905 333.813 137.381 332.676 138.222 331.838C139.064 331 140.203 330.53 141.39 330.53Z" fill="#263238"/>
<path opacity="0.5" d="M141.39 330.53H199.86C200.45 330.53 201.033 330.646 201.578 330.872C202.123 331.097 202.618 331.428 203.035 331.845C203.452 332.262 203.782 332.757 204.008 333.302C204.234 333.847 204.35 334.43 204.35 335.02V339.89H136.9V335C136.905 333.813 137.381 332.676 138.222 331.838C139.064 331 140.203 330.53 141.39 330.53Z" fill="white"/>
<path d="M139.25 400.55L165.25 398.28V364.13H174.39V398.27L200.49 400.55C201.59 400.671 202.608 401.194 203.346 402.019C204.084 402.844 204.492 403.913 204.49 405.02V408.48H135.19V405C135.197 403.888 135.616 402.817 136.366 401.995C137.115 401.174 138.143 400.659 139.25 400.55Z" fill="#263238"/>
<path d="M196.13 412.78C196.13 413.967 196.482 415.127 197.141 416.113C197.8 417.1 198.737 417.869 199.834 418.323C200.93 418.777 202.137 418.896 203.3 418.665C204.464 418.433 205.533 417.862 206.373 417.023C207.212 416.184 207.783 415.114 208.015 413.951C208.246 412.787 208.127 411.58 207.673 410.484C207.219 409.388 206.45 408.45 205.463 407.791C204.477 407.132 203.317 406.78 202.13 406.78C200.539 406.78 199.012 407.412 197.887 408.537C196.762 409.663 196.13 411.189 196.13 412.78Z" fill="#263238"/>
<path d="M143.61 412.78C143.61 413.967 143.258 415.127 142.599 416.113C141.939 417.1 141.002 417.869 139.906 418.323C138.81 418.777 137.603 418.896 136.439 418.665C135.275 418.433 134.206 417.862 133.367 417.023C132.528 416.184 131.957 415.114 131.725 413.951C131.494 412.787 131.612 411.58 132.067 410.484C132.521 409.388 133.29 408.45 134.276 407.791C135.263 407.132 136.423 406.78 137.61 406.78C139.201 406.78 140.727 407.412 141.853 408.537C142.978 409.663 143.61 411.189 143.61 412.78Z" fill="#263238"/>
<path d="M172.26 371.09H167.4C166.913 371.09 166.43 370.994 165.98 370.808C165.53 370.621 165.121 370.348 164.776 370.003C164.432 369.659 164.159 369.25 163.972 368.8C163.786 368.35 163.69 367.867 163.69 367.38V337.66H175.97V367.38C175.97 368.364 175.579 369.308 174.883 370.003C174.187 370.699 173.244 371.09 172.26 371.09Z" fill="#263238"/>
<path opacity="0.2" d="M172.26 371.09H167.4C166.913 371.09 166.43 370.994 165.98 370.808C165.53 370.621 165.121 370.348 164.776 370.003C164.432 369.659 164.159 369.25 163.972 368.8C163.786 368.35 163.69 367.867 163.69 367.38V337.66H175.97V367.38C175.97 368.364 175.579 369.308 174.883 370.003C174.187 370.699 173.244 371.09 172.26 371.09Z" fill="white"/>
<path d="M205.11 336.3H136.14C135.14 336.3 134.33 337.11 134.33 338.11V339.17C134.33 340.17 135.14 340.98 136.14 340.98H205.11C206.11 340.98 206.92 340.17 206.92 339.17V338.11C206.92 337.11 206.11 336.3 205.11 336.3Z" fill="#263238"/>
<path opacity="0.2" d="M196.13 412.78C196.13 413.967 196.482 415.127 197.141 416.113C197.8 417.1 198.737 417.869 199.834 418.323C200.93 418.777 202.137 418.896 203.3 418.665C204.464 418.433 205.533 417.862 206.373 417.023C207.212 416.184 207.783 415.114 208.015 413.951C208.246 412.787 208.127 411.58 207.673 410.484C207.219 409.388 206.45 408.45 205.463 407.791C204.477 407.132 203.317 406.78 202.13 406.78C200.539 406.78 199.012 407.412 197.887 408.537C196.762 409.663 196.13 411.189 196.13 412.78Z" fill="white"/>
<path opacity="0.2" d="M143.61 412.78C143.61 413.967 143.258 415.127 142.599 416.113C141.939 417.1 141.002 417.869 139.906 418.323C138.81 418.777 137.603 418.896 136.439 418.665C135.275 418.433 134.206 417.862 133.367 417.023C132.528 416.184 131.957 415.114 131.725 413.951C131.494 412.787 131.612 411.58 132.067 410.484C132.521 409.388 133.29 408.45 134.276 407.791C135.263 407.132 136.423 406.78 137.61 406.78C139.201 406.78 140.727 407.412 141.853 408.537C142.978 409.663 143.61 411.189 143.61 412.78Z" fill="white"/>
<path d="M146 195.51C146 195.51 147.75 189.89 155.09 188.87C162.43 187.85 171.37 190.32 173.19 193.38C175.01 196.44 173.61 199.45 176.06 200.46C178.51 201.47 182 203.96 181.32 206.46C180.64 208.96 178.17 214.03 180.89 215.02C183.61 216.01 185.32 220.02 184.13 222.02C182.94 224.02 182.51 226.5 183.87 227.2C185.23 227.9 186.87 229.27 185.74 231.35C184.61 233.43 183.53 233.72 185.23 235.49C186.93 237.26 183.99 241.24 183.99 241.24C183.99 241.24 144.73 245.91 139.99 241.8C135.25 237.69 138.2 234.06 139.22 232.98C140.24 231.9 137.71 232.32 137.36 228.24C137.01 224.16 139.48 223.56 139.99 221.17C140.5 218.78 137.99 216.49 139.65 214.17C141.31 211.85 141.84 210.55 140.65 208.11C139.46 205.67 139.26 195.68 146 195.51Z" fill="#263238"/>
<path d="M213.37 235.53L222.07 234.37L216.75 226.21C216.75 226.21 208.96 229.45 209.91 233.38L213.37 235.53Z" fill="#E4897B"/>
<path d="M228.84 228.9L221.88 223.44L216.75 226.21L222.07 234.37L228.84 228.9Z" fill="#E4897B"/>
<path d="M215.47 235.6C215.47 235.6 205.47 270.83 197.62 268.7C193.28 267.52 189.11 263.34 185.79 259C183.014 255.305 180.575 251.369 178.5 247.24V247.11L177.5 230.39C185.27 232.3 196.66 253.23 196.66 253.23L209.24 232.58L215.47 235.6Z" fill="#4D2553"/>
<path opacity="0.7" d="M176 254.25C168.76 247.72 160.731 242.123 152.1 237.59C152.893 237.49 153.693 237.41 154.5 237.35C159.979 236.77 165.493 236.583 171 236.79C172.37 236.87 173.77 236.98 175.15 237.1C178.6 244.93 176 254.25 176 254.25Z" fill="white"/>
<path d="M152.14 289.34C151.39 280.89 148.36 265.39 143.14 249.11C141.44 243.82 144.32 237.85 144.32 237.85C144.32 237.85 151.41 237.66 152.13 237.59C152.85 237.52 153.72 237.41 154.53 237.35C160.01 236.77 165.524 236.583 171.03 236.79C172.4 236.87 173.8 236.98 175.18 237.1C175.62 237.1 180.61 237.19 181.04 237.23C181.04 237.23 187.95 245.13 188.37 251.53C188.88 256.449 189.07 261.396 188.94 266.34C188.94 272.15 188.48 279.81 188.1 287.97L152.14 289.34Z" fill="#4D2553"/>
<path opacity="0.8" d="M152.14 289.34C151.39 280.89 148.36 265.39 143.14 249.11C141.44 243.82 144.32 237.85 144.32 237.85C144.32 237.85 151.41 237.66 152.13 237.59C152.85 237.52 153.72 237.41 154.53 237.35C160.01 236.77 165.524 236.583 171.03 236.79C172.4 236.87 173.8 236.98 175.18 237.1C175.62 237.1 180.61 237.19 181.04 237.23C181.04 237.23 187.95 245.13 188.37 251.53C188.88 256.449 189.07 261.396 188.94 266.34C188.94 272.15 188.48 279.81 188.1 287.97L152.14 289.34Z" fill="white"/>
<path d="M152.14 289.34L188.14 286.91C188.14 286.91 189.22 297.73 188.97 297.57C188.72 297.41 150.42 298.92 150.42 298.92L152.14 289.34Z" fill="#263238"/>
<path d="M152.47 289.94L188.11 287.97V291.35L152.14 293.26L152.47 289.94Z" fill="black"/>
<path d="M172.53 292.73C172.281 292.731 172.041 292.64 171.856 292.473C171.671 292.307 171.555 292.078 171.53 291.83L171.37 289.83C171.356 289.573 171.441 289.32 171.609 289.124C171.777 288.929 172.013 288.805 172.27 288.78L176.17 288.48C176.304 288.471 176.439 288.49 176.566 288.534C176.693 288.579 176.81 288.649 176.91 288.74C177.006 288.832 177.083 288.942 177.136 289.064C177.189 289.186 177.218 289.317 177.22 289.45V291.54C177.22 291.792 177.126 292.035 176.956 292.22C176.785 292.406 176.551 292.52 176.3 292.54L172.55 292.74L172.53 292.73ZM176.28 289.08L172.37 289.38C172.317 289.384 172.267 289.398 172.22 289.422C172.173 289.446 172.132 289.479 172.098 289.519C172.065 289.559 172.04 289.605 172.024 289.655C172.009 289.705 172.004 289.758 172.01 289.81L172.17 291.81C172.171 291.861 172.183 291.912 172.204 291.958C172.226 292.005 172.257 292.046 172.295 292.08C172.334 292.114 172.379 292.14 172.428 292.155C172.477 292.17 172.529 292.176 172.58 292.17L176.33 291.97C176.43 291.965 176.524 291.922 176.593 291.849C176.661 291.776 176.7 291.68 176.7 291.58V289.49C176.7 289.436 176.69 289.383 176.669 289.333C176.649 289.283 176.618 289.238 176.58 289.2C176.541 289.16 176.494 289.128 176.443 289.107C176.391 289.087 176.335 289.077 176.28 289.08Z" fill="white"/>
<path d="M190.34 295.34C180.77 294.39 168.34 293.62 152.14 293.26C152.14 293.26 140.07 321.69 154.38 330.18C158.71 332.75 165.85 333.77 173.71 333.93C175.874 333.981 178.026 333.598 180.041 332.806C182.055 332.013 183.891 330.826 185.44 329.314C186.989 327.802 188.22 325.996 189.062 324.001C189.903 322.007 190.338 319.865 190.34 317.7V295.34Z" fill="#263238"/>
<path d="M155.06 314.09L142.62 311.83L149.86 285.05C149.86 285.05 148 278.4 146 270.78C145.49 268.86 145 266.89 144.46 264.94C143.92 262.99 143.52 261.31 143.1 259.62C142.123 256.135 141.355 252.596 140.8 249.02C140.57 244.75 139.86 233.2 143.96 231.39C146.39 230.31 151.37 232.86 154.52 233.45C159.248 242.518 161.837 252.547 162.09 262.77C162.59 280.08 155.06 314.09 155.06 314.09Z" fill="#4D2553"/>
<path d="M166.88 233.85C166.88 233.85 178.5 235.3 183.45 260.05C185.45 270.05 190.21 312.88 190.21 312.88L192.91 311.53L189.16 286C189.16 286 190.51 256.42 189.46 250.35C188.41 244.28 183.09 231.12 177.55 230.35C175.3 230.09 166.88 233.85 166.88 233.85Z" fill="#4D2553"/>
<path d="M167.42 233.5L168 233C174.719 233.913 180.842 237.336 185.14 242.58L182.44 245.22L187 249L184.8 269.26C184.8 269.26 177.8 245.36 174.73 239.62C174.75 239.57 169.66 234.6 167.42 233.5Z" fill="#4D2553"/>
<path opacity="0.2" d="M167.42 233.5L167.96 233.06C174.678 233.947 180.806 237.358 185.1 242.6L182.4 245.24L187 249L184.8 269.26C184.8 269.26 177.8 245.36 174.73 239.62C174.75 239.57 169.66 234.6 167.42 233.5Z" fill="black"/>
<path d="M154.78 234.53C154.78 234.53 163.78 245.99 161.83 271.2L152.16 253.07L155.24 248.12L148.04 241.37C148.04 241.37 152.69 232.37 155.36 233.06L154.78 234.53Z" fill="#4D2553"/>
<path opacity="0.2" d="M154.78 234.53C154.78 234.53 163.78 245.99 161.83 271.2L152.16 253.07L155.24 248.12L148.04 241.37C148.04 241.37 152.69 232.37 155.36 233.06L154.78 234.53Z" fill="black"/>
<path d="M155.54 232.51C155.54 232.51 158.26 233.51 166.99 232.86C166.99 232.86 170.29 235.92 171.33 239.13C172.37 242.34 169.05 245.45 163.77 242.64C158.49 239.83 155.54 232.51 155.54 232.51Z" fill="#4D2553"/>
<path opacity="0.5" d="M155.54 232.51C155.54 232.51 158.26 233.51 166.99 232.86C166.99 232.86 170.29 235.92 171.33 239.13C172.37 242.34 169.05 245.45 163.77 242.64C158.49 239.83 155.54 232.51 155.54 232.51Z" fill="white"/>
<path d="M173.17 239.12L171.17 251.07L155.45 237.32C158.78 233.65 156.68 223.99 155.07 218.72L159.52 222.06L166.14 227.01C166.015 228.375 166.123 229.751 166.46 231.08C166.96 233.19 167.86 235.17 168.85 235.59L173.17 239.12Z" fill="#E4897B"/>
<path opacity="0.2" d="M166.46 231.08C163.82 230.49 160.36 227.76 159.8 225.08C159.585 224.095 159.491 223.088 159.52 222.08L166.14 227.03C166.017 228.388 166.125 229.758 166.46 231.08Z" fill="black"/>
<path d="M155.54 232.51C161.148 238.04 166.271 244.042 170.85 250.45C170.85 250.45 172.41 238.45 166.99 232.86L168.24 232.71C172.614 235.578 176.517 239.106 179.81 243.17L174.6 241.52L171 251.16L160.3 242.3L153.09 243.55C153.09 243.55 152.76 234.65 155.54 232.51Z" fill="#4D2553"/>
<path opacity="0.7" d="M155.54 232.51C161.148 238.04 166.271 244.042 170.85 250.45C170.85 250.45 172.41 238.45 166.99 232.86L168.24 232.71C172.614 235.578 176.517 239.106 179.81 243.17L174.6 241.52L171 251.16L160.3 242.3L153.09 243.55C153.09 243.55 152.76 234.65 155.54 232.51Z" fill="white"/>
<path d="M150.17 208.22C152.07 216.74 152.7 220.38 157.73 224.32C165.3 230.26 175.3 226.64 175.97 217.87C176.57 209.97 173.36 197.37 164.42 194.87C162.524 194.261 160.499 194.17 158.556 194.607C156.613 195.044 154.822 195.992 153.368 197.354C151.915 198.715 150.852 200.441 150.289 202.351C149.727 204.262 149.686 206.288 150.17 208.22Z" fill="#E4897B"/>
<path d="M161.17 209.28C161.3 210 161.78 210.54 162.24 210.49C162.7 210.44 162.98 209.82 162.85 209.1C162.72 208.38 162.24 207.83 161.77 207.88C161.3 207.93 161 208.56 161.17 209.28Z" fill="#263238"/>
<path d="M170.16 208C170.29 208.72 170.77 209.26 171.23 209.21C171.69 209.16 171.97 208.54 171.84 207.81C171.71 207.08 171.23 206.55 170.77 206.6C170.31 206.65 170 207.3 170.16 208Z" fill="#263238"/>
<path d="M170.57 206.69L172.18 206.01C172.18 206.01 171.55 207.45 170.57 206.69Z" fill="#263238"/>
<path d="M167.69 209.91C168.617 211.491 169.743 212.946 171.04 214.24C170.717 214.543 170.33 214.768 169.907 214.9C169.485 215.032 169.038 215.066 168.6 215L167.69 209.91Z" fill="#DE5753"/>
<path d="M161.79 202.42C161.68 202.45 161.587 202.522 161.53 202.62C161.301 203.085 160.96 203.486 160.538 203.786C160.115 204.087 159.625 204.277 159.11 204.34C159.056 204.342 159.003 204.356 158.955 204.38C158.906 204.404 158.863 204.437 158.828 204.479C158.794 204.52 158.768 204.568 158.753 204.62C158.737 204.672 158.733 204.726 158.74 204.78C158.753 204.894 158.808 204.999 158.896 205.073C158.983 205.148 159.096 205.186 159.21 205.18C159.865 205.113 160.493 204.882 161.035 204.508C161.577 204.134 162.015 203.629 162.31 203.04C162.356 202.937 162.361 202.821 162.323 202.715C162.286 202.609 162.21 202.522 162.11 202.47C162.013 202.415 161.899 202.397 161.79 202.42Z" fill="#263238"/>
<path d="M169.82 200.46C169.768 200.455 169.715 200.46 169.666 200.476C169.616 200.491 169.57 200.516 169.53 200.55C169.451 200.63 169.408 200.738 169.408 200.85C169.408 200.962 169.451 201.07 169.53 201.15C169.964 201.684 170.516 202.11 171.142 202.397C171.768 202.683 172.452 202.821 173.14 202.8C173.194 202.795 173.247 202.779 173.294 202.753C173.342 202.727 173.384 202.691 173.417 202.648C173.45 202.604 173.473 202.555 173.486 202.502C173.498 202.449 173.5 202.394 173.49 202.34C173.464 202.233 173.399 202.14 173.309 202.077C173.219 202.015 173.109 201.987 173 202C172.454 202.007 171.914 201.89 171.42 201.658C170.927 201.426 170.492 201.085 170.15 200.66C170.112 200.605 170.063 200.559 170.006 200.525C169.949 200.49 169.886 200.468 169.82 200.46Z" fill="#263238"/>
<path d="M161.58 207.94L163.19 207.26C163.19 207.26 162.56 208.71 161.58 207.94Z" fill="#263238"/>
<path d="M154.54 213.16C154.54 213.16 158.73 207.06 155.54 198.03C155.54 198.03 165.01 193.43 172.18 200.44C172.18 200.44 165.51 188.74 151.57 194.34C137.63 199.94 148.14 213.34 149.87 214.45C151.6 215.56 154.54 213.16 154.54 213.16Z" fill="#263238"/>
<path d="M148.47 215.59C149.587 217.068 151.245 218.042 153.08 218.3C155.44 218.58 156.08 216.2 155.08 214.02C154.08 212.02 151.72 209.53 149.56 210.27C147.4 211.01 147 213.72 148.47 215.59Z" fill="#E4897B"/>
<path d="M168.61 219C168.571 219 168.532 218.992 168.496 218.977C168.46 218.961 168.427 218.939 168.4 218.91C167.714 218.275 166.894 217.802 166.001 217.527C165.108 217.252 164.164 217.181 163.24 217.32C163.203 217.327 163.164 217.327 163.127 217.319C163.089 217.312 163.054 217.297 163.022 217.276C162.991 217.254 162.964 217.227 162.943 217.195C162.922 217.163 162.907 217.128 162.9 217.09C162.888 217.013 162.907 216.935 162.951 216.872C162.996 216.808 163.064 216.765 163.14 216.75C164.158 216.586 165.201 216.659 166.186 216.964C167.172 217.27 168.073 217.799 168.82 218.51C168.874 218.564 168.905 218.638 168.905 218.715C168.905 218.792 168.874 218.866 168.82 218.92C168.793 218.948 168.76 218.969 168.724 218.983C168.687 218.997 168.649 219.003 168.61 219Z" fill="#263238"/>
<path opacity="0.2" d="M144.42 264.94C143.94 263.11 143.48 261.31 143.06 259.62C145.36 256.85 146.58 244.98 146.58 244.98C146.58 244.98 148.18 259.45 144.42 264.94Z" fill="black"/>
<path d="M115.06 236.53L106.36 235.37L111.68 227.21C111.68 227.21 119.47 230.66 118.53 234.6L115.06 236.53Z" fill="#E4897B"/>
<path d="M99.5898 229.9L106.55 224.44L111.68 227.21L106.36 235.37L99.5898 229.9Z" fill="#E4897B"/>
<path d="M113 236.6C113 236.6 123 271.83 130.85 269.7C135.2 268.52 139.36 264.34 142.68 260C145.313 256.565 147.033 252.519 147.68 248.24L143.99 231.39C139.31 232.39 131.8 254.23 131.8 254.23L119.21 233.58L113 236.6Z" fill="#4D2553"/>
<path d="M159.07 318.76V332.12C170.97 335.55 195.68 334.24 210.37 333.05C213.56 332.789 216.535 331.336 218.703 328.981C220.871 326.626 222.073 323.541 222.07 320.34V309.34C222.072 307.568 221.533 305.837 220.525 304.379C219.517 302.921 218.089 301.805 216.43 301.18C209.31 298.5 196.35 294.51 182.79 294.72C176.466 294.794 170.428 297.36 165.986 301.862C161.544 306.363 159.059 312.436 159.07 318.76Z" fill="#263238"/>
<path d="M220.82 357.39C216.49 369.09 211.49 383.74 206.15 402.23C206.05 402.57 205.95 402.91 205.86 403.23C205.77 403.55 205.65 403.94 205.55 404.3L200 403L197.92 402.49C197.92 402.49 198.01 401.67 198.18 400.22C198.18 399.92 198.25 399.6 198.28 399.22C199.77 386.32 205.49 338.98 211.17 329.15C211.17 329.15 204.74 330.34 199.86 329.52C196.35 328.93 192.09 304.61 192.09 304.61C198.02 302.998 204.126 302.121 210.27 302H210.4C210.4 302 230.98 305.23 234.4 310.29C238.66 316.52 232.06 327 220.82 357.39Z" fill="#E4897B"/>
<path d="M213.68 418.75L200.76 413.05L196.68 408.49L195.41 410.21L193.87 409.54C193.15 403.8 195.93 401.12 197.4 399.9C197.5 399.81 197.65 399.7 197.83 399.57C197.88 399.518 197.937 399.474 198 399.44L198.07 399.39L198.27 399.24L198.39 399.17L205.48 402.3C205.48 402.3 205.6 402.67 205.82 403.3C206.53 405.3 208.28 409.85 210.22 412.3C210.3 412.4 210.38 412.51 210.46 412.6C210.679 412.86 210.92 413.1 211.18 413.32C216.66 417.6 213.68 418.75 213.68 418.75Z" fill="#4D2553"/>
<path d="M210.5 412.52C208.5 413.31 205.63 411.31 203.5 408.7C202.175 406.902 201.004 404.995 200 403C199.517 401.998 198.905 401.063 198.18 400.22C197.88 399.95 197.6 399.84 197.36 399.95C197.46 399.86 197.61 399.75 197.79 399.62C197.841 399.57 197.898 399.526 197.96 399.49L198.03 399.44L198.23 399.29L198.35 399.22C199.09 398.66 199.92 398.09 199.92 398.09L205.62 400.61C205.62 400.61 205.78 401.28 206.07 402.31C206.81 404.95 208.38 409.96 210.18 412.31C210.34 412.32 210.42 412.43 210.5 412.52Z" fill="#E4897B"/>
<path opacity="0.1" d="M220.82 357.39C216.49 369.09 211.49 383.74 206.15 402.23C206.89 404.87 208.46 409.88 210.26 412.23C210.34 412.33 210.42 412.44 210.5 412.53C210.72 412.79 210.96 413.03 211.22 413.25C216.66 417.61 213.68 418.76 213.68 418.76L200.76 413.06L196.68 408.5L195.41 410.22L193.87 409.55C193.15 403.81 195.93 401.13 197.4 399.91C197.5 399.82 197.65 399.71 197.83 399.58C197.88 399.528 197.937 399.484 198 399.45L198.07 399.4L198.27 399.25C199.76 386.35 205.48 339.01 211.16 329.18C211.16 329.18 204.73 330.37 199.85 329.55C196.34 328.96 192.08 304.64 192.08 304.64C198.012 303.017 204.121 302.13 210.27 302H210.4C210.4 302 208.23 302.21 205.28 305.91C205.28 305.91 217.28 308.15 220.57 314.51C221.88 317.11 221.61 335.91 220.82 357.39Z" fill="black"/>
<path d="M192.11 304.6C192.11 304.6 212.7 307.83 216.11 312.88C222.04 321.58 211.36 338.68 191.88 406.88L184.28 405.02C184.28 405.02 186.28 343.12 192.88 331.71C192.88 331.71 186.45 332.9 181.58 332.08C175.34 331 171.39 310.14 192.11 304.6Z" fill="#E4897B"/>
<path d="M183.07 418.32H184.76L185.22 416.24L190.8 418.76H204.92C204.92 418.76 207.17 416.5 200.44 414.7C200.111 414.611 199.793 414.487 199.49 414.33C195.9 412.65 190.8 406.97 190.8 406.97H183.05C182.814 407.33 182.6 407.704 182.41 408.09C181.56 409.79 180.1 413.37 183.07 418.32Z" fill="#4D2553"/>
<path d="M182.41 408.09C183.41 406.95 188.09 411.96 191.5 413.67C194.55 415.19 197.97 415.86 199.5 414.31C195.91 412.63 190.27 405.31 190.27 405.31H184C184 405.31 182.78 407.36 182.41 408.09Z" fill="#E4897B"/>
<g opacity="0.3">
<path d="M316.91 281.48V415.48C316.91 415.904 316.994 416.323 317.156 416.715C317.319 417.106 317.557 417.461 317.857 417.76C318.157 418.06 318.513 418.297 318.905 418.458C319.297 418.619 319.716 418.701 320.14 418.7H382.65C382.81 418.7 382.969 418.668 383.117 418.607C383.265 418.546 383.4 418.456 383.513 418.343C383.626 418.229 383.716 418.095 383.777 417.947C383.839 417.799 383.87 417.64 383.87 417.48V413.48C383.87 413.156 383.742 412.844 383.513 412.614C383.285 412.383 382.975 412.253 382.65 412.25H323.36V284.7H381.64C381.934 284.699 382.225 284.639 382.497 284.526C382.768 284.412 383.014 284.246 383.221 284.037C383.428 283.828 383.592 283.58 383.703 283.308C383.815 283.036 383.871 282.744 383.87 282.45V278.25H320.14C319.716 278.249 319.295 278.331 318.903 278.493C318.51 278.655 318.153 278.893 317.853 279.193C317.553 279.493 317.315 279.85 317.153 280.242C316.991 280.635 316.909 281.055 316.91 281.48Z" fill="white"/>
</g>
<path opacity="0.2" d="M316.91 281.48V315.66C319.057 316.207 321.207 316.733 323.36 317.24V284.7H381.64C381.934 284.699 382.225 284.639 382.497 284.526C382.768 284.412 383.014 284.246 383.221 284.037C383.428 283.828 383.592 283.58 383.703 283.308C383.815 283.036 383.871 282.744 383.87 282.45V278.25H320.14C319.716 278.249 319.295 278.331 318.903 278.493C318.51 278.655 318.153 278.893 317.853 279.193C317.553 279.493 317.315 279.85 317.153 280.242C316.991 280.635 316.909 281.055 316.91 281.48Z" fill="black"/>
<path d="M309.62 269.05L308.82 266.06H276.25L261.25 267.55L260.68 269.05H309.62Z" fill="#263238"/>
<path opacity="0.5" d="M309.62 269.05L308.82 266.06H276.25L261.25 267.55L260.68 269.05H309.62Z" fill="white"/>
<path opacity="0.2" d="M276.25 266.06V269.05H309.62L308.82 266.06H276.25Z" fill="black"/>
<path d="M287.27 246.77C287.216 247.237 287.262 247.71 287.405 248.157C287.549 248.605 287.786 249.016 288.101 249.365C288.416 249.713 288.802 249.99 289.233 250.177C289.664 250.364 290.13 250.457 290.6 250.45H354.73C355.729 250.424 356.685 250.037 357.421 249.361C358.156 248.684 358.621 247.764 358.73 246.77L362.54 205.71C362.582 205.308 362.552 204.901 362.45 204.51C362.273 203.789 361.856 203.149 361.267 202.697C360.678 202.244 359.953 202.005 359.21 202.02H295.1C294.099 202.044 293.14 202.431 292.404 203.111C291.668 203.79 291.204 204.714 291.1 205.71L287.27 246.77Z" fill="#263238"/>
<path opacity="0.5" d="M287.27 246.77C287.216 247.237 287.262 247.71 287.405 248.157C287.549 248.605 287.786 249.016 288.101 249.365C288.416 249.713 288.802 249.99 289.233 250.177C289.664 250.364 290.13 250.457 290.6 250.45H354.73C355.729 250.424 356.685 250.037 357.421 249.361C358.156 248.684 358.621 247.764 358.73 246.77L362.54 205.71C362.582 205.308 362.552 204.901 362.45 204.51C362.273 203.789 361.856 203.149 361.267 202.697C360.678 202.244 359.953 202.005 359.21 202.02H295.1C294.099 202.044 293.14 202.431 292.404 203.111C291.668 203.79 291.204 204.714 291.1 205.71L287.27 246.77Z" fill="white"/>
<path opacity="0.1" d="M290.82 250.45H354.73C355.729 250.424 356.685 250.037 357.421 249.361C358.156 248.684 358.622 247.764 358.73 246.77L362.54 205.71C362.583 205.308 362.552 204.901 362.45 204.51H298.55C297.55 204.538 296.594 204.927 295.859 205.605C295.123 206.284 294.659 207.205 294.55 208.2L290.74 249.25C290.7 249.652 290.727 250.057 290.82 250.45Z" fill="black"/>
<path d="M334.88 225.27H321.62L325.15 263.26L304.17 266.41V269.05H348.36V266.41L339.31 263.26L334.88 225.27Z" fill="#263238"/>
<path opacity="0.5" d="M334.88 225.27H321.62L325.15 263.26L304.17 266.41V269.05H348.36V266.41L339.31 263.26L334.88 225.27Z" fill="white"/>
<path opacity="0.2" d="M321.62 225.27L331.45 268.45L339.31 268.21L334.88 225.27H321.62Z" fill="white"/>
<path d="M228.78 418.76H291.29C291.616 418.76 291.929 418.63 292.16 418.4C292.39 418.169 292.52 417.856 292.52 417.53V413.53C292.52 413.368 292.488 413.209 292.426 413.059C292.365 412.91 292.274 412.774 292.16 412.66C292.046 412.546 291.91 412.455 291.761 412.394C291.612 412.332 291.452 412.3 291.29 412.3H232V284.69H290.27C290.564 284.691 290.855 284.635 291.127 284.523C291.398 284.412 291.645 284.248 291.853 284.04C292.062 283.833 292.227 283.587 292.339 283.316C292.452 283.044 292.51 282.754 292.51 282.46V278.25H228.78C227.926 278.25 227.107 278.589 226.503 279.193C225.899 279.797 225.56 280.616 225.56 281.47V415.53C225.56 416.385 225.899 417.205 226.503 417.81C227.106 418.416 227.925 418.757 228.78 418.76Z" fill="#263238"/>
<g opacity="0.4">
<path d="M228.78 418.76H291.29C291.616 418.76 291.929 418.63 292.16 418.4C292.39 418.169 292.52 417.856 292.52 417.53V413.53C292.52 413.368 292.488 413.209 292.426 413.059C292.365 412.91 292.274 412.774 292.16 412.66C292.046 412.546 291.91 412.455 291.761 412.394C291.612 412.332 291.452 412.3 291.29 412.3H232V284.69H290.27C290.564 284.691 290.855 284.635 291.127 284.523C291.398 284.412 291.645 284.248 291.853 284.04C292.062 283.833 292.227 283.587 292.339 283.316C292.452 283.044 292.51 282.754 292.51 282.46V278.25H228.78C227.926 278.25 227.107 278.589 226.503 279.193C225.899 279.797 225.56 280.616 225.56 281.47V415.53C225.56 416.385 225.899 417.205 226.503 417.81C227.106 418.416 227.925 418.757 228.78 418.76Z" fill="white"/>
</g>
<path d="M387.65 272.16V277.37C387.637 277.883 387.428 278.372 387.065 278.735C386.702 279.098 386.213 279.307 385.7 279.32H220.63C220.374 279.32 220.121 279.27 219.885 279.171C219.649 279.073 219.435 278.929 219.255 278.748C219.074 278.567 218.932 278.352 218.835 278.116C218.738 277.879 218.689 277.626 218.69 277.37V272.16H387.65Z" fill="#4D2553"/>
<path opacity="0.2" d="M218.69 275.74H387.65V272.16H218.69V275.74Z" fill="black"/>
<path d="M393.21 271.07C393.21 271.6 393 272.109 392.625 272.484C392.25 272.859 391.741 273.07 391.21 273.07H215.21C214.945 273.071 214.682 273.02 214.436 272.919C214.191 272.817 213.968 272.668 213.78 272.48C213.678 272.38 213.59 272.265 213.52 272.14C213.307 271.816 213.192 271.438 213.19 271.05C213.19 270.519 213.401 270.011 213.776 269.636C214.151 269.261 214.66 269.05 215.19 269.05H391.19C391.721 269.05 392.23 269.261 392.605 269.636C392.98 270.011 393.19 270.519 393.19 271.05L393.21 271.07Z" fill="#4D2553"/>
<path opacity="0.2" d="M300.61 269.64C300.423 269.452 300.2 269.303 299.955 269.201C299.709 269.1 299.446 269.049 299.18 269.05H215.18C214.65 269.05 214.141 269.261 213.766 269.636C213.391 270.011 213.18 270.52 213.18 271.05C213.182 271.438 213.297 271.816 213.51 272.14C213.58 272.266 213.667 272.38 213.77 272.48C213.957 272.668 214.18 272.818 214.426 272.919C214.671 273.02 214.935 273.072 215.2 273.07H218.74V277.35C218.739 277.606 218.788 277.859 218.885 278.096C218.982 278.332 219.125 278.547 219.305 278.728C219.485 278.91 219.699 279.053 219.935 279.151C220.171 279.25 220.425 279.3 220.68 279.3H293.7C293.956 279.3 294.209 279.25 294.445 279.151C294.681 279.053 294.895 278.91 295.076 278.728C295.256 278.547 295.398 278.332 295.495 278.096C295.592 277.859 295.642 277.606 295.64 277.35V273.07H299.18C299.521 273.074 299.857 272.99 300.156 272.827C300.455 272.664 300.708 272.428 300.89 272.14C301.142 271.752 301.252 271.289 301.201 270.83C301.149 270.371 300.941 269.943 300.61 269.62V269.64Z" fill="white"/>
<path d="M316.91 281.48V415.48C316.91 415.904 316.994 416.323 317.156 416.715C317.319 417.106 317.557 417.461 317.857 417.76C318.157 418.06 318.513 418.297 318.905 418.458C319.297 418.619 319.716 418.701 320.14 418.7H382.65C382.81 418.7 382.969 418.668 383.117 418.607C383.265 418.546 383.4 418.456 383.513 418.343C383.626 418.229 383.716 418.095 383.777 417.947C383.839 417.799 383.87 417.64 383.87 417.48V413.48C383.87 413.156 383.742 412.844 383.513 412.614C383.285 412.383 382.975 412.253 382.65 412.25H323.36V284.7H381.64C381.934 284.699 382.225 284.639 382.497 284.526C382.768 284.412 383.014 284.246 383.221 284.037C383.428 283.828 383.592 283.58 383.703 283.308C383.815 283.036 383.871 282.744 383.87 282.45V278.25H320.14C319.716 278.249 319.295 278.331 318.903 278.493C318.51 278.655 318.153 278.893 317.853 279.193C317.553 279.493 317.315 279.85 317.153 280.242C316.991 280.635 316.909 281.055 316.91 281.48Z" fill="#263238"/>
</svg>
