<svg width="500" height="500" viewBox="0 0 500 500" fill="none" xmlns="http://www.w3.org/2000/svg">
<path d="M81.8202 446.22C-11.0598 392.59 -11.0598 305.64 81.8202 252.02C174.7 198.4 325.3 198.39 418.18 252.02C511.06 305.65 511.06 392.59 418.18 446.22C325.3 499.85 174.7 499.84 81.8202 446.22Z" fill="#F0F0F0"/>
<path d="M207.67 456.34L65.8702 374.41C60.3402 371.21 60.3402 365.99 65.8702 362.79L295.47 230.13C296.756 229.484 298.176 229.147 299.615 229.147C301.055 229.147 302.474 229.484 303.76 230.13L449 314.08C449.667 314.464 450.221 315.017 450.606 315.683C450.991 316.35 451.193 317.106 451.193 317.875C451.193 318.644 450.991 319.4 450.606 320.067C450.221 320.733 449.667 321.286 449 321.67L216 456.34C214.709 456.993 213.282 457.333 211.835 457.333C210.388 457.333 208.961 456.993 207.67 456.34Z" fill="#E0E0E0"/>
<path d="M384.29 444.98C413.319 444.98 436.85 431.396 436.85 414.64C436.85 397.884 413.319 384.3 384.29 384.3C355.262 384.3 331.73 397.884 331.73 414.64C331.73 431.396 355.262 444.98 384.29 444.98Z" fill="#E0E0E0"/>
<path d="M80.5093 326.81C80.5093 326.81 80.2093 305.46 71.3393 288.03C62.4693 270.6 49.0593 258.94 35.6993 256.54C22.3393 254.14 10.2393 265.44 23.7993 275.38C37.3593 285.32 62.0793 296.54 70.6893 329.52L80.5093 326.81Z" fill="#4D2553"/>
<path opacity="0.15" d="M80.5093 326.81C80.5093 326.81 80.2093 305.46 71.3393 288.03C62.4693 270.6 49.0593 258.94 35.6993 256.54C22.3393 254.14 10.2393 265.44 23.7993 275.38C37.3593 285.32 62.0793 296.54 70.6893 329.52L80.5093 326.81Z" fill="black"/>
<path d="M77.1094 320.93C77.1556 320.939 77.2033 320.939 77.2494 320.93C77.3407 320.905 77.4259 320.861 77.5002 320.803C77.5744 320.744 77.6362 320.671 77.6819 320.588C77.7275 320.505 77.7561 320.414 77.766 320.32C77.7759 320.226 77.7669 320.131 77.7394 320.04C67.0194 283.64 41.4294 266.34 29.3894 262.28C29.2137 262.235 29.0276 262.259 28.8683 262.345C28.709 262.432 28.5882 262.575 28.5301 262.747C28.4721 262.919 28.4809 263.106 28.5549 263.272C28.6289 263.437 28.7627 263.569 28.9294 263.64C40.7194 267.64 65.7994 284.64 76.3594 320.44C76.4091 320.595 76.5108 320.729 76.6474 320.818C76.784 320.907 76.9472 320.947 77.1094 320.93Z" fill="white"/>
<path d="M81.8595 347C76.8595 349.85 74.0595 351.7 64.9695 352.46C58.4933 352.894 51.9962 352.013 45.8695 349.87C44.1795 349.26 41.5695 347.93 43.0395 346.31C43.7995 345.47 52.7195 344.05 55.9095 340.31C51.8318 341.499 47.6374 342.244 43.3995 342.53C39.501 342.753 35.6517 341.572 32.5495 339.2C29.5995 336.74 28.0095 333.07 26.5495 329.53C26.0395 328.32 25.5495 326.84 26.3395 325.79C26.912 325.178 27.6719 324.773 28.4995 324.64L38.6295 321.81C40.8395 321.34 39.2795 319.89 38.4495 319.76C37.2308 319.588 35.9984 319.535 34.7695 319.6C30.8995 319.81 26.6295 320.54 23.4695 318.29C21.6162 316.826 20.3782 314.721 19.9995 312.39C19.8395 311.59 19.1695 301.15 19.6295 301.02C22.1686 300.379 24.7527 299.931 27.3595 299.68C29.8095 299.39 32.1995 299.28 34.6395 298.95C37.3972 298.58 40.1771 298.4 42.9595 298.41C43.9052 298.332 44.8542 298.519 45.6995 298.95C46.2104 299.353 46.6259 299.865 46.9163 300.447C47.2067 301.03 47.3649 301.669 47.3795 302.32C47.3953 303.616 47.5699 304.906 47.8995 306.16C49.0795 306.06 49.4695 304.51 49.4395 303.32C49.4095 302.13 49.4395 300.64 50.5095 300.13C51.0875 299.939 51.7115 299.939 52.2895 300.13C56.0886 300.904 59.7815 302.129 63.2895 303.78C64.9231 304.45 66.3982 305.455 67.6195 306.73C69.3195 308.73 69.8195 311.45 69.8395 314.06C69.8595 316.67 69.4495 319.26 69.6195 321.86C71.6195 320.04 74.4895 314.51 74.7095 311.79C79.0895 314.6 81.7095 320.41 82.4995 328.34C83.0273 334.151 82.92 340.002 82.1795 345.79C82.0695 345.93 81.9995 346.86 81.8595 347Z" fill="#4D2553"/>
<path opacity="0.3" d="M81.8595 347C76.8595 349.85 74.0595 351.7 64.9695 352.46C58.4933 352.894 51.9962 352.013 45.8695 349.87C44.1795 349.26 41.5695 347.93 43.0395 346.31C43.7995 345.47 52.7195 344.05 55.9095 340.31C51.8318 341.499 47.6374 342.244 43.3995 342.53C39.501 342.753 35.6517 341.572 32.5495 339.2C29.5995 336.74 28.0095 333.07 26.5495 329.53C26.0395 328.32 25.5495 326.84 26.3395 325.79C26.912 325.178 27.6719 324.773 28.4995 324.64L38.6295 321.81C40.8395 321.34 39.2795 319.89 38.4495 319.76C37.2308 319.588 35.9984 319.535 34.7695 319.6C30.8995 319.81 26.6295 320.54 23.4695 318.29C21.6162 316.826 20.3782 314.721 19.9995 312.39C19.8395 311.59 19.1695 301.15 19.6295 301.02C22.1686 300.379 24.7527 299.931 27.3595 299.68C29.8095 299.39 32.1995 299.28 34.6395 298.95C37.3972 298.58 40.1771 298.4 42.9595 298.41C43.9052 298.332 44.8542 298.519 45.6995 298.95C46.2104 299.353 46.6259 299.865 46.9163 300.447C47.2067 301.03 47.3649 301.669 47.3795 302.32C47.3953 303.616 47.5699 304.906 47.8995 306.16C49.0795 306.06 49.4695 304.51 49.4395 303.32C49.4095 302.13 49.4395 300.64 50.5095 300.13C51.0875 299.939 51.7115 299.939 52.2895 300.13C56.0886 300.904 59.7815 302.129 63.2895 303.78C64.9231 304.45 66.3982 305.455 67.6195 306.73C69.3195 308.73 69.8195 311.45 69.8395 314.06C69.8595 316.67 69.4495 319.26 69.6195 321.86C71.6195 320.04 74.4895 314.51 74.7095 311.79C79.0895 314.6 81.7095 320.41 82.4995 328.34C83.0273 334.151 82.92 340.002 82.1795 345.79C82.0695 345.93 81.9995 346.86 81.8595 347Z" fill="black"/>
<path d="M80.9991 346C80.8903 345.999 80.7837 345.969 80.6905 345.912C80.5973 345.856 80.5209 345.776 80.4691 345.68C66.2791 318.44 34.8991 306.96 27.2691 305.38C27.1126 305.347 26.9757 305.253 26.8885 305.119C26.8013 304.985 26.771 304.821 26.8041 304.665C26.8373 304.509 26.9312 304.372 27.0653 304.284C27.1994 304.197 27.3626 304.167 27.5191 304.2C35.2591 305.81 67.1291 317.46 81.5191 345.13C81.5556 345.199 81.5781 345.274 81.5852 345.352C81.5924 345.429 81.5841 345.508 81.5609 345.582C81.5376 345.657 81.4999 345.726 81.4498 345.785C81.3997 345.845 81.3383 345.894 81.2691 345.93C81.1866 345.976 81.0936 346 80.9991 346Z" fill="white"/>
<path d="M39.819 330.27C39.6673 330.268 39.5217 330.21 39.4108 330.106C39.2998 330.002 39.2315 329.861 39.219 329.71C39.2122 329.632 39.2211 329.553 39.2452 329.478C39.2693 329.403 39.3081 329.334 39.3593 329.274C39.4106 329.215 39.4732 329.166 39.5436 329.131C39.6139 329.096 39.6906 329.075 39.769 329.07C55.429 327.84 60.489 321.71 60.539 321.65C60.6414 321.539 60.7819 321.471 60.9324 321.459C61.083 321.447 61.2325 321.492 61.3511 321.585C61.4698 321.679 61.5489 321.814 61.5726 321.963C61.5963 322.112 61.5629 322.264 61.479 322.39C61.269 322.66 56.109 328.99 39.869 330.26L39.819 330.27Z" fill="white"/>
<path d="M460 254.3C453.06 261.89 440.33 274.38 432.93 286.44C432.909 286.468 432.893 286.498 432.88 286.53C429.99 291.26 427.88 295.92 427.35 300.19L426.83 307.9L423.66 306.07L423.13 305.76L421.82 305.01C420.895 304.473 420.124 303.709 419.577 302.791C419.031 301.872 418.729 300.828 418.7 299.76C418.19 280.96 423.22 264.98 428.08 255.31C434.73 242.1 447.19 228.63 458.02 229.95C468.13 231.18 469.72 243.72 460 254.3Z" fill="#4D2553"/>
<path opacity="0.15" d="M460 254.3C453.06 261.89 440.33 274.38 432.93 286.44C432.909 286.468 432.893 286.498 432.88 286.53C429.99 291.26 427.88 295.92 427.35 300.19L426.83 307.9L423.66 306.07L423.13 305.76L421.82 305.01C420.895 304.473 420.124 303.709 419.577 302.791C419.031 301.872 418.729 300.828 418.7 299.76C418.19 280.96 423.22 264.98 428.08 255.31C434.73 242.1 447.19 228.63 458.02 229.95C468.13 231.18 469.72 243.72 460 254.3Z" fill="black"/>
<path d="M454.93 237.24C441.67 245.62 422.74 274.83 423.17 305.76L421.86 305.01C421.75 273.89 440.86 244.61 454.23 236.14C454.376 236.047 454.553 236.016 454.721 236.054C454.805 236.072 454.884 236.107 454.954 236.156C455.024 236.205 455.084 236.268 455.13 236.34C455.176 236.412 455.207 236.493 455.222 236.577C455.237 236.661 455.235 236.748 455.216 236.831C455.198 236.915 455.163 236.994 455.114 237.064C455.065 237.134 455.002 237.194 454.93 237.24Z" fill="white"/>
<path d="M467.899 279.08C465.589 285.35 452.409 290.79 442.679 299.84C440.267 302.079 438.034 304.503 435.999 307.09C435.089 308.253 433.789 309.047 432.339 309.326C430.889 309.606 429.386 309.351 428.109 308.61L426.949 307.94H426.869L423.699 306.11C425.643 299.121 428.761 292.514 432.919 286.57C432.932 286.538 432.949 286.508 432.969 286.48C439.409 277.14 447.359 270.39 452.909 268.86C463.819 265.82 470.669 271.55 467.899 279.08Z" fill="#4D2553"/>
<path opacity="0.3" d="M467.899 279.08C465.589 285.35 452.409 290.79 442.679 299.84C440.267 302.079 438.034 304.503 435.999 307.09C435.089 308.253 433.789 309.047 432.339 309.326C430.889 309.606 429.386 309.351 428.109 308.61L426.949 307.94H426.869L423.699 306.11C425.643 299.121 428.761 292.514 432.919 286.57C432.932 286.538 432.949 286.508 432.969 286.48C439.409 277.14 447.359 270.39 452.909 268.86C463.819 265.82 470.669 271.55 467.899 279.08Z" fill="black"/>
<path d="M458.629 275.31C450.629 277.56 435.219 287.31 428.109 308.61L426.949 307.94C434.159 286.35 449.509 276.53 458.279 274.06C458.363 274.032 458.451 274.021 458.539 274.028C458.628 274.034 458.713 274.059 458.791 274.101C458.87 274.142 458.938 274.198 458.994 274.267C459.049 274.336 459.09 274.415 459.114 274.5C459.138 274.585 459.144 274.674 459.132 274.762C459.121 274.849 459.091 274.934 459.046 275.009C459.001 275.085 458.94 275.151 458.868 275.203C458.797 275.254 458.715 275.291 458.629 275.31Z" fill="white"/>
<path d="M73.0996 359.31C73.0996 362.78 75.6996 367.09 78.8996 368.94L205.19 441.87C206.987 442.782 208.974 443.257 210.99 443.257C213.005 443.257 214.992 442.782 216.79 441.87L439.16 313.48C442.37 311.63 444.96 307.32 444.96 303.85C444.96 300.38 442.37 296.06 439.16 294.21L312.88 221.29C311.082 220.378 309.095 219.903 307.08 219.903C305.064 219.903 303.077 220.378 301.28 221.29L78.8996 349.68C75.6996 351.53 73.0996 355.84 73.0996 359.31Z" fill="#455A64"/>
<path d="M445 303.85C445 307.32 442.4 311.62 439.2 313.48L216.79 441.87C215.004 442.811 213.009 443.285 210.99 443.25V430.69C213.01 430.722 215.005 430.244 216.79 429.3L439.17 300.91C441.97 299.3 442.32 296.79 440.22 294.91C442.91 297.05 445 300.77 445 303.85Z" fill="#37474F"/>
<path d="M211 430.7V443.25C208.98 443.291 206.984 442.816 205.2 441.87L78.8996 368.94C75.6996 367.09 73.0996 362.78 73.0996 359.31C73.0996 356.05 75.3896 352.06 78.3096 350.05C75.7096 351.91 75.9096 354.65 78.8996 356.38L205.19 429.31C206.976 430.261 208.976 430.74 211 430.7Z" fill="#263238"/>
<path d="M67.6603 349.88C64.8203 347.88 64.8203 345.22 64.8203 341.52V154.64C64.934 152.635 65.5184 150.685 66.526 148.947C67.5337 147.21 68.9363 145.734 70.6203 144.64L293 16.21C296.21 14.36 299.16 15.7 302.17 17.43C305.18 19.16 307.09 20.67 307.09 24.36V211.24C306.973 213.244 306.387 215.193 305.379 216.93C304.372 218.666 302.972 220.143 301.29 221.24L78.9003 349.68C74.0503 353 70.7403 352.06 67.6603 349.88Z" fill="#37474F"/>
<path d="M78.9003 349.68C74.0503 352.94 70.7403 352.06 67.6603 349.88C64.8303 347.88 64.8203 345.22 64.8203 341.52V154.65C64.8893 152.634 65.471 150.669 66.5103 148.94L74.7903 153.75C73.7477 155.474 73.1657 157.437 73.1003 159.45V346.33C73.1003 350 75.6903 351.52 78.9003 349.68Z" fill="#263238"/>
<path d="M307.08 24.36C307.08 20.67 304.48 19.17 301.28 21.01L78.8995 149.41C77.1807 150.474 75.7678 151.966 74.7995 153.74L66.5195 148.93C67.5015 147.16 68.9154 145.667 70.6295 144.59L293 16.21C296.2 14.36 299.16 15.7 302.16 17.43C305.16 19.16 307.08 20.67 307.08 24.36Z" fill="#455A64"/>
<path d="M81.9995 156.1L296.42 32.34C298.34 31.23 299.9 32.13 299.9 34.34V205.76C299.829 206.963 299.478 208.132 298.873 209.174C298.269 210.216 297.429 211.102 296.42 211.76L81.9995 335.54C80.0795 336.65 78.5195 335.75 78.5195 333.54V162.12C78.5852 160.914 78.9345 159.74 79.5392 158.694C80.1439 157.648 80.9868 156.759 81.9995 156.1Z" fill="#263238"/>
<path d="M81.9995 156.1C80.9895 156.757 80.1481 157.642 79.5436 158.685C78.9391 159.727 78.5882 160.897 78.5195 162.1V332.49L291.66 209.49C292.669 208.832 293.509 207.946 294.113 206.904C294.718 205.862 295.069 204.693 295.14 203.49V33.07L81.9995 156.1Z" fill="#4D2553"/>
<path opacity="0.65" d="M81.9995 156.1C80.9895 156.757 80.1481 157.642 79.5436 158.685C78.9391 159.727 78.5882 160.897 78.5195 162.1V332.49L291.66 209.49C292.669 208.832 293.509 207.946 294.113 206.904C294.718 205.862 295.069 204.693 295.14 203.49V33.07L81.9995 156.1Z" fill="white"/>
<path d="M95.0003 350L301.37 230.85C302.268 230.392 303.262 230.153 304.27 230.153C305.278 230.153 306.272 230.392 307.17 230.85L313.17 234C314.77 234.93 314.77 236.43 313.17 237.35L106.73 356.5C105.832 356.958 104.838 357.197 103.83 357.197C102.822 357.197 101.828 356.958 100.93 356.5L94.9303 353.37C93.3503 352.44 93.3503 350.94 95.0003 350Z" fill="#37474F"/>
<path d="M111.141 359.65L317.551 240.47C318.353 240.018 319.248 239.757 320.167 239.707C321.086 239.657 322.005 239.819 322.851 240.18L376.581 271.18C377.901 271.95 377.681 273.32 376.081 274.24L169.911 393.24C169.11 393.699 168.213 393.965 167.292 394.017C166.37 394.07 165.449 393.906 164.601 393.54L110.651 362.7C109.321 361.94 109.541 360.57 111.141 359.65Z" fill="#263238"/>
<path d="M288.3 290L294.76 286.27C295.03 286.11 295.07 285.88 294.85 285.75L289.15 282.45C289.004 282.387 288.846 282.36 288.688 282.37C288.529 282.381 288.376 282.429 288.24 282.51L281.78 286.24C281.51 286.4 281.47 286.63 281.69 286.76L287.39 290.05C287.535 290.114 287.693 290.143 287.851 290.135C288.009 290.126 288.163 290.08 288.3 290ZM279.3 277.33L272.83 281.06C272.56 281.22 272.52 281.45 272.74 281.58L278.45 284.87C278.593 284.933 278.749 284.961 278.906 284.952C279.062 284.943 279.214 284.898 279.35 284.82L285.81 281.09C286.09 280.93 286.13 280.7 285.9 280.57L280.2 277.28C280.051 277.22 279.889 277.197 279.729 277.212C279.569 277.228 279.415 277.282 279.28 277.37L279.3 277.33ZM258.4 289.43L247.46 295.74C247.19 295.9 247.15 296.13 247.37 296.26L253.07 299.55C253.215 299.614 253.373 299.643 253.531 299.635C253.689 299.626 253.843 299.58 253.98 299.5L264.91 293.19C265.19 293.03 265.23 292.79 265 292.66L259.3 289.37C259.156 289.309 258.999 289.282 258.843 289.293C258.686 289.303 258.535 289.35 258.4 289.43ZM269.83 282.82L263.37 286.55C263.09 286.71 263.05 286.95 263.28 287.08L268.98 290.37C269.123 290.433 269.279 290.461 269.436 290.452C269.592 290.443 269.744 290.398 269.88 290.32L276.35 286.59C276.62 286.43 276.66 286.19 276.44 286.06L270.74 282.77C270.595 282.706 270.437 282.677 270.279 282.685C270.121 282.694 269.967 282.74 269.83 282.82ZM244.48 297.46L238 301.19C237.72 301.35 237.68 301.59 237.9 301.71L243.61 305.01C243.754 305.071 243.911 305.098 244.067 305.087C244.223 305.077 244.375 305.03 244.51 304.95L250.97 301.22C251.25 301.06 251.29 300.83 251.06 300.7L245.36 297.41C245.219 297.351 245.067 297.324 244.914 297.333C244.761 297.341 244.613 297.385 244.48 297.46ZM235 302.92L228.54 306.65C228.26 306.8 228.22 307.04 228.45 307.17L234.15 310.46C234.289 310.53 234.443 310.567 234.6 310.567C234.756 310.567 234.91 310.53 235.05 310.46L241.52 306.73C241.79 306.57 241.83 306.33 241.61 306.2L235.91 302.91C235.768 302.84 235.612 302.804 235.454 302.805C235.295 302.807 235.14 302.846 235 302.92ZM259 317.32L265.46 313.58C265.74 313.43 265.78 313.19 265.55 313.06L259.85 309.77C259.706 309.707 259.55 309.679 259.394 309.688C259.238 309.697 259.085 309.742 258.95 309.82L252.49 313.55C252.21 313.71 252.17 313.95 252.4 314.08L258.1 317.37C258.243 317.433 258.399 317.461 258.556 317.452C258.712 317.443 258.864 317.398 259 317.32ZM249.56 322.77L256 319C256.27 318.84 256.31 318.61 256.09 318.48L250.39 315.19C250.249 315.118 250.093 315.081 249.935 315.081C249.777 315.081 249.621 315.118 249.48 315.19L243 319C242.73 319.16 242.69 319.39 242.91 319.52L248.61 322.81C248.756 322.879 248.918 322.912 249.08 322.905C249.242 322.898 249.4 322.852 249.54 322.77H249.56ZM240.11 328.22L246.57 324.49C246.85 324.33 246.89 324.1 246.66 323.97L240.96 320.68C240.816 320.617 240.66 320.589 240.504 320.598C240.348 320.607 240.195 320.652 240.06 320.73L233.59 324.46C233.32 324.62 233.28 324.85 233.51 324.98L239.21 328.27C239.351 328.329 239.503 328.356 239.656 328.347C239.808 328.339 239.957 328.295 240.09 328.22H240.11ZM230.66 333.68L237.13 329.95C237.4 329.79 237.44 329.55 237.22 329.42L231.52 326.13C231.375 326.066 231.217 326.037 231.059 326.045C230.901 326.054 230.747 326.1 230.61 326.18L224.15 329.91C223.87 330.07 223.83 330.31 224.06 330.44L229.76 333.73C229.901 333.789 230.053 333.816 230.206 333.807C230.358 333.799 230.507 333.755 230.64 333.68H230.66ZM278.87 295.49L285.33 291.76C285.61 291.6 285.65 291.37 285.42 291.24L279.7 288C279.556 287.937 279.4 287.909 279.244 287.918C279.088 287.927 278.935 287.972 278.8 288.05L272.33 291.78C272.06 291.94 272.02 292.17 272.24 292.3L277.94 295.59C278.088 295.647 278.249 295.668 278.407 295.65C278.565 295.633 278.717 295.578 278.85 295.49H278.87ZM268.45 311.86L282.86 303.54C283.14 303.38 283.18 303.15 282.95 303.02L268.29 294.55C268.145 294.486 267.987 294.457 267.829 294.465C267.671 294.474 267.517 294.52 267.38 294.6L259.93 298.91C259.65 299.07 259.61 299.3 259.84 299.43L267.99 304.13C268.21 304.26 268.17 304.5 267.9 304.66L261.9 308.1C261.63 308.26 261.59 308.49 261.81 308.62L267.51 311.91C267.656 311.976 267.816 312.006 267.976 311.997C268.136 311.989 268.292 311.941 268.43 311.86H268.45ZM225.61 308.37L219.14 312.1C218.87 312.26 218.83 312.49 219.05 312.62L224.75 315.91C224.895 315.974 225.053 316.003 225.211 315.995C225.369 315.986 225.523 315.94 225.66 315.86L232.12 312.13C232.4 311.97 232.44 311.74 232.21 311.61L226.51 308.32C226.364 308.254 226.204 308.224 226.044 308.233C225.884 308.241 225.728 308.289 225.59 308.37H225.61ZM216.16 313.82L209.7 317.55C209.42 317.71 209.38 317.95 209.61 318.08L215.31 321.37C215.454 321.431 215.611 321.458 215.767 321.447C215.923 321.437 216.075 321.39 216.21 321.31L222.68 317.58C222.95 317.43 222.99 317.19 222.77 317.06L217 313.77C216.862 313.714 216.713 313.689 216.564 313.698C216.415 313.706 216.27 313.748 216.14 313.82H216.16ZM163.62 371.9C163.759 371.97 163.913 372.007 164.07 372.007C164.226 372.007 164.38 371.97 164.52 371.9L170.99 368.17C171.26 368.01 171.3 367.78 171.08 367.65L165.38 364.36C165.235 364.296 165.077 364.267 164.919 364.275C164.761 364.284 164.607 364.33 164.47 364.41L158 368.09C157.73 368.25 157.69 368.48 157.91 368.61L163.62 371.9ZM140.62 357.45L134.15 361.18C133.88 361.34 133.84 361.57 134.06 361.7L139.76 364.99C139.905 365.054 140.063 365.083 140.221 365.075C140.379 365.066 140.533 365.02 140.67 364.94L147.13 361.21C147.41 361.05 147.45 360.82 147.22 360.69L141.52 357.4C141.371 357.331 141.207 357.299 141.044 357.307C140.88 357.316 140.72 357.365 140.58 357.45H140.62ZM152.21 368.16C152.353 368.223 152.509 368.251 152.666 368.242C152.822 368.233 152.974 368.188 153.11 368.11L159.58 364.38C159.85 364.22 159.89 363.99 159.67 363.86L153.97 360.56C153.824 360.497 153.666 360.47 153.508 360.48C153.349 360.491 153.196 360.539 153.06 360.62L146.6 364.35C146.32 364.51 146.28 364.74 146.51 364.87L152.21 368.16ZM178.5 374.16L184.96 370.43C185.24 370.27 185.28 370.03 185.05 369.9L179.35 366.61C179.206 366.547 179.05 366.519 178.894 366.528C178.738 366.537 178.585 366.582 178.45 366.66L172 370.4C171.72 370.55 171.68 370.79 171.91 370.92L177.61 374.21C177.746 374.265 177.893 374.289 178.04 374.28C178.187 374.271 178.331 374.23 178.46 374.16H178.5ZM168.15 379.66C168.295 379.724 168.453 379.753 168.611 379.745C168.769 379.736 168.923 379.69 169.06 379.61L175.52 375.88C175.79 375.72 175.83 375.49 175.61 375.36L169.91 372.07C169.765 372.006 169.607 371.977 169.449 371.985C169.291 371.994 169.137 372.04 169 372.12L162.54 375.85C162.27 376.01 162.23 376.24 162.45 376.37L168.15 379.66ZM150 352L143.54 355.73C143.26 355.89 143.22 356.12 143.45 356.25L149.15 359.54C149.293 359.603 149.449 359.631 149.606 359.622C149.762 359.613 149.914 359.568 150.05 359.49L156.52 355.76C156.79 355.6 156.83 355.37 156.61 355.24L150.91 351.94C150.764 351.877 150.606 351.85 150.448 351.86C150.289 351.871 150.136 351.919 150 352ZM197.23 324.73L190.77 328.46C190.49 328.62 190.45 328.85 190.68 328.98L196.38 332.27C196.519 332.34 196.673 332.377 196.83 332.377C196.986 332.377 197.14 332.34 197.28 332.27L203.74 328.54C204.02 328.38 204.06 328.15 203.83 328.02L198.13 324.73C197.993 324.663 197.842 324.628 197.69 324.628C197.537 324.628 197.387 324.663 197.25 324.73H197.23ZM159.45 346.54L153 350.27C152.73 350.43 152.69 350.67 152.91 350.8L158.61 354.09C158.751 354.162 158.907 354.199 159.065 354.199C159.223 354.199 159.379 354.162 159.52 354.09L166 350.3C166.28 350.15 166.32 349.91 166.09 349.78L160.39 346.49C160.244 346.424 160.084 346.394 159.924 346.403C159.764 346.411 159.608 346.459 159.47 346.54H159.45ZM206.67 319.28L200.23 323C199.96 323.15 199.92 323.39 200.14 323.52L205.84 326.81C205.985 326.874 206.143 326.903 206.301 326.895C206.459 326.886 206.613 326.84 206.75 326.76L213.21 323.03C213.48 322.87 213.52 322.63 213.3 322.5L207.6 319.21C207.453 319.149 207.295 319.123 207.136 319.135C206.978 319.147 206.825 319.197 206.69 319.28H206.67ZM187.78 330.18L181.32 333.91C181.05 334.07 181.01 334.31 181.23 334.44L186.93 337.73C187.075 337.793 187.234 337.82 187.392 337.81C187.55 337.799 187.704 337.751 187.84 337.67L194.3 333.94C194.57 333.79 194.61 333.55 194.39 333.42L188.69 330.13C188.548 330.069 188.393 330.042 188.239 330.05C188.084 330.059 187.934 330.103 187.8 330.18H187.78ZM178.34 335.64L171.88 339.37C171.6 339.53 171.56 339.76 171.79 339.89L177.49 343.18C177.633 343.243 177.789 343.271 177.946 343.262C178.102 343.253 178.254 343.208 178.39 343.13L184.85 339.4C185.13 339.24 185.17 339 184.94 338.88L179.24 335.58C179.098 335.522 178.945 335.497 178.793 335.508C178.64 335.518 178.492 335.563 178.36 335.64H178.34ZM168.89 341.09L162.43 344.82C162.16 344.98 162.12 345.21 162.34 345.34L168.04 348.63C168.185 348.694 168.343 348.723 168.501 348.715C168.659 348.706 168.813 348.66 168.95 348.58L175.41 344.85C175.68 344.69 175.72 344.46 175.5 344.33L169.8 341.04C169.658 340.979 169.503 340.952 169.349 340.96C169.194 340.969 169.044 341.013 168.91 341.09H168.89ZM211.73 344.58L218.2 340.85C218.47 340.69 218.51 340.46 218.29 340.33L212.6 337C212.46 336.93 212.306 336.893 212.15 336.893C211.993 336.893 211.839 336.93 211.7 337L205.24 340.73C204.96 340.89 204.92 341.12 205.15 341.25L210.85 344.55C210.987 344.625 211.14 344.667 211.296 344.672C211.453 344.677 211.608 344.646 211.75 344.58H211.73ZM300.14 265.31L293.67 269.05C293.4 269.2 293.36 269.44 293.58 269.57L299.29 272.86C299.433 272.923 299.589 272.951 299.746 272.942C299.902 272.933 300.054 272.888 300.19 272.81L306.65 269.08C306.93 268.92 306.97 268.68 306.74 268.55L301.04 265.26C300.899 265.201 300.747 265.174 300.594 265.183C300.441 265.191 300.293 265.235 300.16 265.31H300.14ZM288.7 271.92L282.24 275.65C281.97 275.81 281.93 276.04 282.15 276.17L287.85 279.46C287.989 279.53 288.143 279.567 288.3 279.567C288.456 279.567 288.61 279.53 288.75 279.46L295.22 275.73C295.49 275.57 295.53 275.34 295.31 275.21L289.61 271.91C289.471 271.843 289.318 271.809 289.164 271.811C289.009 271.812 288.857 271.85 288.72 271.92H288.7ZM309.58 259.86L303.12 263.59C302.85 263.75 302.81 263.99 303.03 264.12L308.73 267.41C308.874 267.471 309.031 267.498 309.187 267.487C309.343 267.477 309.495 267.43 309.63 267.35L316.1 263.62C316.37 263.46 316.41 263.23 316.19 263.1L310.49 259.81C310.348 259.749 310.193 259.722 310.039 259.73C309.884 259.739 309.734 259.783 309.6 259.86H309.58ZM257 308.12L263.46 304.39C263.73 304.23 263.77 304 263.55 303.87L257.85 300.58C257.705 300.516 257.547 300.487 257.389 300.495C257.231 300.504 257.077 300.55 256.94 300.63L250.48 304.36C250.21 304.52 250.17 304.75 250.39 304.88L256.09 308.17C256.235 308.234 256.393 308.263 256.551 308.255C256.709 308.246 256.863 308.2 257 308.12ZM320 254.36C319.86 254.29 319.706 254.253 319.55 254.253C319.393 254.253 319.239 254.29 319.1 254.36L312.64 258.09C312.36 258.25 312.32 258.48 312.55 258.61L318.25 261.9C318.393 261.963 318.549 261.991 318.706 261.982C318.862 261.973 319.014 261.928 319.15 261.85L325.61 258.12C325.89 257.96 325.93 257.73 325.7 257.6L320 254.36ZM221.2 339.13L227.66 335.4C227.94 335.24 227.98 335.01 227.75 334.88L222.05 331.59C221.906 331.527 221.75 331.499 221.594 331.508C221.438 331.517 221.285 331.562 221.15 331.64L214.68 335.37C214.41 335.53 214.37 335.76 214.59 335.89L220.29 339.18C220.435 339.244 220.593 339.273 220.751 339.265C220.909 339.256 221.063 339.21 221.2 339.13ZM337 272.25L343.46 268.52C343.74 268.36 343.78 268.13 343.55 268L337.85 264.71C337.706 264.647 337.55 264.619 337.394 264.628C337.238 264.637 337.085 264.682 336.95 264.76L330.49 268.49C330.21 268.65 330.17 268.88 330.4 269.01L336.1 272.31C336.244 272.371 336.401 272.398 336.557 272.387C336.713 272.377 336.865 272.33 337 272.25ZM318.59 272.53L325.05 268.8C325.33 268.64 325.37 268.41 325.14 268.28L319.44 264.99C319.296 264.927 319.14 264.899 318.984 264.908C318.827 264.917 318.675 264.962 318.54 265.04L312.08 268.77C311.8 268.93 311.76 269.16 311.99 269.29L317.69 272.58C317.837 272.648 317.999 272.679 318.161 272.67C318.323 272.661 318.48 272.613 318.62 272.53H318.59ZM328.89 259.53C328.745 259.466 328.587 259.437 328.429 259.445C328.271 259.454 328.117 259.5 327.98 259.58L321.52 263.32C321.25 263.47 321.21 263.71 321.43 263.84L327.13 267.13C327.275 267.194 327.433 267.223 327.591 267.215C327.749 267.206 327.903 267.16 328.04 267.08L334.5 263.35C334.77 263.19 334.81 262.95 334.59 262.82L328.89 259.53ZM330.89 258.38L345.55 266.85C345.695 266.914 345.853 266.943 346.011 266.935C346.169 266.926 346.323 266.88 346.46 266.8L352.92 263.07C353.19 262.91 353.23 262.68 353.01 262.55L338.34 254.08C338.2 254.01 338.046 253.973 337.89 253.973C337.734 253.973 337.579 254.01 337.44 254.08L331 257.86C330.72 258 330.68 258.25 330.91 258.38H330.89ZM309.1 270.49L302.64 274.22C302.37 274.38 302.32 274.61 302.55 274.74L308.25 278.04C308.395 278.103 308.554 278.13 308.712 278.12C308.87 278.109 309.024 278.061 309.16 277.98L315.62 274.25C315.89 274.09 315.93 273.86 315.71 273.73L310.01 270.44C309.868 270.379 309.713 270.352 309.559 270.36C309.404 270.369 309.254 270.413 309.12 270.49H309.1ZM238 311.54L231.54 315.27C231.26 315.43 231.22 315.66 231.45 315.79L237.15 319.08C237.293 319.143 237.449 319.171 237.606 319.162C237.762 319.153 237.914 319.108 238.05 319.03L244.52 315.3C244.79 315.14 244.83 314.9 244.61 314.78L238.91 311.48C238.764 311.417 238.606 311.39 238.448 311.4C238.289 311.411 238.136 311.459 238 311.54ZM326.65 277.76C326.795 277.824 326.953 277.853 327.111 277.845C327.269 277.836 327.423 277.79 327.56 277.71L334.02 273.98C334.29 273.82 334.33 273.58 334.11 273.45L328.41 270.16C328.269 270.088 328.113 270.051 327.955 270.051C327.797 270.051 327.641 270.088 327.5 270.16L321.07 274C320.8 274.15 320.76 274.39 320.98 274.52L326.65 277.76ZM247.45 306.08L241 309.81C240.73 309.97 240.69 310.21 240.92 310.34L246.62 313.63C246.763 313.693 246.919 313.721 247.076 313.712C247.232 313.703 247.384 313.658 247.52 313.58L253.98 309.84C254.26 309.69 254.3 309.45 254.07 309.32L248.37 306.03C248.228 305.969 248.073 305.942 247.919 305.95C247.764 305.959 247.614 306.003 247.48 306.08H247.45ZM173.04 366.45C173.183 366.513 173.339 366.541 173.496 366.532C173.652 366.523 173.804 366.478 173.94 366.4L180.4 362.67C180.68 362.51 180.72 362.27 180.49 362.14L174.79 358.85C174.65 358.78 174.496 358.743 174.34 358.743C174.183 358.743 174.029 358.78 173.89 358.85L167.43 362.59C167.15 362.74 167.11 362.98 167.34 363.11L173.04 366.45ZM162.44 355.16L156 358.89C155.73 359.05 155.69 359.29 155.91 359.42L161.61 362.71C161.751 362.782 161.907 362.82 162.065 362.82C162.223 362.82 162.379 362.782 162.52 362.71L168.98 358.97C169.26 358.82 169.3 358.58 169.07 358.45L163.37 355.16C163.23 355.09 163.076 355.053 162.92 355.053C162.763 355.053 162.609 355.09 162.47 355.16H162.44ZM183.39 360.94L189.85 357.21C190.12 357.05 190.16 356.82 189.94 356.69L184.24 353.4C184.095 353.336 183.937 353.307 183.779 353.315C183.621 353.324 183.467 353.37 183.33 353.45L176.87 357.18C176.6 357.34 176.56 357.57 176.78 357.7L182.48 361C182.629 361.068 182.793 361.098 182.957 361.088C183.121 361.077 183.28 361.026 183.42 360.94H183.39ZM192.83 355.49L199.29 351.76C199.57 351.6 199.61 351.37 199.38 351.24L193.68 347.95C193.536 347.887 193.38 347.859 193.224 347.868C193.068 347.877 192.915 347.922 192.78 348L186.32 351.73C186.04 351.89 186 352.12 186.23 352.25L191.93 355.54C192.077 355.608 192.239 355.639 192.401 355.63C192.563 355.621 192.72 355.573 192.86 355.49H192.83ZM202.28 350.04L208.74 346.31C209.01 346.15 209.05 345.91 208.83 345.78L203.13 342.49C202.985 342.426 202.827 342.397 202.669 342.405C202.511 342.414 202.357 342.46 202.22 342.54L195.76 346.28C195.49 346.43 195.45 346.67 195.67 346.8L201.37 350.09C201.522 350.154 201.687 350.179 201.851 350.163C202.015 350.147 202.173 350.091 202.31 350L202.28 350.04ZM171.88 349.71L165.42 353.44C165.15 353.6 165.11 353.83 165.33 353.96L171.03 357.25C171.175 357.314 171.333 357.343 171.491 357.335C171.649 357.326 171.803 357.28 171.94 357.2L178.4 353.47C178.67 353.31 178.71 353.08 178.49 352.95L172.79 349.66C172.649 349.601 172.497 349.574 172.344 349.583C172.191 349.591 172.043 349.635 171.91 349.71H171.88ZM181.33 344.26L174.9 348C174.62 348.16 174.58 348.39 174.81 348.52L180.51 351.81C180.653 351.873 180.809 351.901 180.966 351.892C181.122 351.883 181.274 351.838 181.41 351.76L187.87 348.03C188.15 347.87 188.19 347.64 187.96 347.51L182.26 344.21C182.116 344.147 181.96 344.119 181.804 344.128C181.648 344.137 181.495 344.182 181.36 344.26H181.33ZM219.11 322.44L212.65 326.17C212.37 326.33 212.33 326.57 212.56 326.7L218.26 329.99C218.403 330.053 218.559 330.081 218.716 330.072C218.872 330.063 219.024 330.018 219.16 329.94L225.63 326.2C225.9 326.05 225.94 325.81 225.72 325.68L220 322.39C219.862 322.334 219.713 322.309 219.564 322.318C219.415 322.326 219.27 322.368 219.14 322.44H219.11ZM209.66 327.9L203.2 331.63C202.93 331.79 202.89 332.02 203.11 332.15L208.81 335.44C208.955 335.504 209.113 335.533 209.271 335.525C209.429 335.516 209.583 335.47 209.72 335.39L216.18 331.66C216.45 331.5 216.5 331.27 216.27 331.14L210.57 327.84C210.428 327.782 210.275 327.757 210.123 327.768C209.97 327.778 209.822 327.823 209.69 327.9H209.66ZM228.59 317L222.12 320.73C221.85 320.89 221.81 321.12 222.03 321.25L227.73 324.54C227.871 324.612 228.027 324.65 228.185 324.65C228.343 324.65 228.499 324.612 228.64 324.54L235.1 320.81C235.38 320.65 235.42 320.42 235.19 320.29L229.49 317C229.35 316.93 229.196 316.893 229.04 316.893C228.883 316.893 228.729 316.93 228.59 317ZM190.8 338.8L184.34 342.53C184.07 342.69 184.03 342.93 184.25 343.06L189.95 346.35C190.095 346.414 190.253 346.443 190.411 346.435C190.569 346.426 190.723 346.38 190.86 346.3L197.32 342.56C197.59 342.41 197.63 342.17 197.41 342.04L191.71 338.75C191.565 338.686 191.407 338.657 191.249 338.665C191.091 338.674 190.937 338.72 190.8 338.8ZM200.25 333.35L193.79 337.08C193.51 337.24 193.47 337.47 193.7 337.6L199.4 340.89C199.543 340.953 199.699 340.981 199.856 340.972C200.012 340.963 200.164 340.918 200.3 340.84L206.76 337.11C207.04 336.95 207.08 336.72 206.85 336.59L201.15 333.3C201.006 333.237 200.85 333.209 200.694 333.218C200.538 333.227 200.385 333.272 200.25 333.35ZM187.91 368.7L194.37 364.97C194.64 364.81 194.68 364.58 194.46 364.45L188.76 361.16C188.619 361.088 188.463 361.051 188.305 361.051C188.147 361.051 187.991 361.088 187.85 361.16L181.39 364.89C181.12 365.05 181.08 365.28 181.3 365.41L187 368.71C187.143 368.777 187.298 368.81 187.456 368.809C187.613 368.807 187.769 368.77 187.91 368.7ZM137.74 366.14L132 362.85C131.86 362.78 131.706 362.743 131.55 362.743C131.393 362.743 131.239 362.78 131.1 362.85L124.64 366.58C124.36 366.74 124.32 366.98 124.55 367.11L130.25 370.4C130.393 370.463 130.549 370.491 130.706 370.482C130.862 370.473 131.014 370.428 131.15 370.35L137.62 366.61C137.92 366.51 138 366.27 137.74 366.14ZM150.18 369.31L144.48 366.02C144.336 365.957 144.18 365.929 144.024 365.938C143.868 365.947 143.715 365.992 143.58 366.07L133.58 371.81C133.31 371.97 133.27 372.2 133.49 372.33L139.19 375.62C139.335 375.684 139.493 375.713 139.651 375.705C139.809 375.696 139.963 375.65 140.1 375.57L150.04 369.83C150.37 369.67 150.41 369.44 150.18 369.31ZM129.34 359.57L123.64 356.28C123.496 356.219 123.339 356.192 123.183 356.203C123.026 356.213 122.875 356.26 122.74 356.34L114.74 360.93C114.47 361.09 114.43 361.32 114.65 361.45L120.35 364.74C120.495 364.804 120.653 364.833 120.811 364.825C120.969 364.816 121.123 364.77 121.26 364.69L129.26 360.1C129.53 359.94 129.57 359.7 129.34 359.57ZM135.44 356.05C135.583 356.113 135.739 356.141 135.896 356.132C136.052 356.123 136.204 356.078 136.34 356L142.81 352.27C143.08 352.11 143.12 351.88 142.9 351.75L137.2 348.46C137.055 348.396 136.897 348.367 136.739 348.375C136.581 348.384 136.427 348.43 136.29 348.51L129.83 352.24C129.55 352.4 129.51 352.63 129.74 352.76L135.44 356.05ZM161.63 373.05L155.93 369.76C155.786 369.697 155.63 369.669 155.474 369.678C155.318 369.687 155.165 369.732 155.03 369.81L142.6 377C142.32 377.16 142.28 377.39 142.51 377.52L148.21 380.81C148.353 380.873 148.509 380.901 148.666 380.892C148.822 380.883 148.974 380.838 149.11 380.76L161.54 373.58C161.82 373.41 161.86 373.18 161.63 373.05ZM166.12 380.81L160.42 377.52C160.276 377.457 160.12 377.429 159.964 377.438C159.808 377.447 159.655 377.492 159.52 377.57L151.52 382.16C151.25 382.32 151.21 382.56 151.43 382.69L157.13 385.98C157.275 386.043 157.434 386.07 157.592 386.06C157.75 386.049 157.904 386.001 158.04 385.92L165.99 381.33C166.31 381.17 166.35 380.94 166.12 380.81ZM205.67 315.51C205.813 315.573 205.969 315.601 206.126 315.592C206.282 315.583 206.434 315.538 206.57 315.46L213.04 311.72C213.31 311.57 213.35 311.33 213.13 311.2L207.43 307.91C207.289 307.838 207.133 307.801 206.975 307.801C206.817 307.801 206.661 307.838 206.52 307.91L200.06 311.64C199.78 311.8 199.74 312.04 199.97 312.17L205.67 315.51ZM186.78 326.41C186.923 326.473 187.079 326.501 187.236 326.492C187.392 326.483 187.544 326.438 187.68 326.36L194.15 322.63C194.42 322.47 194.46 322.24 194.24 322.11L188.53 318.82C188.386 318.757 188.23 318.729 188.074 318.738C187.918 318.747 187.765 318.792 187.63 318.87L181.17 322.6C180.89 322.76 180.85 322.99 181.08 323.12L186.78 326.41ZM144.89 350.6C145.033 350.663 145.189 350.691 145.346 350.682C145.502 350.673 145.654 350.628 145.79 350.55L152.25 346.82C152.53 346.66 152.57 346.42 152.34 346.3L146.64 343C146.496 342.939 146.339 342.912 146.183 342.923C146.026 342.933 145.875 342.98 145.74 343.06L139.28 346.79C139 346.95 138.96 347.18 139.19 347.31L144.89 350.6ZM196.22 321C196.361 321.072 196.517 321.109 196.675 321.109C196.833 321.109 196.989 321.072 197.13 321L203.59 317.27C203.87 317.11 203.91 316.87 203.68 316.74L197.98 313.45C197.836 313.389 197.679 313.362 197.523 313.373C197.366 313.383 197.215 313.43 197.08 313.51L190.61 317.24C190.34 317.4 190.3 317.63 190.52 317.76L196.22 321ZM177.33 331.91C177.475 331.974 177.633 332.003 177.791 331.995C177.949 331.986 178.103 331.94 178.24 331.86L184.7 328.12C184.97 327.97 185.01 327.73 184.79 327.6L179.09 324.31C178.945 324.246 178.787 324.217 178.629 324.225C178.471 324.234 178.317 324.28 178.18 324.36L171.72 328.09C171.45 328.25 171.41 328.49 171.63 328.62L177.33 331.91ZM171.33 381.59C171.185 381.526 171.027 381.497 170.869 381.505C170.711 381.514 170.557 381.56 170.42 381.64L160.48 387.38C160.2 387.54 160.16 387.77 160.39 387.9L166.09 391.19C166.229 391.26 166.383 391.297 166.54 391.297C166.696 391.297 166.85 391.26 166.99 391.19L176.99 385.45C177.26 385.29 177.3 385.06 177.08 384.93L171.33 381.59ZM163.73 339.73C163.873 339.793 164.029 339.821 164.186 339.812C164.342 339.803 164.494 339.758 164.63 339.68L171.09 335.95C171.37 335.79 171.41 335.56 171.18 335.43L165.48 332.14C165.34 332.07 165.186 332.033 165.03 332.033C164.873 332.033 164.719 332.07 164.58 332.14L158.12 335.87C157.84 336.03 157.8 336.26 158.03 336.39L163.73 339.73ZM154.28 345.19C154.421 345.262 154.577 345.299 154.735 345.299C154.893 345.299 155.049 345.262 155.19 345.19L161.65 341.45C161.92 341.3 161.96 341.06 161.74 340.93L156.04 337.64C155.895 337.576 155.737 337.547 155.579 337.555C155.421 337.564 155.267 337.61 155.13 337.69L148.67 341.42C148.4 341.58 148.36 341.82 148.58 341.95L154.28 345.19ZM346.28 280.55C346.133 280.491 345.975 280.466 345.818 280.476C345.66 280.486 345.507 280.532 345.37 280.61L329.47 289.79C329.19 289.95 329.15 290.18 329.38 290.31L335.08 293.6C335.223 293.663 335.379 293.691 335.536 293.682C335.692 293.673 335.844 293.628 335.98 293.55L352 284.33C352.27 284.17 352.32 283.94 352.09 283.81L346.28 280.55ZM325.4 292.61C325.256 292.547 325.1 292.519 324.944 292.528C324.788 292.537 324.635 292.582 324.5 292.66L318.03 296.39C317.76 296.55 317.72 296.79 317.94 296.92L323.64 300.21C323.785 300.273 323.944 300.3 324.102 300.29C324.26 300.279 324.414 300.231 324.55 300.15L331.01 296.42C331.29 296.27 331.33 296.03 331.1 295.9L325.4 292.61ZM197.35 363.25L203.82 359.52C204.09 359.36 204.13 359.13 203.91 359L198.21 355.7C198.064 355.637 197.906 355.61 197.748 355.62C197.589 355.631 197.436 355.679 197.3 355.76L190.84 359.49C190.56 359.65 190.52 359.88 190.75 360.01L196.45 363.3C196.593 363.363 196.749 363.391 196.906 363.382C197.062 363.373 197.214 363.328 197.35 363.25ZM306.6 303.48C306.459 303.408 306.303 303.37 306.145 303.37C305.987 303.37 305.831 303.408 305.69 303.48L299.23 307.21C298.96 307.37 298.92 307.6 299.14 307.73L304.84 311.02C304.985 311.084 305.143 311.113 305.301 311.105C305.459 311.096 305.613 311.05 305.75 310.97L312.21 307.24C312.48 307.08 312.52 306.85 312.3 306.72L306.6 303.48ZM355.82 275.06C355.675 274.996 355.517 274.967 355.359 274.975C355.201 274.984 355.047 275.03 354.91 275.11L348.45 278.84C348.17 279 348.13 279.24 348.36 279.37L354.06 282.66C354.203 282.723 354.359 282.751 354.516 282.742C354.672 282.733 354.824 282.688 354.96 282.61L361.43 278.88C361.7 278.72 361.74 278.48 361.52 278.35L355.82 275.06ZM371 272.9L356.33 264.43C356.186 264.367 356.03 264.339 355.874 264.348C355.718 264.357 355.565 264.402 355.43 264.48L348.97 268.22C348.69 268.37 348.65 268.61 348.88 268.74L363.54 277.2C363.685 277.264 363.843 277.293 364.001 277.285C364.159 277.276 364.313 277.23 364.45 277.15L370.91 273.42C371.15 273.26 371.19 273 371 272.9ZM271.34 323.9C271.196 323.837 271.04 323.809 270.884 323.818C270.727 323.827 270.575 323.872 270.44 323.95L262.44 328.54C262.17 328.7 262.13 328.93 262.35 329.06L268.05 332.35C268.195 332.414 268.353 332.443 268.511 332.435C268.669 332.426 268.823 332.38 268.96 332.3L276.96 327.71C277.24 327.55 277.28 327.32 277.05 327.19L271.34 323.9ZM295.2 310.12C295.056 310.057 294.9 310.029 294.744 310.038C294.588 310.047 294.435 310.092 294.3 310.17L284.36 315.91C284.08 316.07 284.04 316.3 284.27 316.43L289.97 319.72C290.113 319.783 290.269 319.811 290.426 319.802C290.582 319.793 290.734 319.748 290.87 319.67L300.82 313.93C301.09 313.77 301.13 313.54 300.9 313.41L295.2 310.12ZM249.47 336.52C249.324 336.457 249.166 336.43 249.008 336.44C248.849 336.451 248.696 336.499 248.56 336.58L195.37 367.29C195.1 367.45 195.05 367.68 195.28 367.81L200.98 371.1C201.123 371.163 201.279 371.191 201.436 371.182C201.592 371.173 201.744 371.128 201.88 371.05L255 340.3C255.27 340.14 255.31 339.91 255.09 339.78L249.47 336.52ZM193.29 368.96C193.146 368.897 192.99 368.869 192.834 368.878C192.678 368.887 192.525 368.932 192.39 369.01L184.39 373.6C184.12 373.76 184.08 373.99 184.3 374.12L190 377.42C190.145 377.483 190.304 377.51 190.462 377.5C190.62 377.489 190.774 377.441 190.91 377.36L198.91 372.77C199.19 372.61 199.23 372.38 199 372.25L193.29 368.96ZM260.4 330.21C260.256 330.147 260.1 330.119 259.944 330.128C259.788 330.137 259.635 330.182 259.5 330.26L251.55 334.85C251.27 335.01 251.23 335.25 251.46 335.38L257.16 338.67C257.303 338.733 257.459 338.761 257.616 338.752C257.772 338.743 257.924 338.698 258.06 338.62L266.06 334.02C266.33 333.86 266.37 333.63 266.14 333.5L260.4 330.21ZM182.35 375.27C182.21 375.2 182.056 375.163 181.9 375.163C181.743 375.163 181.589 375.2 181.45 375.27L173.5 379.87C173.22 380.03 173.18 380.26 173.41 380.39L179.11 383.68C179.253 383.743 179.409 383.771 179.566 383.762C179.722 383.753 179.874 383.708 180.01 383.63L187.96 379.04C188.24 378.88 188.28 378.64 188.05 378.51L182.35 375.27ZM282.28 317.58C282.139 317.508 281.983 317.47 281.825 317.47C281.667 317.47 281.511 317.508 281.37 317.58L273.42 322.18C273.15 322.33 273.11 322.57 273.33 322.7L279 326C279.145 326.064 279.303 326.093 279.461 326.085C279.619 326.076 279.773 326.03 279.91 325.95L287.91 321.35C288.18 321.2 288.22 320.96 288 320.83L282.28 317.58ZM316 298C315.856 297.939 315.699 297.912 315.543 297.923C315.386 297.933 315.235 297.98 315.1 298.06L308.64 301.79C308.36 301.94 308.32 302.18 308.55 302.31L314.25 305.6C314.393 305.663 314.549 305.691 314.706 305.682C314.862 305.673 315.014 305.628 315.15 305.55L321.61 301.82C321.89 301.66 321.93 301.42 321.7 301.29L316 298ZM336.51 282.86L342.97 279.13C343.25 278.97 343.29 278.74 343.06 278.61L337.36 275.32C337.216 275.257 337.06 275.229 336.904 275.238C336.748 275.247 336.595 275.292 336.46 275.37L330 279.12C329.72 279.28 329.68 279.51 329.91 279.64L335.61 282.94C335.759 283.008 335.923 283.038 336.087 283.028C336.251 283.017 336.41 282.966 336.55 282.88L336.51 282.86ZM297.7 284.57L304.16 280.83C304.44 280.68 304.48 280.44 304.25 280.31L298.55 277.02C298.41 276.95 298.256 276.913 298.1 276.913C297.943 276.913 297.789 276.95 297.65 277.02L291.19 280.75C290.91 280.91 290.87 281.15 291.1 281.28L296.8 284.57C296.943 284.65 297.103 284.694 297.267 284.697C297.431 284.701 297.593 284.664 297.74 284.59L297.7 284.57ZM272.88 319.57L291.77 308.67C292.04 308.51 292.08 308.27 291.86 308.14L286.16 304.85C286.015 304.786 285.857 304.757 285.699 304.765C285.541 304.774 285.387 304.82 285.25 304.9L266.4 315.86C266.13 316.02 266.09 316.25 266.31 316.38L272.01 319.67C272.155 319.734 272.313 319.763 272.471 319.755C272.629 319.746 272.783 319.7 272.92 319.62L272.88 319.57ZM326.16 288.34C326.305 288.404 326.463 288.433 326.621 288.425C326.779 288.416 326.933 288.37 327.07 288.29L333.53 284.56C333.8 284.4 333.84 284.16 333.62 284.03L327.92 280.74C327.779 280.668 327.623 280.63 327.465 280.63C327.307 280.63 327.151 280.668 327.01 280.74L320.55 284.48C320.28 284.63 320.24 284.87 320.46 285L326.16 288.34ZM318.1 283.11L324.56 279.38C324.84 279.22 324.88 278.99 324.65 278.86L318.95 275.57C318.806 275.507 318.65 275.479 318.494 275.488C318.338 275.497 318.185 275.542 318.05 275.62L311.59 279.35C311.31 279.51 311.27 279.74 311.5 279.87L317.2 283.16C317.344 283.237 317.506 283.277 317.67 283.277C317.834 283.277 317.995 283.237 318.14 283.16L318.1 283.11ZM263.43 325.03L269.9 321.29C270.17 321.14 270.21 320.9 269.98 320.77L264.28 317.48C264.136 317.417 263.98 317.389 263.824 317.398C263.667 317.407 263.515 317.452 263.38 317.53L257 321.31C256.72 321.47 256.68 321.71 256.91 321.84L262.61 325.13C262.748 325.186 262.897 325.211 263.045 325.202C263.194 325.194 263.339 325.152 263.47 325.08L263.43 325.03ZM305.28 300.39C305.425 300.454 305.583 300.483 305.741 300.475C305.899 300.466 306.053 300.42 306.19 300.34L312.65 296.61C312.92 296.45 312.96 296.22 312.74 296.09L307.04 292.8C306.899 292.728 306.743 292.69 306.585 292.69C306.427 292.69 306.271 292.728 306.13 292.8L299.67 296.53C299.4 296.69 299.36 296.92 299.58 297.05L305.28 300.39ZM216.2 352.29L222.67 348.56C222.94 348.4 222.98 348.17 222.76 348.04L217.06 344.75C216.915 344.686 216.757 344.657 216.599 344.665C216.441 344.674 216.287 344.72 216.15 344.8L209.69 348.53C209.41 348.69 209.37 348.92 209.6 349.05L215.3 352.34C215.444 352.417 215.606 352.457 215.77 352.457C215.934 352.457 216.095 352.417 216.24 352.34L216.2 352.29ZM225.65 346.84L232.11 343.11C232.39 342.95 232.43 342.72 232.2 342.59L226.5 339.29C226.356 339.229 226.199 339.202 226.043 339.213C225.886 339.223 225.735 339.27 225.6 339.35L219.14 343.08C218.86 343.24 218.82 343.47 219.04 343.6L224.75 346.89C224.894 346.967 225.056 347.007 225.22 347.007C225.384 347.007 225.545 346.967 225.69 346.89L225.65 346.84ZM206.8 357.8L213.26 354.07C213.54 353.91 213.58 353.67 213.35 353.54L207.65 350.25C207.506 350.187 207.35 350.159 207.194 350.168C207.038 350.177 206.885 350.222 206.75 350.3L200.28 354C200.01 354.16 199.97 354.4 200.19 354.53L205.89 357.82C206.032 357.889 206.189 357.923 206.347 357.92C206.505 357.916 206.661 357.875 206.8 357.8ZM244.58 336L251.04 332.27C251.32 332.11 251.36 331.88 251.13 331.75L245.43 328.46C245.286 328.397 245.13 328.369 244.974 328.378C244.818 328.387 244.665 328.432 244.53 328.51L238.07 332.24C237.79 332.4 237.75 332.63 237.98 332.76L243.68 336.05C243.823 336.113 243.979 336.141 244.136 336.132C244.292 336.123 244.444 336.078 244.58 336ZM235.14 341.46L241.6 337.72C241.87 337.57 241.91 337.33 241.69 337.2L235.99 333.91C235.845 333.846 235.687 333.817 235.529 333.825C235.371 333.834 235.217 333.88 235.08 333.96L228.62 337.69C228.35 337.85 228.31 338.09 228.53 338.22L234.23 341.51C234.376 341.571 234.535 341.597 234.693 341.585C234.851 341.573 235.005 341.523 235.14 341.44V341.46ZM254 330.53L260.46 326.8C260.73 326.64 260.77 326.41 260.55 326.28L254.85 322.98C254.704 322.917 254.546 322.89 254.388 322.9C254.229 322.911 254.076 322.959 253.94 323.04L247.48 326.77C247.21 326.93 247.17 327.16 247.39 327.29L253.09 330.58C253.235 330.644 253.393 330.673 253.551 330.665C253.709 330.656 253.863 330.61 254 330.53ZM306.22 255C306.359 255.07 306.514 255.107 306.67 255.107C306.826 255.107 306.98 255.07 307.12 255L313.59 251.27C313.86 251.11 313.9 250.87 313.68 250.74L312.16 249.87C312.02 249.8 311.866 249.763 311.71 249.763C311.553 249.763 311.399 249.8 311.26 249.87L304.79 253.6C304.52 253.76 304.48 253.99 304.7 254.12L306.22 255ZM259.1 284.66C259.243 284.723 259.399 284.751 259.556 284.742C259.712 284.733 259.864 284.688 260 284.61L266.46 280.88C266.74 280.72 266.78 280.49 266.55 280.36L260.85 277.07C260.706 277.007 260.55 276.979 260.394 276.988C260.238 276.997 260.085 277.042 259.95 277.12L253.48 280.85C253.21 281.01 253.17 281.24 253.39 281.37L259.1 284.66ZM278 273.75C278.143 273.813 278.299 273.841 278.456 273.832C278.612 273.823 278.764 273.778 278.9 273.7L285.36 269.97C285.64 269.81 285.68 269.58 285.45 269.45L279.75 266.16C279.61 266.09 279.456 266.053 279.3 266.053C279.143 266.053 278.989 266.09 278.85 266.16L272.39 269.89C272.11 270.05 272.07 270.28 272.3 270.41L278 273.75ZM247.57 291.32C247.715 291.384 247.873 291.413 248.031 291.405C248.189 291.396 248.343 291.35 248.48 291.27L254.94 287.54C255.21 287.38 255.25 287.15 255.03 287.02L249.33 283.72C249.184 283.657 249.026 283.63 248.868 283.64C248.709 283.651 248.556 283.699 248.42 283.78L242 287.51C241.73 287.67 241.69 287.9 241.91 288.03L247.57 291.32ZM268.57 279.21C268.711 279.282 268.867 279.32 269.025 279.32C269.183 279.32 269.339 279.282 269.48 279.21L275.94 275.47C276.21 275.32 276.25 275.08 276.03 274.95L270.33 271.66C270.185 271.596 270.027 271.567 269.869 271.575C269.711 271.584 269.557 271.63 269.42 271.71L262.96 275.44C262.69 275.6 262.65 275.84 262.87 275.97L268.57 279.21ZM228.7 302.21C228.843 302.273 228.999 302.301 229.156 302.292C229.312 302.283 229.464 302.238 229.6 302.16L236.07 298.42C236.34 298.27 236.38 298.03 236.16 297.9L230.46 294.61C230.315 294.546 230.157 294.517 229.999 294.525C229.841 294.534 229.687 294.58 229.55 294.66L223.09 298.39C222.81 298.55 222.77 298.79 223 298.92L228.7 302.21ZM238.15 296.75C238.289 296.82 238.443 296.857 238.6 296.857C238.756 296.857 238.91 296.82 239.05 296.75L245.51 293.02C245.79 292.86 245.83 292.63 245.6 292.5L239.9 289.21C239.756 289.147 239.6 289.119 239.444 289.128C239.288 289.137 239.135 289.182 239 289.26L232.51 293C232.23 293.16 232.19 293.39 232.42 293.52L238.15 296.75ZM287.33 266C287.474 266.061 287.631 266.088 287.787 266.077C287.943 266.067 288.095 266.02 288.23 265.94L294.7 262.21C294.97 262.05 295.01 261.82 294.79 261.69L293.27 260.81C293.124 260.747 292.966 260.72 292.808 260.73C292.649 260.741 292.496 260.789 292.36 260.87L285.9 264.6C285.63 264.76 285.59 264.99 285.81 265.12L287.33 266ZM315.67 249.64C315.814 249.701 315.971 249.728 316.127 249.717C316.283 249.707 316.435 249.66 316.57 249.58L323 245.8C323.28 245.64 323.32 245.41 323.09 245.28L321.58 244.4C321.434 244.337 321.276 244.31 321.118 244.32C320.959 244.331 320.806 244.379 320.67 244.46L314.21 248.19C313.93 248.35 313.89 248.58 314.12 248.71L315.67 249.64ZM327.67 256.55C327.815 256.614 327.973 256.643 328.131 256.635C328.289 256.626 328.443 256.58 328.58 256.5L335.04 252.77C335.31 252.61 335.35 252.37 335.13 252.24L329.43 248.95C329.289 248.878 329.133 248.84 328.975 248.84C328.817 248.84 328.661 248.878 328.52 248.95L322 252.69C321.73 252.84 321.69 253.08 321.91 253.21L327.67 256.55ZM346 277.43L352.46 273.7C352.73 273.54 352.78 273.31 352.55 273.18L346.85 269.89C346.705 269.826 346.547 269.797 346.389 269.805C346.231 269.814 346.077 269.86 345.94 269.94L339.48 273.67C339.21 273.83 339.17 274.06 339.39 274.19L345.09 277.48C345.235 277.544 345.393 277.573 345.551 277.565C345.709 277.556 345.863 277.51 346 277.43ZM296.78 260.49C296.923 260.553 297.079 260.581 297.236 260.572C297.392 260.563 297.544 260.518 297.68 260.44L304.14 256.71C304.42 256.55 304.46 256.32 304.23 256.19L302.71 255.31C302.566 255.247 302.41 255.219 302.254 255.228C302.098 255.237 301.945 255.282 301.81 255.36L295.35 259.09C295.07 259.25 295.03 259.49 295.26 259.62L296.78 260.49ZM219.22 307.68C219.365 307.744 219.523 307.773 219.681 307.765C219.839 307.756 219.993 307.71 220.13 307.63L226.59 303.9C226.87 303.74 226.91 303.51 226.68 303.38L220.98 300.08C220.836 300.019 220.679 299.992 220.523 300.003C220.366 300.013 220.215 300.06 220.08 300.14L213.61 303.87C213.34 304.03 213.3 304.26 213.52 304.39L219.22 307.68Z" fill="#455A64"/>
<path d="M248.15 356.46L249.47 357.22L284.67 377.54L347.26 341.4L348.56 340.66L312.04 319.58L248.15 356.46Z" fill="#263238"/>
<path d="M346.681 341.74L312.041 321.76L250.051 357.56L284.671 377.54L346.681 341.74Z" fill="#37474F"/>
<path d="M386.22 63.42C386.22 60.79 385.3 58.93 383.81 58.06C382.32 57.19 373.58 52.14 372.06 51.28C370.54 50.42 368.49 50.55 366.21 51.87L203 146.13V200.13L214.7 206.88L377.9 112.65C382.5 110 386.22 103.56 386.22 98.25V63.42Z" fill="#4D2553"/>
<path opacity="0.15" d="M386.22 63.42C386.22 60.79 385.3 58.93 383.81 58.06C382.32 57.19 373.58 52.14 372.06 51.28C370.54 50.42 368.49 50.55 366.21 51.87L203 146.13V200.13L214.7 206.88L377.9 112.65C382.5 110 386.22 103.56 386.22 98.25V63.42Z" fill="black"/>
<path d="M377.9 58.62C382.5 55.97 386.22 58.12 386.22 63.42V98.25C386.22 103.56 382.5 110 377.9 112.65L214.65 206.91V152.91L377.9 58.62Z" fill="#4D2553"/>
<path d="M376.229 108.2C377.857 107.135 379.212 105.702 380.185 104.017C381.158 102.332 381.721 100.442 381.829 98.5V66.32C381.829 63.78 380.039 62.75 377.829 64.01L217.939 156.4V199.66L376.229 108.2Z" fill="#FAFAFA"/>
<path d="M245.8 173C245.8 173.256 245.742 173.509 245.63 173.74C245.545 173.949 245.399 174.127 245.21 174.25L242.45 175.84C242.393 175.893 242.318 175.922 242.24 175.922C242.162 175.922 242.087 175.893 242.03 175.84C241.904 175.69 241.843 175.495 241.86 175.3V166.76C241.917 166.043 241.757 165.325 241.4 164.7C241.09 164.29 240.61 164.28 239.95 164.7C239.289 165.084 238.78 165.684 238.51 166.4C238.207 167.229 238.058 168.107 238.07 168.99V177.53C238.068 177.79 238.006 178.047 237.89 178.28C237.799 178.485 237.654 178.661 237.47 178.79L234.71 180.38C234.653 180.433 234.578 180.462 234.5 180.462C234.422 180.462 234.347 180.433 234.29 180.38C234.164 180.23 234.103 180.035 234.12 179.84V157.58C234.124 157.324 234.182 157.072 234.29 156.84C234.375 156.631 234.522 156.453 234.71 156.33L237.47 154.73C237.529 154.681 237.603 154.655 237.68 154.655C237.757 154.655 237.831 154.681 237.89 154.73C237.956 154.802 238.006 154.888 238.037 154.981C238.068 155.074 238.08 155.172 238.07 155.27V162.46C238.378 161.751 238.767 161.08 239.23 160.46C239.705 159.764 240.326 159.18 241.05 158.75C241.634 158.386 242.295 158.163 242.98 158.1C243.253 158.077 243.529 158.112 243.787 158.203C244.046 158.295 244.282 158.44 244.48 158.63C244.972 159.139 245.317 159.771 245.48 160.46C245.742 161.519 245.86 162.609 245.83 163.7L245.8 173Z" fill="#455A64"/>
<path d="M253.389 162.66C253.355 163.031 253.432 163.403 253.609 163.73C253.749 163.92 253.999 163.93 254.329 163.73L256.089 162.73C256.146 162.68 256.219 162.653 256.294 162.653C256.37 162.653 256.443 162.68 256.499 162.73C256.566 162.802 256.616 162.888 256.647 162.981C256.678 163.074 256.689 163.172 256.679 163.27V166.68C256.677 166.937 256.615 167.19 256.499 167.42C256.424 167.631 256.279 167.811 256.089 167.93L253.999 169.13C253.437 169.491 252.795 169.707 252.129 169.76C251.604 169.793 251.086 169.617 250.689 169.27C250.245 168.844 249.927 168.305 249.769 167.71C249.529 166.868 249.418 165.995 249.439 165.12V159.45L247.819 160.38C247.762 160.433 247.687 160.462 247.609 160.462C247.532 160.462 247.457 160.433 247.399 160.38C247.273 160.23 247.212 160.035 247.229 159.84V156.43C247.234 156.174 247.292 155.922 247.399 155.69C247.484 155.481 247.631 155.303 247.819 155.18L249.439 154.24V148.74C249.442 148.483 249.504 148.23 249.619 148C249.701 147.792 249.844 147.614 250.029 147.49L252.799 145.9C252.855 145.848 252.928 145.819 253.004 145.819C253.081 145.819 253.154 145.848 253.209 145.9C253.274 145.973 253.323 146.059 253.354 146.152C253.385 146.244 253.397 146.343 253.389 146.44V152L255.869 150.57C255.925 150.518 255.998 150.489 256.074 150.489C256.151 150.489 256.224 150.518 256.279 150.57C256.344 150.643 256.393 150.729 256.424 150.822C256.455 150.914 256.467 151.013 256.459 151.11V154.52C256.457 154.78 256.395 155.037 256.279 155.27C256.198 155.478 256.055 155.656 255.869 155.78L253.389 157.21V162.66Z" fill="#455A64"/>
<path d="M263.78 156.66C263.746 157.031 263.823 157.403 264 157.73C264.147 157.93 264.387 157.93 264.72 157.73L266.48 156.73C266.537 156.68 266.61 156.653 266.685 156.653C266.761 156.653 266.834 156.68 266.89 156.73C266.957 156.802 267.007 156.888 267.038 156.981C267.069 157.074 267.08 157.172 267.07 157.27V160.68C267.068 160.937 267.006 161.19 266.89 161.42C266.815 161.631 266.67 161.811 266.48 161.93L264.4 163.13C263.834 163.49 263.189 163.706 262.52 163.76C261.995 163.793 261.477 163.617 261.08 163.27C260.636 162.844 260.318 162.305 260.16 161.71C259.925 160.867 259.814 159.995 259.83 159.12V153.45L258.21 154.38C258.156 154.434 258.082 154.465 258.005 154.465C257.929 154.465 257.855 154.434 257.8 154.38C257.734 154.308 257.684 154.222 257.653 154.129C257.622 154.036 257.611 153.938 257.62 153.84V150.43C257.624 150.173 257.686 149.92 257.8 149.69C257.882 149.482 258.025 149.304 258.21 149.18L259.83 148.24V142.74C259.831 142.484 259.889 142.231 260 142C260.085 141.791 260.232 141.613 260.42 141.49L263.18 139.9C263.239 139.849 263.313 139.821 263.39 139.821C263.468 139.821 263.542 139.849 263.6 139.9C263.723 140.052 263.783 140.245 263.77 140.44V146L266.25 144.57C266.308 144.517 266.383 144.488 266.46 144.488C266.538 144.488 266.613 144.517 266.67 144.57C266.796 144.72 266.858 144.915 266.84 145.11V148.51C266.837 148.769 266.779 149.025 266.67 149.26C266.583 149.467 266.437 149.644 266.25 149.77L263.77 151.2L263.78 156.66Z" fill="#455A64"/>
<path d="M275.821 156.9C275.475 157.11 275.096 157.259 274.701 157.34C274.427 157.402 274.144 157.402 273.871 157.34C273.649 157.286 273.443 157.18 273.271 157.03C273.127 156.9 272.996 156.756 272.881 156.6V163.79C272.877 164.047 272.815 164.3 272.701 164.53C272.625 164.741 272.481 164.921 272.291 165.04L269.521 166.64C269.464 166.69 269.391 166.717 269.316 166.717C269.24 166.717 269.167 166.69 269.111 166.64C269.045 166.569 268.995 166.485 268.964 166.394C268.933 166.303 268.922 166.206 268.931 166.11V143.89C268.934 143.633 268.996 143.38 269.111 143.15C269.192 142.942 269.335 142.764 269.521 142.64L272.181 141.11C272.237 141.06 272.31 141.033 272.386 141.033C272.461 141.033 272.534 141.06 272.591 141.11C272.657 141.182 272.707 141.268 272.738 141.361C272.769 141.454 272.78 141.552 272.771 141.65V142.42C272.901 142.12 273.041 141.81 273.201 141.47C273.355 141.118 273.546 140.782 273.771 140.47C274.013 140.125 274.291 139.806 274.601 139.52C274.968 139.173 275.378 138.874 275.821 138.63C276.382 138.278 277.02 138.066 277.681 138.01C277.958 137.987 278.238 138.022 278.502 138.113C278.765 138.205 279.007 138.35 279.211 138.54C279.718 139.037 280.087 139.657 280.281 140.34C280.584 141.373 280.736 142.444 280.731 143.52C280.731 143.85 280.731 144.3 280.731 144.88C280.731 145.46 280.731 145.88 280.731 146.26C280.713 147.506 280.562 148.746 280.281 149.96C280.035 150.996 279.676 152.002 279.211 152.96C278.814 153.803 278.299 154.584 277.681 155.28C277.151 155.915 276.523 156.462 275.821 156.9ZM276.821 148.16C276.871 147.531 276.871 146.899 276.821 146.27C276.819 145.645 276.646 145.033 276.321 144.5C276.031 144.09 275.541 144.07 274.851 144.5C274.532 144.687 274.251 144.931 274.021 145.22C273.779 145.523 273.583 145.86 273.441 146.22C273.283 146.564 273.159 146.922 273.071 147.29C272.99 147.646 272.933 148.007 272.901 148.37C272.901 148.72 272.901 149.12 272.901 149.58C272.901 150.04 272.901 150.41 272.901 150.73C272.928 151.028 272.985 151.323 273.071 151.61C273.147 151.85 273.273 152.072 273.441 152.26C273.513 152.344 273.602 152.413 273.701 152.463C273.801 152.513 273.909 152.543 274.021 152.55C274.316 152.554 274.606 152.467 274.851 152.3C275.53 151.92 276.051 151.31 276.321 150.58C276.613 149.805 276.775 148.988 276.801 148.16H276.821Z" fill="#455A64"/>
<path d="M286.82 137.48C286.817 137.736 286.759 137.988 286.65 138.22C286.565 138.429 286.418 138.607 286.23 138.73L283.36 140.39C283.301 140.439 283.227 140.465 283.15 140.465C283.073 140.465 282.999 140.439 282.94 140.39C282.876 140.317 282.827 140.231 282.798 140.138C282.769 140.045 282.759 139.947 282.77 139.85V135.4C282.769 135.144 282.827 134.89 282.94 134.66C283.025 134.451 283.171 134.273 283.36 134.15L286.23 132.49C286.289 132.441 286.363 132.415 286.44 132.415C286.517 132.415 286.591 132.441 286.65 132.49C286.776 132.64 286.837 132.835 286.82 133.03V137.48ZM286.82 149.3C286.815 149.556 286.757 149.808 286.65 150.04C286.565 150.249 286.418 150.427 286.23 150.55L283.36 152.21C283.301 152.259 283.227 152.285 283.15 152.285C283.073 152.285 282.999 152.259 282.94 152.21C282.877 152.136 282.83 152.05 282.8 151.957C282.771 151.864 282.761 151.767 282.77 151.67V147.24C282.77 146.984 282.828 146.731 282.94 146.5C283.025 146.291 283.171 146.113 283.36 145.99L286.23 144.33C286.289 144.281 286.363 144.255 286.44 144.255C286.517 144.255 286.591 144.281 286.65 144.33C286.772 144.482 286.833 144.675 286.82 144.87V149.3Z" fill="#455A64"/>
<path d="M295.94 119.42C296.016 119.115 296.127 118.82 296.27 118.54C296.409 118.251 296.632 118.01 296.91 117.85L299.62 116.28C299.668 116.241 299.728 116.22 299.79 116.22C299.852 116.22 299.912 116.241 299.96 116.28C300.015 116.339 300.056 116.408 300.082 116.484C300.108 116.56 300.117 116.64 300.11 116.72C300.105 116.831 300.089 116.942 300.06 117.05L292.68 148.62C292.604 148.913 292.501 149.197 292.37 149.47C292.228 149.771 291.998 150.023 291.71 150.19L289 151.76C288.953 151.801 288.893 151.823 288.83 151.823C288.768 151.823 288.707 151.801 288.66 151.76C288.606 151.701 288.564 151.632 288.538 151.556C288.512 151.48 288.503 151.4 288.51 151.32C288.515 151.209 288.532 151.098 288.56 150.99L295.94 119.42Z" fill="#455A64"/>
<path d="M303.461 115.08C303.537 114.775 303.648 114.48 303.791 114.2C303.93 113.911 304.153 113.67 304.431 113.51L307.151 111.94C307.198 111.899 307.258 111.877 307.321 111.877C307.383 111.877 307.443 111.899 307.491 111.94C307.542 112 307.582 112.07 307.606 112.146C307.63 112.221 307.638 112.301 307.631 112.38C307.626 112.491 307.609 112.602 307.581 112.71L300.201 144.28C300.123 144.572 300.02 144.857 299.891 145.13C299.749 145.431 299.519 145.683 299.231 145.85L296.561 147.39C296.513 147.431 296.453 147.453 296.391 147.453C296.328 147.453 296.268 147.431 296.221 147.39C296.166 147.331 296.125 147.262 296.099 147.186C296.073 147.11 296.063 147.03 296.071 146.95C296.076 146.839 296.092 146.728 296.121 146.62L303.461 115.08Z" fill="#455A64"/>
<path d="M318 114.68C318.22 114.55 318.39 114.55 318.51 114.68C318.62 114.793 318.702 114.93 318.75 115.08L320.37 121.81L321.99 113.21C322.049 112.977 322.13 112.749 322.23 112.53C322.336 112.294 322.514 112.097 322.74 111.97L325.46 110.4C325.51 110.353 325.576 110.327 325.645 110.327C325.714 110.327 325.78 110.353 325.83 110.4C325.941 110.534 325.995 110.706 325.98 110.88C325.989 110.976 325.989 111.074 325.98 111.17L322.49 128.81C322.441 129.05 322.367 129.285 322.27 129.51C322.165 129.744 321.99 129.939 321.77 130.07L319.27 131.51C319.05 131.64 318.89 131.64 318.79 131.51C318.685 131.379 318.603 131.23 318.55 131.07L316.99 124.89L315.44 132.89C315.38 133.134 315.297 133.372 315.19 133.6C315.098 133.833 314.929 134.028 314.71 134.15L312.21 135.6C311.99 135.72 311.83 135.73 311.72 135.6C311.605 135.477 311.525 135.325 311.49 135.16L308 121.55C307.995 121.463 307.995 121.377 308 121.29C307.998 121.06 308.053 120.834 308.16 120.63C308.234 120.443 308.363 120.283 308.53 120.17L311.25 118.6C311.47 118.48 311.63 118.47 311.75 118.6C311.864 118.709 311.947 118.848 311.99 119L313.61 125.73L315.24 117.13C315.292 116.894 315.372 116.666 315.48 116.45C315.582 116.214 315.757 116.018 315.98 115.89L318 114.68Z" fill="#455A64"/>
<path d="M336.939 103.72C337.159 103.59 337.329 103.59 337.439 103.72C337.556 103.828 337.639 103.966 337.679 104.12L339.309 110.84L340.929 102.25C340.978 102.013 341.059 101.785 341.169 101.57C341.274 101.334 341.449 101.135 341.669 101L344.389 99.44C344.442 99.3943 344.51 99.3691 344.579 99.3691C344.649 99.3691 344.717 99.3943 344.769 99.44C344.881 99.5739 344.935 99.7465 344.919 99.92C344.924 100.013 344.924 100.107 344.919 100.2L341.429 117.84C341.383 118.085 341.306 118.324 341.199 118.55C341.101 118.785 340.929 118.982 340.709 119.11L338.209 120.55C337.989 120.68 337.829 120.68 337.729 120.55C337.617 120.422 337.532 120.272 337.479 120.11L335.929 113.92L334.369 121.92C334.307 122.162 334.227 122.4 334.129 122.63C334.035 122.862 333.866 123.055 333.649 123.18L331.149 124.63C330.929 124.75 330.759 124.76 330.659 124.63C330.544 124.507 330.465 124.355 330.429 124.19L326.939 110.57C326.934 110.487 326.934 110.403 326.939 110.32C326.94 110.088 326.991 109.86 327.089 109.65C327.169 109.469 327.297 109.313 327.459 109.2L330.179 107.63C330.399 107.51 330.569 107.5 330.689 107.63C330.8 107.743 330.882 107.88 330.929 108.03L332.549 114.76L334.169 106.16C334.229 105.927 334.309 105.699 334.409 105.48C334.518 105.245 334.696 105.05 334.919 104.92L336.939 103.72Z" fill="#455A64"/>
<path d="M355.92 92.76C356.14 92.63 356.31 92.63 356.43 92.76C356.545 92.8687 356.629 93.0071 356.67 93.16L358.29 99.88L359.91 91.28C359.969 91.0483 360.053 90.8236 360.16 90.61C360.261 90.3713 360.437 90.1715 360.66 90.04L363.38 88.47C363.433 88.4286 363.498 88.4062 363.565 88.4062C363.632 88.4062 363.697 88.4286 363.75 88.47C363.862 88.6075 363.916 88.7834 363.9 88.96C363.91 89.0531 363.91 89.1469 363.9 89.24L360.42 106.88C360.369 107.124 360.292 107.362 360.19 107.59C360.088 107.823 359.912 108.016 359.69 108.14L357.19 109.59C356.97 109.72 356.81 109.72 356.71 109.59C356.607 109.457 356.526 109.309 356.47 109.15L354.89 103L353.34 111C353.278 111.242 353.198 111.48 353.1 111.71C352.999 111.941 352.828 112.133 352.61 112.26L350.11 113.7C349.9 113.83 349.73 113.84 349.62 113.7C349.511 113.573 349.432 113.422 349.39 113.26L345.91 99.64C345.9 99.557 345.9 99.473 345.91 99.39C345.91 99.1571 345.965 98.9275 346.07 98.72C346.146 98.5366 346.275 98.38 346.44 98.27L349.16 96.7C349.38 96.57 349.54 96.57 349.66 96.7C349.777 96.8076 349.86 96.9465 349.9 97.1L351.52 103.83L353.15 95.23C353.2 94.9939 353.281 94.7653 353.39 94.55C353.492 94.3143 353.667 94.1178 353.89 93.99L355.92 92.76Z" fill="#455A64"/>
<path d="M368.75 102C368.747 102.26 368.686 102.517 368.57 102.75C368.486 102.956 368.343 103.134 368.16 103.26L365.29 104.91C365.232 104.961 365.157 104.989 365.08 104.989C365.003 104.989 364.928 104.961 364.87 104.91C364.805 104.837 364.756 104.751 364.725 104.658C364.694 104.566 364.682 104.467 364.69 104.37V99.91C364.693 99.6529 364.755 99.4 364.87 99.17C364.951 98.9592 365.099 98.7804 365.29 98.66L368.16 97C368.216 96.9501 368.289 96.9225 368.365 96.9225C368.44 96.9225 368.513 96.9501 368.57 97C368.636 97.0724 368.686 97.1579 368.717 97.2509C368.748 97.3439 368.759 97.4424 368.75 97.54V102Z" fill="#455A64"/>
<path d="M207.44 137.15L207.36 137.1L187.36 125.22L187.25 125.15C178.44 119.83 166.68 120.67 154.04 128.93C128.63 145.52 109.27 185.75 110.8 218.79C111.56 235.26 117.36 246.84 126.14 252.25L126.22 252.3L146.22 264.18L146.31 264.24C155.12 269.57 166.89 268.74 179.55 260.47C204.95 243.89 224.31 203.65 222.79 170.61C222 154.14 216.22 142.57 207.44 137.15Z" fill="#37474F"/>
<path d="M145.569 263.78L126.199 252.3L126.119 252.23C117.339 246.81 111.539 235.23 110.779 218.79C110.099 204.05 113.579 187.9 119.879 173.05L120.009 172.72L139.889 184.93C133.579 199.77 130.109 215.93 130.789 230.67C131.519 246.79 137.099 258.22 145.569 263.78Z" fill="#263238"/>
<path d="M179.55 260.47C204.95 243.89 224.31 203.65 222.79 170.61C221.27 137.57 199.43 124.22 174.03 140.81C148.63 157.4 129.26 197.64 130.79 230.68C132.32 263.72 154.14 277.06 179.55 260.47Z" fill="#455A64"/>
<path d="M165.21 251.75C161.889 251.78 158.62 250.924 155.74 249.27C147.74 244.67 143.15 234.12 143.15 220.27C143.15 194.88 158.58 165.27 177.55 154.21C186.17 149.21 194.55 148.55 201.28 152.39C209.28 156.99 213.87 167.55 213.87 181.39C213.87 206.77 198.44 236.39 179.47 247.39C175.186 250.078 170.266 251.583 165.21 251.75ZM191.8 153.8C187.43 153.95 183.177 155.251 179.47 157.57C161.55 168 147 196.14 147 220.32C147 232.71 150.89 242.05 157.68 245.96C163.12 249.09 170.19 248.44 177.58 244.14C195.5 233.72 210.08 205.57 210.08 181.4C210.08 169 206.19 159.66 199.4 155.75C197.085 154.437 194.462 153.764 191.8 153.8Z" fill="#4D2553"/>
<path d="M165.199 188.27C161.056 188.3 157.027 186.914 153.779 184.34L155.549 182.08C161.399 186.66 169.289 186.46 177.789 181.52C186.589 176.4 194.859 166.91 201.079 154.81L203.629 156.12C197.169 168.71 188.499 178.61 179.229 184C175.01 186.634 170.17 188.107 165.199 188.27Z" fill="#4D2553"/>
<path d="M155.939 246.9L153.389 245.59C159.849 233.01 168.519 223.11 177.789 217.71C187.369 212.14 196.409 212.02 203.239 217.37L201.469 219.63C195.619 215.05 187.729 215.25 179.229 220.19C170.429 225.31 162.159 234.8 155.939 246.9Z" fill="#4D2553"/>
<path d="M174.81 248.33C173.443 248.323 172.104 247.95 170.93 247.25C164.19 243.38 160 229.4 160 210.79C160 185.12 167.82 160.48 177.79 154.68C179.017 153.877 180.443 153.431 181.909 153.392C183.375 153.353 184.822 153.723 186.09 154.46C192.83 158.34 197.02 172.31 197.02 190.92C197.02 216.59 189.2 241.23 179.23 247.04C177.896 247.852 176.371 248.297 174.81 248.33ZM182.21 156.25C181.146 156.274 180.108 156.588 179.21 157.16C170.34 162.31 162.85 186.87 162.85 210.79C162.85 230.49 167.62 242.05 172.34 244.79C173.172 245.272 174.124 245.507 175.085 245.47C176.046 245.433 176.977 245.124 177.77 244.58C186.64 239.42 194.13 214.86 194.13 190.94C194.13 171.24 189.36 159.68 184.64 156.94C183.905 156.5 183.067 156.262 182.21 156.25Z" fill="#4D2553"/>
<path d="M179.95 155.92H177.08V245.8H179.95V155.92Z" fill="#4D2553"/>
<path d="M209.71 179.926L143.146 218.626L144.581 221.094L211.145 182.394L209.71 179.926Z" fill="#4D2553"/>
<path d="M412.59 137.48C412.342 136.908 411.927 136.424 411.4 136.09L408.4 134.37C407.11 133.62 405.52 134.37 404.68 134.87L402.82 133.8C400.57 132.44 397.43 135.29 396.73 135.97L395.92 135.51C394.86 134.87 393.42 135.27 392.13 135.92V125.09C392.176 124.627 392.103 124.159 391.917 123.732C391.732 123.305 391.44 122.933 391.07 122.65H391.02L388.09 120.95C387.657 120.76 387.183 120.686 386.713 120.735C386.243 120.784 385.794 120.955 385.41 121.23C384.297 121.957 383.371 122.937 382.708 124.088C382.044 125.24 381.661 126.532 381.59 127.86V161C381.441 160.922 381.287 160.852 381.13 160.79C378.52 158.94 375.77 157.85 373.35 158.28C371.307 158.751 369.52 159.98 368.35 161.72C367.09 163.95 369.17 165.35 371.86 168.42C374.55 171.49 376.86 175.14 379.31 177.42C380.509 178.632 381.932 179.6 383.5 180.27V184.61L386.45 186.32L408.93 173.32V169C408.93 169 411.72 157.88 412.61 153.23C413.5 148.58 414.31 141.05 412.59 137.48Z" fill="#4D2553"/>
<path opacity="0.8" d="M412.59 137.48C412.342 136.908 411.927 136.424 411.4 136.09L408.4 134.37C407.11 133.62 405.52 134.37 404.68 134.87L402.82 133.8C400.57 132.44 397.43 135.29 396.73 135.97L395.92 135.51C394.86 134.87 393.42 135.27 392.13 135.92V125.09C392.176 124.627 392.103 124.159 391.917 123.732C391.732 123.305 391.44 122.933 391.07 122.65H391.02L388.09 120.95C387.657 120.76 387.183 120.686 386.713 120.735C386.243 120.784 385.794 120.955 385.41 121.23C384.297 121.957 383.371 122.937 382.708 124.088C382.044 125.24 381.661 126.532 381.59 127.86V161C381.441 160.922 381.287 160.852 381.13 160.79C378.52 158.94 375.77 157.85 373.35 158.28C371.307 158.751 369.52 159.98 368.35 161.72C367.09 163.95 369.17 165.35 371.86 168.42C374.55 171.49 376.86 175.14 379.31 177.42C380.509 178.632 381.932 179.6 383.5 180.27V184.61L386.45 186.32L408.93 173.32V169C408.93 169 411.72 157.88 412.61 153.23C413.5 148.58 414.31 141.05 412.59 137.48Z" fill="white"/>
<path opacity="0.2" d="M392.159 136V139.67C393.047 138.9 394.016 138.23 395.049 137.67L392.159 136ZM405.739 134.4C405.392 134.541 405.058 134.712 404.739 134.91L405.739 135.47C406.364 135.821 406.858 136.365 407.149 137.02C407.666 136.608 408.238 136.271 408.849 136.02L405.739 134.4ZM398.739 134.4C398.021 134.858 397.351 135.388 396.739 135.98L398.679 137.11C398.719 137.127 398.757 137.151 398.789 137.18C399.089 137.335 399.349 137.558 399.549 137.83C400.178 137.199 400.872 136.636 401.619 136.15L398.739 134.4ZM381.549 127.81V161C382.587 161.514 383.575 162.123 384.499 162.82V129.51L381.549 127.81ZM382.239 179.15C379.809 176.89 377.459 173.22 374.799 170.15C372.279 167.26 370.269 165.85 371.099 163.84L368.099 162.13C367.279 164.13 369.269 165.55 371.799 168.45C374.329 171.35 376.799 175.16 379.239 177.45C380.441 178.66 381.863 179.627 383.429 180.3V184.65L386.429 186.35V182C384.858 181.319 383.434 180.337 382.239 179.11V179.15Z" fill="#4D2553"/>
<path opacity="0.1" d="M392.159 136V139.67C393.047 138.9 394.016 138.23 395.049 137.67L392.159 136ZM405.739 134.4C405.392 134.541 405.058 134.712 404.739 134.91L405.739 135.47C406.364 135.821 406.858 136.365 407.149 137.02C407.666 136.608 408.238 136.271 408.849 136.02L405.739 134.4ZM398.739 134.4C398.021 134.858 397.351 135.388 396.739 135.98L398.679 137.11C398.719 137.127 398.757 137.151 398.789 137.18C399.089 137.335 399.349 137.558 399.549 137.83C400.178 137.199 400.872 136.636 401.619 136.15L398.739 134.4ZM381.549 127.81V161C382.587 161.514 383.575 162.123 384.499 162.82V129.51L381.549 127.81ZM382.239 179.15C379.809 176.89 377.459 173.22 374.799 170.15C372.279 167.26 370.269 165.85 371.099 163.84L368.099 162.13C367.279 164.13 369.269 165.55 371.799 168.45C374.329 171.35 376.799 175.16 379.239 177.45C380.441 178.66 381.863 179.627 383.429 180.3V184.65L386.429 186.35V182C384.858 181.319 383.434 180.337 382.239 179.11V179.15Z" fill="black"/>
<path d="M386.428 186.31V182C384.859 181.328 383.436 180.357 382.238 179.14C379.808 176.88 377.458 173.21 374.798 170.14C372.138 167.07 370.018 165.67 371.288 163.43C372.461 161.695 374.248 160.469 376.288 160C378.858 159.54 381.778 160.79 384.528 162.83V129.51C384.602 128.183 384.987 126.893 385.653 125.742C386.318 124.592 387.245 123.615 388.358 122.89C390.468 121.67 392.178 122.66 392.178 125.09V139.64C392.178 139.64 397.458 134.96 399.588 137.83C399.588 137.83 404.768 132.41 407.098 136.99C407.098 136.99 410.908 133.92 412.618 137.48C414.328 141.04 413.508 148.57 412.618 153.22C411.728 157.87 408.908 169 408.908 169V173.34L386.428 186.31Z" fill="#4D2553"/>
<path opacity="0.65" d="M386.428 186.31V182C384.859 181.328 383.436 180.357 382.238 179.14C379.808 176.88 377.458 173.21 374.798 170.14C372.138 167.07 370.018 165.67 371.288 163.43C372.461 161.695 374.248 160.469 376.288 160C378.858 159.54 381.778 160.79 384.528 162.83V129.51C384.602 128.183 384.987 126.893 385.653 125.742C386.318 124.592 387.245 123.615 388.358 122.89C390.468 121.67 392.178 122.66 392.178 125.09V139.64C392.178 139.64 397.458 134.96 399.588 137.83C399.588 137.83 404.768 132.41 407.098 136.99C407.098 136.99 410.908 133.92 412.618 137.48C414.328 141.04 413.508 148.57 412.618 153.22C411.728 157.87 408.908 169 408.908 169V173.34L386.428 186.31Z" fill="white"/>
<g opacity="0.1">
<path d="M392.148 145.89C392.148 145.89 392.628 139.25 395.068 137.67H394.988C393.975 138.213 393.023 138.863 392.148 139.61V139.49C392.135 139.529 392.135 139.571 392.148 139.61V145.89Z" fill="black"/>
<path d="M399.559 137.83V143.9C399.559 143.9 400.229 137.66 401.629 136.15C400.881 136.635 400.187 137.198 399.559 137.83Z" fill="black"/>
<path d="M407.068 137V143.09C407.068 143.09 407.448 136.95 408.768 136.09C408.164 136.316 407.592 136.622 407.068 137Z" fill="black"/>
</g>
<path opacity="0.15" d="M336.53 311.4C319.26 320.01 311.42 329.05 320.36 335.4C329.3 341.75 353.63 350.32 353.63 350.32L356.82 361L392.16 340.59V328.48C392.16 328.48 370.35 313.48 361.84 310.54C353.33 307.6 346.65 306.36 336.53 311.4Z" fill="black"/>
<path d="M385.259 366.13C385.259 366.13 379.929 379.22 379.649 384.38C379.369 389.75 378.069 391.54 378.979 397.38C379.179 398.65 379.849 401.2 379.979 402.24C380.035 402.457 380.043 402.684 380.001 402.905C379.959 403.126 379.869 403.334 379.737 403.516C379.605 403.698 379.435 403.848 379.238 403.956C379.041 404.064 378.823 404.127 378.599 404.14C376.259 404.63 372.389 400.24 370.539 395.47C368.683 389.968 367.167 384.358 365.999 378.67C365.907 377.37 366.163 376.069 366.739 374.9C367.03 374.216 367.389 373.563 367.809 372.95C368.579 370.61 368.949 366.16 369.599 363.08L385.259 366.13Z" fill="#FFA8A7"/>
<path d="M361.4 383.57C361.092 384.117 360.879 384.712 360.77 385.33C360.77 386.4 363.14 389.94 364.09 391.22C365.431 392.962 366.057 395.152 365.84 397.34C365.7 400.77 367.22 404.08 369.43 406.91C372.475 410.595 376.564 413.272 381.16 414.59C386.83 416.33 388.83 413.49 388.83 413.49C388.83 413.49 390.58 410.76 389.53 409.64C388.48 408.52 361.4 383.57 361.4 383.57Z" fill="#263238"/>
<path d="M367.768 373C367.598 373 367.288 372.95 366.848 373.48C366.678 373.68 365.648 376.23 364.788 377.57C363.928 378.91 361.678 381.45 361.398 383.62C362.708 387.82 366.648 390.74 367.238 394.71C367.828 398.68 367.898 403.27 373.988 408.13C380.078 412.99 386.348 413.48 388.598 412.19C390.848 410.9 390.598 408.5 387.508 403.9C384.178 399.03 381.928 388.46 381.928 388.45C381.637 386.967 381.44 385.468 381.338 383.96C381.37 382.468 381.51 380.981 381.758 379.51C381.879 378.831 381.781 378.13 381.478 377.51C381.05 376.961 380.464 376.556 379.798 376.35C378.799 375.878 377.749 375.522 376.668 375.29C375.582 375.059 374.449 375.196 373.448 375.68C372.804 376.141 372.137 376.568 371.448 376.96C370.949 377.162 370.403 377.22 369.872 377.126C369.342 377.032 368.848 376.791 368.448 376.43C368.044 376.113 367.749 375.677 367.604 375.185C367.458 374.692 367.471 374.166 367.638 373.68C367.67 373.451 367.713 373.224 367.768 373Z" fill="#455A64"/>
<path d="M370.43 404.19C371.325 402.663 372.621 401.41 374.177 400.567C375.734 399.724 377.492 399.324 379.26 399.41C385.73 399.41 387.97 402.73 388.95 404.66C390.13 406.97 391.35 411.15 388.68 412.35C385.79 413.64 382.45 413.24 377.2 410.61C371.95 407.98 370.43 404.19 370.43 404.19Z" fill="#FAFAFA"/>
<path d="M371.61 384.7C371.702 384.744 371.803 384.767 371.905 384.767C372.007 384.767 372.108 384.744 372.2 384.7C373.2 384.19 378.49 383.09 381.57 385.94C381.96 385.62 381.88 385.04 381.37 384.22C377.77 381.93 372.76 382.95 371.56 383.56C371.485 383.598 371.418 383.65 371.364 383.715C371.31 383.78 371.27 383.855 371.247 383.935C371.223 384.016 371.217 384.101 371.228 384.184C371.239 384.268 371.267 384.348 371.31 384.42C371.377 384.543 371.482 384.642 371.61 384.7Z" fill="#FAFAFA"/>
<path d="M382.23 389.71C382.313 389.405 382.323 389.085 382.259 388.776C382.194 388.466 382.058 388.176 381.86 387.93C380.401 387.247 378.822 386.862 377.213 386.797C375.604 386.732 373.998 386.988 372.49 387.55C372.416 387.59 372.352 387.644 372.3 387.708C372.247 387.773 372.208 387.848 372.185 387.928C372.162 388.008 372.155 388.092 372.164 388.174C372.173 388.257 372.199 388.337 372.24 388.41C372.312 388.533 372.42 388.63 372.55 388.69C372.641 388.737 372.742 388.761 372.845 388.761C372.947 388.761 373.048 388.737 373.14 388.69C374.11 388.2 379.12 387.15 382.23 389.71Z" fill="#FAFAFA"/>
<path d="M384.868 398.45C384.872 397.597 384.579 396.77 384.038 396.11C380.448 393.94 375.558 394.94 374.368 395.55C374.294 395.589 374.229 395.642 374.176 395.707C374.123 395.771 374.083 395.846 374.06 395.927C374.036 396.007 374.03 396.091 374.04 396.174C374.05 396.257 374.077 396.338 374.118 396.41C374.203 396.561 374.342 396.675 374.508 396.727C374.673 396.779 374.852 396.766 375.008 396.69C376.068 396.15 381.898 395 384.868 398.45Z" fill="#FAFAFA"/>
<path d="M373.479 392.69C373.571 392.734 373.672 392.757 373.774 392.757C373.876 392.757 373.977 392.734 374.069 392.69C375.069 392.18 380.239 391.11 383.339 393.84C383.4 393.502 383.384 393.154 383.29 392.823C383.196 392.492 383.029 392.186 382.799 391.93C381.341 391.247 379.761 390.862 378.152 390.797C376.544 390.732 374.938 390.988 373.429 391.55C373.356 391.59 373.291 391.644 373.239 391.708C373.187 391.773 373.148 391.848 373.125 391.928C373.101 392.008 373.094 392.092 373.104 392.174C373.113 392.257 373.139 392.337 373.179 392.41C373.247 392.532 373.352 392.63 373.479 392.69Z" fill="#FAFAFA"/>
<path d="M390.999 382.2C390.999 382.2 393.649 398.2 396.589 404.35C399.529 410.5 401.049 413.53 405.099 418.22C405.979 419.22 407.989 421.13 408.709 421.96C408.88 422.122 409.013 422.32 409.098 422.54C409.184 422.759 409.22 422.995 409.203 423.23C409.187 423.465 409.119 423.693 409.004 423.899C408.89 424.105 408.731 424.283 408.539 424.42C406.739 426.14 399.099 426.55 394.819 423.34C390.539 420.13 386.639 413.34 384.079 410.71C383.079 409.71 382.219 408.71 381.359 407.71C380.499 406.71 380.759 405.71 380.689 404.59C380.689 404.04 380.689 402.54 380.689 402.54C380.099 399.85 378.519 395.64 377.689 393.02L390.999 382.2Z" fill="#FFA8A7"/>
<path d="M379.229 414.58C379.183 415.237 379.25 415.896 379.429 416.53C379.849 417.53 383.719 419.83 385.199 420.62C387.24 421.672 388.805 423.459 389.579 425.62C390.989 428.93 393.899 431.38 397.259 433.07C401.788 435.192 406.855 435.889 411.789 435.07C417.929 434.19 418.549 430.61 418.549 430.61C418.549 430.61 418.999 427.24 417.499 426.61C415.999 425.98 379.229 414.58 379.229 414.58Z" fill="#263238"/>
<path d="M380.519 401.69C380.359 401.76 380.049 401.85 379.859 402.55C379.799 402.82 379.959 405.69 379.739 407.34C379.519 408.99 378.529 412.39 379.229 414.58C382.349 417.97 387.379 418.97 389.709 422.46C392.039 425.95 394.159 430.27 402.099 432.14C410.039 434.01 416.179 431.69 417.739 429.47C419.299 427.25 418.019 425.06 412.999 422.11C407.669 419 400.829 410 400.819 410C399.882 408.722 399.027 407.386 398.259 406C397.617 404.58 397.085 403.112 396.669 401.61C396.478 400.908 396.068 400.284 395.499 399.83C394.852 399.498 394.118 399.376 393.399 399.48C392.241 399.479 391.087 399.61 389.959 399.87C388.824 400.136 387.811 400.773 387.079 401.68C386.675 402.41 386.231 403.118 385.749 403.8C385.367 404.212 384.876 404.509 384.333 404.655C383.79 404.802 383.217 404.793 382.679 404.63C382.154 404.512 381.678 404.233 381.32 403.831C380.961 403.429 380.737 402.925 380.679 402.39C380.612 402.16 380.559 401.926 380.519 401.69Z" fill="#455A64"/>
<path d="M397 430.05C397.168 428.207 397.836 426.445 398.932 424.954C400.029 423.463 401.511 422.3 403.22 421.59C409.36 418.72 412.95 420.84 414.74 422.23C416.88 423.89 419.9 427.3 417.91 429.63C415.76 432.14 412.42 433.25 406.27 433.11C400.12 432.97 397 430.05 397 430.05Z" fill="#FAFAFA"/>
<path d="M389.4 411.08C389.507 411.082 389.613 411.06 389.71 411.015C389.807 410.97 389.892 410.903 389.96 410.82C390.67 409.89 395.18 406.48 399.37 407.82C399.61 407.34 399.27 406.82 398.42 406.27C393.99 405.71 389.71 408.92 388.84 410.04C388.785 410.109 388.746 410.188 388.723 410.273C388.701 410.358 388.697 410.447 388.711 410.533C388.725 410.62 388.758 410.702 388.805 410.776C388.853 410.849 388.916 410.912 388.99 410.96C389.11 411.044 389.254 411.086 389.4 411.08Z" fill="#FAFAFA"/>
<path d="M401.689 411.08C401.628 410.755 401.492 410.449 401.293 410.185C401.093 409.921 400.835 409.707 400.539 409.56C396.319 409.33 392.349 412.32 391.539 413.39C391.486 413.46 391.447 413.54 391.426 413.626C391.404 413.711 391.401 413.8 391.415 413.887C391.429 413.974 391.46 414.057 391.507 414.132C391.555 414.206 391.616 414.27 391.689 414.32C391.808 414.406 391.952 414.451 392.099 414.45C392.207 414.45 392.313 414.426 392.41 414.38C392.507 414.333 392.592 414.265 392.659 414.18C393.329 413.28 397.609 410.05 401.689 411.08Z" fill="#FAFAFA"/>
<path d="M408.089 418.17C407.712 417.362 407.065 416.712 406.259 416.33C401.899 415.88 397.719 419.01 396.859 420.12C396.806 420.19 396.767 420.27 396.746 420.356C396.725 420.441 396.721 420.53 396.735 420.617C396.749 420.704 396.78 420.787 396.828 420.862C396.875 420.936 396.937 421 397.009 421.05C397.131 421.132 397.273 421.177 397.419 421.18C397.527 421.18 397.633 421.156 397.73 421.11C397.827 421.063 397.913 420.995 397.979 420.91C398.739 419.93 403.719 416.19 408.089 418.17Z" fill="#FAFAFA"/>
<path d="M394.75 417.81C394.855 417.812 394.959 417.789 395.055 417.744C395.15 417.699 395.234 417.632 395.3 417.55C396.01 416.63 400.43 413.29 404.58 414.5C404.488 414.152 404.317 413.829 404.082 413.557C403.846 413.285 403.551 413.071 403.22 412.93C401.54 412.937 399.879 413.28 398.333 413.938C396.788 414.595 395.389 415.555 394.22 416.76C394.166 416.829 394.127 416.908 394.105 416.992C394.083 417.076 394.078 417.164 394.091 417.25C394.104 417.336 394.135 417.419 394.181 417.493C394.227 417.567 394.288 417.63 394.36 417.68C394.474 417.76 394.61 417.805 394.75 417.81Z" fill="#FAFAFA"/>
<path d="M355.798 291.32C362.338 296.11 385.128 309.27 394.378 317.83C397.058 320.31 397.938 323.56 397.278 330.66C396.388 340.3 388.818 373.13 388.818 373.13C387.768 374.98 385.938 371.47 385.938 371.47L349.828 325.63L355.798 291.32Z" fill="#4D2553"/>
<path opacity="0.3" d="M355.798 291.32C362.338 296.11 385.128 309.27 394.378 317.83C397.058 320.31 397.938 323.56 397.278 330.66C396.388 340.3 388.818 373.13 388.818 373.13C387.768 374.98 385.938 371.47 385.938 371.47L349.828 325.63L355.798 291.32Z" fill="black"/>
<path opacity="0.3" d="M387.248 362.91C378.898 355.91 351.908 313.34 351.908 313.34C355.588 310.24 357.478 299.47 357.478 299.47C358.938 303.62 357.398 309.89 356.268 312.18C358.388 314.02 370.398 323.89 378.738 330.49C381.303 332.255 383.082 334.948 383.698 338C385.418 347 387.448 361.08 387.248 362.91Z" fill="black"/>
<path d="M355.798 291.32L309.318 301.61C311.588 310.14 312.238 314.55 314.608 319.04C316.978 323.53 319.608 328.35 331.708 334.31C343.348 340.04 357.558 345.94 360.408 347.31C362.548 348.31 363.568 352.62 364.538 358.18C365.538 364 365.648 368.57 371.418 380.8C377.058 392.8 378.218 395.36 378.218 395.36C378.218 395.36 386.948 396.27 392.748 391.17C392.748 391.17 384.838 350.1 383.148 342.71C382.208 338.58 382.148 336.41 377.058 331.87C372.668 327.98 353.058 313.12 353.058 313.12C353.058 313.12 360.828 302.63 355.798 291.32Z" fill="#4D2553"/>
<path opacity="0.3" d="M355.798 291.32L309.318 301.61C311.588 310.14 312.238 314.55 314.608 319.04C316.978 323.53 319.608 328.35 331.708 334.31C343.348 340.04 357.558 345.94 360.408 347.31C362.548 348.31 363.568 352.62 364.538 358.18C365.538 364 365.648 368.57 371.418 380.8C377.058 392.8 378.218 395.36 378.218 395.36C378.218 395.36 386.948 396.27 392.748 391.17C392.748 391.17 384.838 350.1 383.148 342.71C382.208 338.58 382.148 336.41 377.058 331.87C372.668 327.98 353.058 313.12 353.058 313.12C353.058 313.12 360.828 302.63 355.798 291.32Z" fill="black"/>
<path d="M409.228 214.1C408.431 214.051 407.634 214.213 406.918 214.57C406.089 215.006 405.302 215.518 404.568 216.1C403.408 216.96 402.228 217.76 401.008 218.53C399.962 219.308 398.773 219.873 397.508 220.19C397.078 220.26 396.158 220.27 396.628 219.62C397.289 218.804 397.875 217.931 398.378 217.01C398.628 216.555 398.78 216.054 398.825 215.537C398.869 215.021 398.806 214.501 398.638 214.01C398.535 213.709 398.325 213.457 398.048 213.3C397.638 213.11 397.428 213.3 397.198 213.6C396.94 213.872 396.666 214.129 396.378 214.37C395.798 214.88 395.218 215.37 394.648 215.91C391.298 218.91 387.228 221.58 385.798 225.97C384.977 228.676 384.579 231.493 384.618 234.32C384.618 239.14 384.298 255.91 384.298 255.91C384.298 255.91 370.978 244.7 365.208 239.91C362.418 237.58 358.528 234.75 354.208 234.34C351.208 234.06 349.398 234.07 349.398 234.07L358.488 256.07C358.488 256.07 375.658 268.85 383.898 273.25C391.328 277.25 394.948 274.36 395.848 272.25C397.338 268.79 398.848 267.17 396.768 247.89C396.618 246.4 396.428 242.13 396.258 240.64C396.048 237.53 396.398 234.37 397.608 233.69C399.85 232.487 401.961 231.056 403.908 229.42C405.18 228.324 406.3 227.063 407.238 225.67C407.768 225.043 408.157 224.31 408.378 223.52C408.303 222.785 408.303 222.045 408.378 221.31C408.528 220.83 408.858 220.43 408.978 219.91C409.228 218.84 409.138 217.62 409.808 216.7C410.188 216.2 410.808 215.7 410.718 215.12C410.649 214.878 410.511 214.661 410.321 214.496C410.131 214.331 409.898 214.225 409.648 214.19C409.511 214.151 409.37 214.121 409.228 214.1Z" fill="#FFA8A7"/>
<path d="M395.64 222.47C395.16 225.064 393.957 227.47 392.17 229.41C393.398 228.684 394.415 227.65 395.12 226.41C396.08 224.43 396 223.42 395.64 222.47Z" fill="#F28F8F"/>
<path d="M348.51 233.56C353.15 233.76 356.76 233.86 360.72 236.15C364.68 238.44 382.32 253.21 382.32 253.21C382.32 253.21 382.5 245.68 382.95 241.72C383.26 238.97 383.72 238.11 384.58 238.24C384.58 238.24 386.11 240.59 390.44 240.92C394.77 241.25 396.24 239.44 396.24 239.44C396.24 239.44 397.51 239.14 397.96 240.92C398.41 242.7 399.23 261.92 398.44 267.45C397.65 272.98 395.17 275.56 391.84 276.34C388.51 277.12 380.84 272.45 371.55 266.23C362.26 260.01 352.24 254.23 352.24 254.23L348.51 233.56Z" fill="#4D2553"/>
<path opacity="0.7" d="M348.51 233.56C353.15 233.76 356.76 233.86 360.72 236.15C364.68 238.44 382.32 253.21 382.32 253.21C382.32 253.21 382.5 245.68 382.95 241.72C383.26 238.97 383.72 238.11 384.58 238.24C384.58 238.24 386.11 240.59 390.44 240.92C394.77 241.25 396.24 239.44 396.24 239.44C396.24 239.44 397.51 239.14 397.96 240.92C398.41 242.7 399.23 261.92 398.44 267.45C397.65 272.98 395.17 275.56 391.84 276.34C388.51 277.12 380.84 272.45 371.55 266.23C362.26 260.01 352.24 254.23 352.24 254.23L348.51 233.56Z" fill="white"/>
<path opacity="0.1" d="M382.318 253.21C381.913 256.803 382.044 260.436 382.708 263.99C382.708 263.99 379.318 257.45 380.358 251.46L382.318 253.21Z" fill="black"/>
<path d="M310.399 237.62C309.629 241.62 301.939 280.17 310.689 308.88C326.459 310.74 354.139 303.5 358.289 293.07C358.289 293.07 355.499 283.17 354.289 278.32C354.549 270.38 354.289 255.22 354.129 250.53C353.809 241.24 352.359 234.05 347.749 233.37C347.749 233.37 338.489 233.01 332.889 233.24C328.049 233.43 324.409 233.49 324.409 233.49L310.399 237.62Z" fill="#FAFAFA"/>
<path d="M333.55 298.81C332.55 296.55 313.82 285 313.82 285C313.82 285 314.11 279.65 315.22 269.8C316.33 259.95 316.67 248.15 313.12 242.22L309.54 242.36C307.54 254.31 303.4 284.97 310.69 308.88C319.1 309.88 330.89 308.27 340.69 304.99C338.89 303.77 334.36 300.61 333.55 298.81Z" fill="#F0F0F0"/>
<path d="M322.778 224.45C322.778 222.45 318.988 216.51 317.258 211.8C314.368 203.93 314.118 196.86 321.258 193.8C321.258 193.8 325.718 186.11 336.968 185.72C348.218 185.33 356.848 194.83 353.118 207.52L322.778 224.45Z" fill="#455A64"/>
<path d="M325.56 212.29C324.09 212.29 323.56 210.18 322.56 209.05C322.093 208.599 321.53 208.258 320.914 208.053C320.298 207.847 319.644 207.783 318.999 207.863C318.355 207.944 317.736 208.168 317.19 208.518C316.643 208.869 316.182 209.338 315.84 209.89C313.76 212.89 315.78 217.23 318.05 218.89C320.9 221.01 322.87 218.97 322.87 218.97L322.61 234.86C322.61 234.86 323.12 238.38 329.61 240.43C337.11 242.79 343.21 238.84 338.74 233.9L338.91 229.71C341.286 230.253 343.738 230.389 346.16 230.11C348.66 229.73 350.66 227.85 351.94 223.99C354.45 216.47 353.76 206.43 351.17 197.27C348.69 199.27 337.25 202.9 326.94 199.27C327.29 205.6 327 212.29 325.56 212.29Z" fill="#FFA8A7"/>
<path d="M321.479 217.2C321.479 217.384 321.425 217.564 321.322 217.717C321.22 217.87 321.075 217.989 320.905 218.059C320.735 218.13 320.548 218.148 320.368 218.112C320.187 218.076 320.022 217.988 319.892 217.858C319.761 217.728 319.673 217.562 319.637 217.381C319.601 217.201 319.62 217.014 319.69 216.844C319.76 216.674 319.88 216.529 320.032 216.427C320.185 216.325 320.365 216.27 320.549 216.27C320.671 216.27 320.792 216.294 320.905 216.341C321.018 216.388 321.12 216.456 321.207 216.542C321.293 216.629 321.362 216.731 321.408 216.844C321.455 216.957 321.479 217.078 321.479 217.2Z" fill="#263238"/>
<path d="M338.9 229.72C338.9 229.72 332.64 227.89 330.18 226.16C328.561 225.04 327.242 223.54 326.34 221.79C326.887 223.701 327.782 225.494 328.98 227.08C331.98 230.47 338.82 232.08 338.82 232.08L338.9 229.72Z" fill="#F28F8F"/>
<path d="M338.399 212.21C338.391 212.515 338.293 212.812 338.119 213.062C337.944 213.313 337.699 213.507 337.415 213.619C337.131 213.732 336.821 213.759 336.521 213.697C336.222 213.635 335.948 213.486 335.733 213.269C335.517 213.053 335.37 212.777 335.31 212.478C335.25 212.178 335.279 211.868 335.393 211.585C335.508 211.301 335.703 211.058 335.955 210.885C336.206 210.712 336.503 210.616 336.809 210.61C337.018 210.61 337.226 210.651 337.42 210.732C337.613 210.813 337.789 210.931 337.937 211.079C338.084 211.228 338.201 211.404 338.281 211.598C338.36 211.793 338.4 212 338.399 212.21Z" fill="#263238"/>
<path d="M336.689 206.89L333.328 208.67C333.1 208.208 333.059 207.675 333.213 207.183C333.368 206.691 333.707 206.278 334.159 206.03C334.38 205.915 334.623 205.846 334.872 205.827C335.121 205.808 335.371 205.84 335.607 205.92C335.843 206 336.061 206.128 336.247 206.294C336.433 206.461 336.583 206.664 336.689 206.89Z" fill="#263238"/>
<path d="M337.909 220.39L343.259 222.1C343 222.811 342.482 223.397 341.809 223.742C341.136 224.087 340.358 224.165 339.629 223.96C339.277 223.846 338.952 223.661 338.672 223.418C338.393 223.174 338.167 222.877 338.006 222.543C337.845 222.209 337.754 221.846 337.737 221.476C337.721 221.106 337.779 220.737 337.909 220.39Z" fill="#F28F8F"/>
<path d="M351.098 206.83L347.408 205.83C347.463 205.586 347.566 205.356 347.713 205.154C347.859 204.952 348.045 204.781 348.259 204.653C348.473 204.525 348.711 204.442 348.959 204.409C349.206 204.375 349.458 204.393 349.698 204.46C350.191 204.601 350.61 204.925 350.871 205.366C351.131 205.807 351.213 206.331 351.098 206.83Z" fill="#263238"/>
<path d="M350.149 211C350.141 211.305 350.043 211.602 349.869 211.852C349.694 212.103 349.449 212.297 349.165 212.409C348.881 212.522 348.571 212.549 348.271 212.487C347.972 212.425 347.698 212.276 347.483 212.059C347.267 211.843 347.12 211.567 347.06 211.268C347 210.968 347.029 210.658 347.143 210.375C347.258 210.091 347.453 209.848 347.705 209.675C347.956 209.502 348.253 209.406 348.559 209.4C348.768 209.4 348.976 209.441 349.17 209.522C349.363 209.603 349.539 209.721 349.687 209.869C349.834 210.018 349.951 210.194 350.031 210.388C350.11 210.583 350.15 210.79 350.149 211Z" fill="#263238"/>
<path d="M351.869 197.28C355.329 194.82 357.249 191.52 356.329 186.99C354.979 188.34 351.199 188.59 347.899 186.99C342.677 184.261 336.681 183.393 330.899 184.53C324.789 185.72 321.209 190.36 321.209 193.78C322.409 196.22 324.049 197.52 326.889 199.25C331.16 202.335 336.372 203.834 341.629 203.49C344.786 203.413 347.833 202.311 350.309 200.35C350.309 200.35 347.119 200.63 345.619 199.64C347.841 199.287 349.968 198.484 351.869 197.28Z" fill="#37474F"/>
<path d="M343.449 218.41L348.219 216.23L342.129 207.82L343.449 218.41Z" fill="#F28F8F"/>
<path opacity="0.15" d="M395.829 319.53C395.417 318.909 394.934 318.339 394.389 317.83C388.829 312.69 378.389 305.89 369.519 300.24L329.159 323.54C329.103 323.573 329.056 323.619 329.024 323.675C328.992 323.732 328.975 323.795 328.975 323.86C328.975 323.925 328.992 323.988 329.024 324.045C329.056 324.101 329.103 324.147 329.159 324.18L358.469 341.11L395.829 319.53Z" fill="black"/>
<path d="M408.069 307.69V308.34C408.069 308.81 407.945 309.272 407.71 309.679C407.475 310.087 407.136 310.425 406.729 310.66L359.809 337.75C359.402 337.986 358.94 338.11 358.469 338.11C357.996 338.109 357.53 337.985 357.119 337.75L331.549 323C331.143 322.763 330.806 322.425 330.571 322.018C330.336 321.611 330.211 321.15 330.209 320.68V319.77C330.207 319.831 330.222 319.891 330.252 319.944C330.282 319.997 330.326 320.041 330.379 320.07L358.459 336.29L408.069 307.69Z" fill="#37474F"/>
<path d="M358.469 336.32V338.11C358.939 338.11 359.402 337.986 359.809 337.75L406.729 310.66C407.136 310.425 407.474 310.087 407.709 309.679C407.945 309.272 408.069 308.81 408.069 308.34V307.68L358.469 336.32Z" fill="#263238"/>
<path d="M408.07 307.68L380.25 291.62C380.006 291.482 379.73 291.41 379.45 291.41C379.17 291.41 378.894 291.482 378.65 291.62L330.39 319.49C330.336 319.522 330.291 319.567 330.26 319.622C330.229 319.676 330.213 319.737 330.213 319.8C330.213 319.863 330.229 319.924 330.26 319.978C330.291 320.033 330.336 320.078 330.39 320.11L358.47 336.32L408.07 307.68Z" fill="#455A64"/>
<path d="M358.209 333.96L343.209 325.31L387.089 299.98L402.169 308.58L358.209 333.96Z" fill="#37474F"/>
<path d="M402.169 308.58L401.599 308.91L387.079 300.63L343.779 325.64L343.209 325.31L387.079 299.97L402.169 308.58Z" fill="#263238"/>
<path d="M350.84 309.89L351.12 310.05L358.47 314.29L371.55 306.74L371.82 306.58L364.19 302.18L350.84 309.89Z" fill="#263238"/>
<path d="M351.119 310.05L358.469 314.29L371.549 306.74L364.189 302.5L351.119 310.05Z" fill="#37474F"/>
<path d="M365.07 315.14C362.97 313.06 359.92 310.14 357.35 309.31C356.761 309.09 356.16 308.903 355.55 308.75C356.437 308.637 357.316 308.463 358.18 308.23C359.051 307.964 359.826 307.45 360.41 306.75C360.63 306.46 360.79 306 360.51 305.75C360.408 305.668 360.281 305.622 360.15 305.62C358.22 305.56 356.71 305.26 354.96 305.14C354.182 305.01 353.388 305.01 352.61 305.14C351.89 305.33 351.18 305.54 350.48 305.79C347.29 306.89 344.38 307.88 339.87 306.79L331.75 302.46C331.75 302.46 330.01 302.02 327.45 306.35C324.89 310.68 326.39 313.06 326.39 313.06L335.51 316.21L335.64 316.26C337.025 317.004 338.466 317.639 339.95 318.16C342.79 319.03 346.43 318 348.9 317.87C351.37 317.74 355.56 318.87 357.9 319.81C360.24 320.75 362.9 317.21 364.09 317.63C365.28 318.05 367.18 317.23 365.07 315.14Z" fill="#FFA8A7"/>
<path d="M354.48 307.39C353.29 307.349 352.105 307.557 351 308C352.547 308.077 354.078 308.342 355.56 308.79C356.447 308.677 357.326 308.503 358.19 308.27C358.947 308.024 359.633 307.598 360.19 307.03C358.82 307.93 356.15 307.56 354.48 307.39Z" fill="#F28F8F"/>
<path d="M310.399 237.62C312.709 238.53 315.719 248.17 313.859 257.44L309.559 286.44C309.559 286.44 314.829 289.56 322.229 294.14C327.349 297.32 331.739 300.23 331.749 302.58C328.389 303.78 325.369 309.96 326.389 313.18C324.099 315.9 302.939 304.18 295.539 299.11C292.109 296.76 290.379 295.84 291.699 285.25C293.159 273.53 294.159 260.51 296.449 251.82C298.829 242.73 301.479 239.21 310.399 237.62Z" fill="#4D2553"/>
<path opacity="0.7" d="M310.399 237.62C312.709 238.53 315.719 248.17 313.859 257.44L309.559 286.44C309.559 286.44 314.829 289.56 322.229 294.14C327.349 297.32 331.739 300.23 331.749 302.58C328.389 303.78 325.369 309.96 326.389 313.18C324.099 315.9 302.939 304.18 295.539 299.11C292.109 296.76 290.379 295.84 291.699 285.25C293.159 273.53 294.159 260.51 296.449 251.82C298.829 242.73 301.479 239.21 310.399 237.62Z" fill="white"/>
<path d="M359.229 336.72C359.67 336.892 360.145 336.962 360.617 336.926C361.09 336.89 361.548 336.748 361.958 336.51L408.678 309.51C409.083 309.276 409.431 308.956 409.697 308.572C409.963 308.189 410.141 307.751 410.219 307.29L415.339 276.79C415.353 276.617 415.353 276.443 415.339 276.27C415.34 275.85 415.258 275.433 415.096 275.045C414.935 274.657 414.698 274.305 414.398 274.01L365.858 302.01C365.558 302.182 365.299 302.418 365.1 302.701C364.901 302.985 364.768 303.309 364.708 303.65L359.229 336.72Z" fill="#37474F"/>
<path d="M358.469 336.32L358.789 336.51C358.93 336.59 359.077 336.66 359.229 336.72L364.749 303.72C364.808 303.379 364.941 303.055 365.14 302.771C365.339 302.488 365.598 302.252 365.899 302.08L414.439 274.08C414.244 273.886 414.026 273.718 413.789 273.58L365.149 301.67C364.848 301.841 364.59 302.077 364.392 302.36C364.195 302.644 364.064 302.969 364.009 303.31L358.469 336.32Z" fill="#455A64"/>
<path d="M365.209 302.69L364.449 302.26C364.224 302.553 364.073 302.896 364.009 303.26L358.469 336.31L358.789 336.5C358.93 336.58 359.077 336.65 359.229 336.71L364.749 303.71C364.82 303.339 364.978 302.989 365.209 302.69Z" fill="#263238"/>
<path d="M385.539 308.56C385.879 306.56 387.989 303.81 390.249 302.51C392.509 301.21 394.059 301.8 393.709 303.84C393.359 305.88 391.259 308.6 389.009 309.9C386.759 311.2 385.189 310.61 385.539 308.56Z" fill="#4D2553"/>
</svg>
