<svg width="746" height="746" viewBox="0 0 746 746" fill="none" xmlns="http://www.w3.org/2000/svg">
<path d="M680.934 466.698C680.934 466.698 710.968 307.874 629.161 217.832C556.949 138.293 442.661 107.424 349.441 173.072C316.304 196.496 292.059 242.002 253.267 256.057C209.775 271.827 153.87 277.512 113.481 345.04C73.093 412.568 87.5953 499.357 141.442 545.55C195.288 591.742 289.523 546.669 374.432 543.297C459.342 539.925 636.413 662.687 680.934 466.698Z" fill="#4D2555"/>
<path opacity="0.8" d="M680.934 466.698C680.934 466.698 710.968 307.874 629.161 217.832C556.949 138.293 442.661 107.424 349.441 173.072C316.304 196.496 292.059 242.002 253.267 256.057C209.775 271.827 153.87 277.512 113.481 345.04C73.093 412.568 87.5953 499.357 141.442 545.55C195.288 591.742 289.523 546.669 374.432 543.297C459.342 539.925 636.413 662.687 680.934 466.698Z" fill="white"/>
<path d="M388.517 226.784H483.259V253.73H388.517C386.487 253.73 384.54 252.923 383.105 251.488C381.669 250.052 380.863 248.106 380.863 246.076V234.423C380.867 232.396 381.675 230.453 383.11 229.021C384.545 227.588 386.489 226.784 388.517 226.784Z" fill="#4D2555"/>
<path d="M483.259 193.169H394.335C390.774 193.169 387.359 194.584 384.84 197.102C382.322 199.62 380.907 203.036 380.907 206.597C380.907 210.159 382.322 213.574 384.84 216.092C387.359 218.61 390.774 220.025 394.335 220.025H483.259V193.169Z" fill="#4D2555"/>
<path d="M523.677 162.18H491.345V252.446H523.677V162.18Z" fill="#4D2555"/>
<path d="M564.095 162.18H531.764V252.446H564.095V162.18Z" fill="#4D2555"/>
<path d="M604.514 162.18H572.182V252.446H604.514V162.18Z" fill="#4D2555"/>
<path opacity="0.4" d="M388.517 226.784H483.259V253.73H388.517C386.487 253.73 384.54 252.923 383.105 251.488C381.669 250.052 380.863 248.106 380.863 246.076V234.423C380.867 232.396 381.675 230.453 383.11 229.021C384.545 227.588 386.489 226.784 388.517 226.784Z" fill="white"/>
<path opacity="0.4" d="M483.259 193.169H394.335C390.774 193.169 387.359 194.584 384.84 197.102C382.322 199.62 380.907 203.036 380.907 206.597C380.907 210.159 382.322 213.574 384.84 216.092C387.359 218.61 390.774 220.025 394.335 220.025H483.259V193.169Z" fill="white"/>
<path opacity="0.4" d="M523.677 162.18H491.345V252.446H523.677V162.18Z" fill="white"/>
<path opacity="0.4" d="M564.095 162.18H531.764V252.446H564.095V162.18Z" fill="white"/>
<path opacity="0.4" d="M604.514 162.18H572.182V252.446H604.514V162.18Z" fill="white"/>
<path d="M624.044 254.863H370.135V269.903H390.74V307.203H403.004V269.903H585.192V307.203H597.456V269.903H624.044V254.863Z" fill="#4D2555"/>
<path opacity="0.1" d="M624.044 254.863H370.135V269.903H390.74V307.203H403.004V269.903H585.192V307.203H597.456V269.903H624.044V254.863Z" fill="black"/>
<path d="M320.78 299.623C317.89 300.562 315.056 301.663 312.291 302.921C313.783 301.802 315.275 300.668 316.767 299.489C323.512 294.088 329.924 288.283 335.969 282.107C328.856 289.009 321.257 295.391 313.231 301.205C314.33 299.282 315.302 297.288 316.14 295.237C317.632 291.477 317.915 287.777 314.32 285.673C309.844 283.197 304.547 286.912 305.965 293.282C306.81 296.818 308.477 300.104 310.828 302.876C305.614 306.494 300.166 309.763 294.521 312.664L293.984 312.932C295.178 310.868 296.23 308.724 297.132 306.516C298.624 302.757 298.922 298.982 295.327 296.953C290.851 294.461 285.539 298.176 286.971 304.562C287.805 308.053 289.44 311.301 291.746 314.051C284.957 317.393 277.945 320.228 270.962 323.316L269.948 323.779C271.311 322.312 272.577 320.757 273.737 319.124C276.005 315.797 277.229 312.201 274.2 309.396C270.485 305.95 264.397 308.322 264.293 314.857C264.3 318.481 265.142 322.055 266.755 325.301C260.231 328.324 254.032 332.003 248.254 336.282L248.075 336.416C248.865 335.183 249.577 333.903 250.208 332.582C251.924 328.941 252.551 325.122 249.119 322.914C248.42 322.427 247.619 322.107 246.777 321.976C245.935 321.846 245.074 321.909 244.26 322.161C243.447 322.412 242.701 322.846 242.079 323.429C241.458 324.012 240.978 324.728 240.675 325.525C240.227 324.809 239.606 324.219 238.869 323.809C235.408 321.809 232.006 323.973 229.097 327.031C228.336 327.822 227.605 328.673 226.933 329.538C229.188 323.286 232.02 317.257 235.393 311.53C238.595 312.945 242.053 313.686 245.553 313.708C252.446 313.708 255.356 307.964 251.969 304.398C249.224 301.503 245.345 302.607 241.689 304.711C240.481 305.412 239.302 306.203 238.198 307.009C241.716 301.73 245.711 296.786 250.134 292.238C253.016 294.567 256.363 296.251 259.951 297.177C266.65 298.833 270.858 293.969 268.426 289.717C266.456 286.24 262.458 286.374 258.37 287.538C256.46 288.116 254.586 288.809 252.76 289.612C254.58 287.837 256.475 286.121 258.385 284.435C260.906 282.286 263.502 280.213 266.143 278.198C268.992 280.466 272.286 282.108 275.811 283.017C282.495 284.674 286.703 279.81 284.286 275.557C282.316 272.081 278.318 272.23 274.23 273.394C273.29 273.663 272.335 273.991 271.41 274.334C274.901 271.842 278.452 269.41 282.003 266.978L285.285 264.74C288.25 267.211 291.725 268.995 295.461 269.962C302.16 271.619 306.352 266.755 303.935 262.502C301.966 259.011 297.967 259.16 293.879 260.324C292.292 260.791 290.733 261.349 289.209 261.995C289.896 261.518 290.567 261.025 291.238 260.503C292.492 259.608 293.715 258.698 294.939 257.758C296.431 256.624 297.923 255.356 299.415 254.162C300.25 253.491 301.056 252.775 301.861 252.044C304.822 254.559 308.317 256.366 312.082 257.325C318.781 258.981 322.988 254.132 320.571 249.865C318.602 246.389 314.603 246.523 310.5 247.687C308.257 248.379 306.059 249.211 303.92 250.179C306.651 247.642 309.292 245.001 311.798 242.241C311.977 242.047 312.126 241.853 312.291 241.659C313.38 240.466 314.439 239.257 315.469 238.019C316.498 236.78 317.811 235.035 318.945 233.543C323.54 227.517 327.318 220.91 330.18 213.893C327.193 220.851 323.284 227.374 318.557 233.289C313.902 239.227 308.707 244.721 303.04 249.701L302.428 250.223C303.726 247.99 304.872 245.672 305.86 243.286C307.352 239.526 307.65 235.751 304.055 233.722C299.579 231.245 294.267 234.945 295.7 241.331C296.611 245.085 298.43 248.559 300.996 251.447L299.668 252.581C299.146 253.013 298.609 253.461 298.072 253.879C297.192 254.595 296.296 255.281 295.401 255.953L293.909 257.057C292.626 257.997 291.313 258.937 290 259.847L287.956 261.1L285.808 262.592C287.057 260.447 288.159 258.218 289.105 255.923C290.597 252.163 290.895 248.388 287.3 246.359C282.824 243.867 277.512 247.582 278.929 253.968C279.814 257.603 281.553 260.974 284.002 263.801L282.406 264.83L276.438 268.679L275.289 269.44C274.185 270.156 273.096 270.932 272.007 271.634C271.529 271.947 271.052 272.26 270.589 272.588C269.097 273.633 267.531 274.692 266.024 275.781C267.291 273.6 268.412 271.337 269.381 269.008C270.873 265.248 271.171 261.458 267.575 259.444C263.099 256.952 257.788 260.667 259.205 267.038C260.099 270.73 261.876 274.15 264.382 277.005C261.816 278.885 259.28 280.824 256.803 282.838C255.013 284.33 253.237 285.912 251.506 287.493C252.261 286.097 252.934 284.657 253.521 283.182C255.013 279.422 255.311 275.722 251.715 273.618C247.239 271.141 241.928 274.841 243.345 281.227C244.193 284.72 245.832 287.971 248.135 290.731C243.236 295.597 238.824 300.929 234.96 306.651C235.402 305.003 235.736 303.329 235.96 301.638C236.452 297.639 235.87 293.879 231.902 292.79C227.008 291.447 222.696 296.341 225.62 302.19C227.299 305.401 229.699 308.179 232.633 310.306C228.831 316.512 225.653 323.079 223.144 329.911C223.081 328.482 222.936 327.057 222.711 325.644C222.039 321.675 220.428 318.184 216.31 318.318C211.237 318.408 208.492 324.286 212.953 329.105C215.335 331.585 218.241 333.501 221.458 334.715C219.74 340.004 218.335 345.39 217.25 350.844C217.086 351.709 216.937 352.575 216.788 353.44C216.594 353.593 216.415 353.763 216.251 353.947C216.071 353.201 215.863 352.455 215.624 351.724C214.341 347.905 212.222 344.756 208.164 345.473C203.166 346.353 201.375 352.619 206.508 356.648C209.123 358.649 212.142 360.059 215.355 360.781C215.402 360.93 215.462 361.075 215.534 361.213C214.982 365.316 214.565 369.434 214.311 373.582C214.122 376.665 213.998 379.764 213.938 382.877C209.611 382.877 206.478 387.607 209.551 392.754C210.802 394.885 212.406 396.787 214.296 398.379C214.669 404.198 215.236 410.017 216.012 415.791C215.4 415.226 214.651 414.831 213.84 414.646C213.029 414.46 212.183 414.489 211.387 414.731C208.656 415.462 207.433 417.715 207 420.356C206.049 421.36 205.516 422.688 205.508 424.071C203.479 421.087 201.569 417.969 199.719 414.836C202.552 412.659 204.9 409.915 206.612 406.779C209.865 400.706 206.209 395.425 201.465 396.723C197.601 397.767 196.75 401.706 196.869 405.928C196.934 407.527 197.084 409.12 197.317 410.703L195.452 407.077C193.781 404.093 192.364 401.109 190.797 398.006C190.394 397.275 190.051 396.514 189.723 395.753C192.912 394.148 195.732 391.897 198.003 389.143C202.33 383.787 199.719 377.909 194.825 378.297C190.827 378.595 189.26 382.31 188.589 386.473C188.318 388.292 188.153 390.125 188.096 391.963L186.604 388.681C183.574 381.245 181.081 373.601 179.144 365.809C182.736 364.544 186.006 362.507 188.723 359.841C193.572 354.932 191.573 348.83 186.649 348.71C182.651 348.621 180.681 352.157 179.622 356.17C179.088 358.362 178.689 360.584 178.428 362.825C177.369 358.349 176.459 353.873 175.713 349.292C175.191 346.472 174.862 343.623 174.504 340.773C178.387 340.02 182.042 338.381 185.187 335.983C190.633 331.761 189.424 325.45 184.56 324.689C180.622 324.077 178.234 327.33 176.623 331.239C175.68 333.719 174.893 336.255 174.266 338.833C173.952 335.521 173.609 332.224 173.46 328.911C173.027 322.074 173.057 315.215 173.549 308.381C172.848 315.211 172.609 322.08 172.833 328.941C172.833 332.104 173.102 335.252 173.296 338.415C172.449 336.264 171.452 334.175 170.312 332.164C168.253 328.703 165.493 326.092 161.688 327.688C156.988 329.613 156.585 336.133 162.464 338.967C165.929 340.555 169.728 341.276 173.535 341.071C173.803 343.891 174.042 346.711 174.46 349.501C175.056 353.977 175.817 358.453 176.698 362.795C175.737 361.109 174.665 359.489 173.49 357.946C170.983 354.783 167.925 352.545 164.344 354.589C159.868 357.11 160.375 363.615 166.582 365.659C170.099 366.758 173.826 367.008 177.459 366.39C179.17 374.275 181.438 382.028 184.247 389.591L185.142 391.859C184.337 390.829 183.471 389.77 182.561 388.875C179.756 385.98 176.489 384.071 173.132 386.458C168.999 389.442 170.148 395.843 176.459 397.26C179.991 397.98 183.643 397.873 187.127 396.947C187.44 397.722 187.753 398.439 188.126 399.259C189.618 402.363 190.991 405.555 192.602 408.614C193.05 409.494 193.512 410.36 193.975 411.225C193.184 410.554 192.364 409.897 191.513 409.3C188.231 406.973 184.65 405.705 181.8 408.689C178.309 412.359 180.577 418.476 187.112 418.67C190.477 418.715 193.811 418.028 196.884 416.656C198.749 420.043 200.689 423.385 202.763 426.667C203.539 427.921 204.344 429.159 205.15 430.397C203.966 429.292 202.715 428.261 201.405 427.309C198.108 424.981 194.527 423.713 191.692 426.697C188.186 430.367 190.454 436.485 196.989 436.679C200.726 436.722 204.419 435.873 207.761 434.202C208.835 435.694 209.954 437.186 211.118 438.678C208.686 441.498 209.477 446.287 214.415 448.406C216.838 449.408 219.419 449.974 222.039 450.077C222.338 450.33 222.651 450.569 222.965 450.793L223.129 450.912C224.277 455.209 225.531 459.476 226.844 463.714H204.702V534.002H260.145V463.669H234.319C232.096 456.075 230.231 449.465 229.843 449.286L229.067 448.913C231.977 447.917 234.682 446.401 237.049 444.437C242.301 439.961 240.809 433.709 235.93 433.187C231.946 432.74 229.708 436.097 228.291 440.08C227.882 441.215 227.534 442.37 227.247 443.542C226.963 442.482 226.68 441.423 226.411 440.364C225.605 437.231 224.919 434.068 224.173 430.919C227.334 429.907 230.267 428.291 232.812 426.16C238.064 421.684 236.572 415.447 231.693 414.91C227.709 414.478 225.486 417.894 224.054 421.803C223.642 422.959 223.288 424.134 222.994 425.324C222.532 423.027 222.099 420.729 221.696 418.416C221.398 416.686 221.129 414.97 220.876 413.254C220.771 410.807 220.741 408.345 220.771 405.899C220.771 404.541 220.771 403.198 220.891 401.84C223.85 402.797 226.961 403.197 230.066 403.019C236.959 402.571 239.496 396.678 235.9 393.321C232.916 390.606 229.171 391.948 225.65 394.276C224.092 395.353 222.598 396.519 221.174 397.767C221.597 391.998 222.475 386.27 223.8 380.639C224.585 377.336 225.552 374.078 226.695 370.881C229.856 371.975 233.201 372.441 236.542 372.254C243.42 371.821 245.971 365.913 242.375 362.571C239.391 359.841 235.647 361.198 232.125 363.526C230.876 364.373 229.671 365.285 228.515 366.256C229.841 363.132 231.386 360.106 233.14 357.2C236.655 351.351 241.054 346.082 246.18 341.578C248.821 343.998 251.935 345.842 255.326 346.994C261.891 349.143 266.441 344.607 264.278 340.161C262.577 336.55 258.549 336.386 254.401 337.177C252.833 337.526 251.285 337.954 249.761 338.46H249.865C255.492 334.059 261.556 330.249 267.963 327.091C270.231 330.053 273.111 332.491 276.408 334.238C282.54 337.401 287.762 333.671 286.404 328.941C285.3 325.092 281.346 324.301 277.124 324.465C275.469 324.557 273.82 324.742 272.186 325.017C279.004 321.795 285.957 318.751 292.671 315.2L292.82 315.125C295.838 317.717 299.411 319.581 303.264 320.571C309.963 322.227 314.171 317.363 311.739 313.111C309.784 309.62 305.771 309.769 301.682 310.933C300.549 311.246 299.43 311.664 298.325 312.082C302.803 309.474 307.145 306.64 311.336 303.592L311.694 303.965C311.686 303.911 311.686 303.855 311.694 303.801C314.707 306.415 318.28 308.304 322.138 309.321C328.837 310.963 333.044 306.114 330.627 301.861C328.807 298.4 324.779 298.4 320.78 299.623ZM215.072 436.604C213.714 435.008 212.401 433.336 211.133 431.651C211.446 431.367 211.775 431.054 212.103 430.725C213.99 431.319 215.946 431.67 217.922 431.77V432.083L218.847 431.904C219.324 434.276 219.831 436.664 220.339 439.036C219.717 438.227 218.906 437.582 217.978 437.158C217.049 436.734 216.031 436.544 215.012 436.604H215.072ZM220.01 379.699C219.548 381.475 219.145 383.265 218.772 385.055L218.548 384.742C218.548 381.062 218.603 377.386 218.712 373.716C218.817 371.135 219.011 368.569 219.235 366.017C220.467 367.29 221.832 368.425 223.308 369.404C222.003 372.772 220.882 376.209 219.951 379.699H220.01ZM226.217 362.765C226.217 362.093 226.366 361.407 226.411 360.751C226.411 360.408 226.411 360.064 226.411 359.736C226.948 359.572 227.5 359.378 228.052 359.154C227.366 360.348 226.784 361.541 226.157 362.765H226.217ZM234.08 349.978C233.818 349.383 233.438 348.846 232.964 348.4C232.49 347.954 231.931 347.608 231.32 347.382C227.59 345.89 224.561 348.606 222.159 352.067L222.039 352.246L221.801 352.172L221.025 352.067C221.025 351.858 221.1 351.649 221.129 351.441C222.089 345.986 223.379 340.595 224.994 335.297C228.464 335.73 231.986 335.456 235.348 334.491C237.405 333.969 239.205 332.725 240.421 330.985C241.097 334.027 242.364 336.907 244.151 339.46C240.424 342.611 237.029 346.136 234.02 349.978H234.08Z" fill="#4D2555"/>
<path d="M351.605 324.152H616.837C620.003 324.152 623.039 325.409 625.277 327.648C627.516 329.886 628.773 332.922 628.773 336.088V522.2H339.713V336.043C339.725 332.893 340.982 329.875 343.209 327.648C345.437 325.42 348.454 324.164 351.605 324.152Z" fill="#263238" stroke="#263238" stroke-linecap="round" stroke-linejoin="round"/>
<path d="M672.086 609.736H296.356L339.713 522.185H628.729L672.086 609.736Z" fill="white" stroke="#263238" stroke-linecap="round" stroke-linejoin="round"/>
<path d="M611.228 339.833H357.215V506.504H611.228V339.833Z" fill="#4D2555" stroke="#263238" stroke-linecap="round" stroke-linejoin="round"/>
<path d="M472.158 549.892L472.666 539.224H457.388L456.373 549.892H472.158Z" fill="#263238" stroke="white" stroke-linecap="round" stroke-linejoin="round"/>
<path d="M503.729 549.892L503.207 539.224H487.929L487.944 549.892H503.729Z" fill="#263238" stroke="white" stroke-linecap="round" stroke-linejoin="round"/>
<path d="M585.923 561.305H602.246L598.411 549.892H582.641L585.923 561.305Z" fill="#263238" stroke="white" stroke-linecap="round" stroke-linejoin="round"/>
<path d="M456.373 549.892L457.388 539.224H442.124L440.603 549.892H456.373Z" fill="#263238" stroke="white" stroke-linecap="round" stroke-linejoin="round"/>
<path d="M424.817 549.892L426.846 539.224H411.583L409.032 549.892H424.817Z" fill="#263238" stroke="white" stroke-linecap="round" stroke-linejoin="round"/>
<path d="M566.855 549.892L564.289 539.224H549.026L551.07 549.892H566.855Z" fill="#263238" stroke="white" stroke-linecap="round" stroke-linejoin="round"/>
<path d="M582.641 549.892L579.567 539.224H564.289L566.856 549.892H582.641Z" fill="#263238" stroke="white" stroke-linecap="round" stroke-linejoin="round"/>
<path d="M409.032 549.892L411.583 539.224H396.305L393.246 549.892H409.032Z" fill="#263238" stroke="white" stroke-linecap="round" stroke-linejoin="round"/>
<path d="M519.499 549.892L518.47 539.224H503.207L503.729 549.892H519.499Z" fill="#263238" stroke="white" stroke-linecap="round" stroke-linejoin="round"/>
<path d="M598.411 549.892L594.831 539.224H579.567L582.641 549.892H598.411Z" fill="#263238" stroke="white" stroke-linecap="round" stroke-linejoin="round"/>
<path d="M551.07 549.892L549.026 539.224H533.748L535.285 549.892H551.07Z" fill="#263238" stroke="white" stroke-linecap="round" stroke-linejoin="round"/>
<path d="M535.285 549.892L533.748 539.224H518.47L519.499 549.892H535.285Z" fill="#263238" stroke="white" stroke-linecap="round" stroke-linejoin="round"/>
<path d="M487.944 549.892L487.929 539.224H472.665L472.158 549.892H487.944Z" fill="#263238" stroke="white" stroke-linecap="round" stroke-linejoin="round"/>
<path d="M377.476 549.892H361.691L357.334 561.305H373.656L377.476 549.892Z" fill="#263238" stroke="white" stroke-linecap="round" stroke-linejoin="round"/>
<path d="M381.027 539.224H365.764L361.691 549.892H377.476L381.027 539.224Z" fill="#263238" stroke="white" stroke-linecap="round" stroke-linejoin="round"/>
<path d="M393.247 549.892L396.305 539.224H381.027L377.476 549.892H393.247Z" fill="#263238" stroke="white" stroke-linecap="round" stroke-linejoin="round"/>
<path d="M352.664 573.525L347.636 586.654H365.182L369.568 573.525H352.664Z" fill="#263238" stroke="white" stroke-linecap="round" stroke-linejoin="round"/>
<path d="M373.657 561.305H357.334L352.664 573.525H369.568L373.657 561.305Z" fill="#263238" stroke="white" stroke-linecap="round" stroke-linejoin="round"/>
<path d="M369.568 573.525L365.182 586.654H382.728L386.488 573.525H369.568Z" fill="#263238" stroke="white" stroke-linecap="round" stroke-linejoin="round"/>
<path d="M440.602 549.892L442.124 539.224H426.846L424.817 549.892H440.602Z" fill="#263238" stroke="white" stroke-linecap="round" stroke-linejoin="round"/>
<path d="M438.961 561.305L440.603 549.892H424.817L422.639 561.305H438.961Z" fill="#263238" stroke="white" stroke-linecap="round" stroke-linejoin="round"/>
<path d="M422.639 561.305L424.817 549.892H409.032L406.316 561.305H422.639Z" fill="#263238" stroke="white" stroke-linecap="round" stroke-linejoin="round"/>
<path d="M455.299 561.305L456.373 549.892H440.603L438.961 561.305H455.299Z" fill="#263238" stroke="white" stroke-linecap="round" stroke-linejoin="round"/>
<path d="M393.246 549.892H377.476L373.656 561.305H389.979L393.246 549.892Z" fill="#263238" stroke="white" stroke-linecap="round" stroke-linejoin="round"/>
<path d="M589.444 573.525H606.364L602.246 561.305H585.923L589.444 573.525Z" fill="#263238" stroke="white" stroke-linecap="round" stroke-linejoin="round"/>
<path d="M406.316 561.305L409.032 549.892H393.246L389.979 561.305H406.316Z" fill="#263238" stroke="white" stroke-linecap="round" stroke-linejoin="round"/>
<path d="M373.656 561.305L369.568 573.525H386.488L389.979 561.305H373.656Z" fill="#263238" stroke="white" stroke-linecap="round" stroke-linejoin="round"/>
<path d="M553.264 561.305L551.07 549.892H535.285L536.941 561.305H553.264Z" fill="#263238" stroke="white" stroke-linecap="round" stroke-linejoin="round"/>
<path d="M536.941 561.305L535.285 549.892H519.5L520.604 561.305H536.941Z" fill="#263238" stroke="white" stroke-linecap="round" stroke-linejoin="round"/>
<path d="M585.923 561.305L582.641 549.892H566.855L569.586 561.305H585.923Z" fill="#263238" stroke="white" stroke-linecap="round" stroke-linejoin="round"/>
<path d="M487.958 561.305L487.944 549.892H472.158L471.621 561.305H487.958Z" fill="#263238" stroke="white" stroke-linecap="round" stroke-linejoin="round"/>
<path d="M520.604 561.305L519.499 549.892H503.729L504.281 561.305H520.604Z" fill="#263238" stroke="white" stroke-linecap="round" stroke-linejoin="round"/>
<path d="M504.281 561.305L503.729 549.892H487.944L487.958 561.305H504.281Z" fill="#263238" stroke="white" stroke-linecap="round" stroke-linejoin="round"/>
<path d="M471.621 561.305L472.158 549.892H456.373L455.299 561.305H471.621Z" fill="#263238" stroke="white" stroke-linecap="round" stroke-linejoin="round"/>
<path d="M520.604 561.305L521.797 573.525H538.701L536.941 561.305H520.604Z" fill="#263238" stroke="white" stroke-linecap="round" stroke-linejoin="round"/>
<path d="M536.941 561.305L538.701 573.525H555.621L553.263 561.305H536.941Z" fill="#263238" stroke="white" stroke-linecap="round" stroke-linejoin="round"/>
<path d="M389.979 561.305L386.488 573.525H403.407L406.316 561.305H389.979Z" fill="#263238" stroke="white" stroke-linecap="round" stroke-linejoin="round"/>
<path d="M553.263 561.305L555.621 573.525H572.525L569.586 561.305H553.263Z" fill="#263238" stroke="white" stroke-linecap="round" stroke-linejoin="round"/>
<path d="M487.958 561.305V573.525H504.878L504.281 561.305H487.958Z" fill="#263238" stroke="white" stroke-linecap="round" stroke-linejoin="round"/>
<path d="M569.586 561.305L572.525 573.525H589.444L585.923 561.305H569.586Z" fill="#263238" stroke="white" stroke-linecap="round" stroke-linejoin="round"/>
<path d="M504.281 561.305L504.878 573.525H521.797L520.603 561.305H504.281Z" fill="#263238" stroke="white" stroke-linecap="round" stroke-linejoin="round"/>
<path d="M422.639 561.305L420.311 573.525H437.231L438.961 561.305H422.639Z" fill="#263238" stroke="white" stroke-linecap="round" stroke-linejoin="round"/>
<path d="M406.316 561.305L403.407 573.525H420.311L422.639 561.305H406.316Z" fill="#263238" stroke="white" stroke-linecap="round" stroke-linejoin="round"/>
<path d="M471.621 561.305L471.054 573.525H487.959V561.305H471.621Z" fill="#263238" stroke="white" stroke-linecap="round" stroke-linejoin="round"/>
<path d="M455.299 561.305L454.135 573.525H471.054L471.621 561.305H455.299Z" fill="#263238" stroke="white" stroke-linecap="round" stroke-linejoin="round"/>
<path d="M438.961 561.305L437.23 573.525H454.135L455.299 561.305H438.961Z" fill="#263238" stroke="white" stroke-linecap="round" stroke-linejoin="round"/>
<path d="M569.586 561.305L566.856 549.892H551.07L553.264 561.305H569.586Z" fill="#263238" stroke="white" stroke-linecap="round" stroke-linejoin="round"/>
<path d="M381.027 539.224L384.682 528.302H369.926L365.764 539.224H381.027Z" fill="#263238" stroke="white" stroke-linecap="round" stroke-linejoin="round"/>
<path d="M365.764 539.224H351.664L347.114 549.892H361.691L365.764 539.224Z" fill="#263238" stroke="white" stroke-linecap="round" stroke-linejoin="round"/>
<path d="M369.926 528.302H356.319L351.664 539.224H365.764L369.926 528.302Z" fill="#263238" stroke="white" stroke-linecap="round" stroke-linejoin="round"/>
<path d="M361.691 549.892H347.114L342.265 561.305H357.334L361.691 549.892Z" fill="#263238" stroke="white" stroke-linecap="round" stroke-linejoin="round"/>
<path d="M357.334 561.305H342.265L337.043 573.525H352.664L357.334 561.305Z" fill="#263238" stroke="white" stroke-linecap="round" stroke-linejoin="round"/>
<path d="M352.664 573.525H337.043L331.448 586.654H347.636L352.664 573.525Z" fill="#263238" stroke="white" stroke-linecap="round" stroke-linejoin="round"/>
<path d="M614.197 549.892L618.583 561.305H633.026L628.162 549.892H614.197Z" fill="#263238" stroke="white" stroke-linecap="round" stroke-linejoin="round"/>
<path d="M623.268 573.525H638.233L633.026 561.305H618.583L623.268 573.525Z" fill="#263238" stroke="white" stroke-linecap="round" stroke-linejoin="round"/>
<path d="M628.311 586.654H643.828L638.233 573.525H623.268L628.311 586.654Z" fill="#263238" stroke="white" stroke-linecap="round" stroke-linejoin="round"/>
<path d="M503.207 539.224L502.67 528.302H487.929V539.224H503.207Z" fill="#263238" stroke="white" stroke-linecap="round" stroke-linejoin="round"/>
<path d="M614.197 549.892H628.162L623.611 539.224H610.109L614.197 549.892Z" fill="#263238" stroke="white" stroke-linecap="round" stroke-linejoin="round"/>
<path d="M606.364 573.525H623.268L618.583 561.305H602.246L606.364 573.525Z" fill="#263238" stroke="white" stroke-linecap="round" stroke-linejoin="round"/>
<path d="M396.305 539.224L399.423 528.302H384.682L381.027 539.224H396.305Z" fill="#263238" stroke="white" stroke-linecap="round" stroke-linejoin="round"/>
<path d="M594.831 539.224L598.411 549.892H614.197L610.109 539.224H594.831Z" fill="#263238" stroke="white" stroke-linecap="round" stroke-linejoin="round"/>
<path d="M623.611 539.224L618.956 528.302H605.916L610.109 539.224H623.611Z" fill="#263238" stroke="white" stroke-linecap="round" stroke-linejoin="round"/>
<path d="M610.109 539.224L605.916 528.302H591.16L594.83 539.224H610.109Z" fill="#263238" stroke="white" stroke-linecap="round" stroke-linejoin="round"/>
<path d="M555.621 573.525L558.142 586.654H575.688L572.525 573.525H555.621Z" fill="#263238" stroke="white" stroke-linecap="round" stroke-linejoin="round"/>
<path d="M610.765 586.654H628.311L623.268 573.525H606.364L610.765 586.654Z" fill="#263238" stroke="white" stroke-linecap="round" stroke-linejoin="round"/>
<path d="M594.83 539.224L591.16 528.302H576.419L579.567 539.224H594.83Z" fill="#263238" stroke="white" stroke-linecap="round" stroke-linejoin="round"/>
<path d="M589.444 573.525L593.234 586.654H610.765L606.364 573.525H589.444Z" fill="#263238" stroke="white" stroke-linecap="round" stroke-linejoin="round"/>
<path d="M572.525 573.525L575.688 586.654H593.234L589.444 573.525H572.525Z" fill="#263238" stroke="white" stroke-linecap="round" stroke-linejoin="round"/>
<path d="M602.246 561.305H618.583L614.197 549.892H598.411L602.246 561.305Z" fill="#263238" stroke="white" stroke-linecap="round" stroke-linejoin="round"/>
<path d="M457.387 539.224L458.432 528.302H443.676L442.124 539.224H457.387Z" fill="#263238" stroke="white" stroke-linecap="round" stroke-linejoin="round"/>
<path d="M579.567 539.224L576.419 528.302H561.663L564.289 539.224H579.567Z" fill="#263238" stroke="white" stroke-linecap="round" stroke-linejoin="round"/>
<path d="M442.124 539.224L443.676 528.302H428.935L426.846 539.224H442.124Z" fill="#263238" stroke="white" stroke-linecap="round" stroke-linejoin="round"/>
<path d="M487.929 539.224V528.302H473.173L472.666 539.224H487.929Z" fill="#263238" stroke="white" stroke-linecap="round" stroke-linejoin="round"/>
<path d="M426.846 539.224L428.935 528.302H414.179L411.583 539.224H426.846Z" fill="#263238" stroke="white" stroke-linecap="round" stroke-linejoin="round"/>
<path d="M411.583 539.224L414.179 528.302H399.423L396.305 539.224H411.583Z" fill="#263238" stroke="white" stroke-linecap="round" stroke-linejoin="round"/>
<path d="M472.666 539.224L473.173 528.302H458.432L457.387 539.224H472.666Z" fill="#263238" stroke="white" stroke-linecap="round" stroke-linejoin="round"/>
<path d="M564.289 539.224L561.663 528.302H546.922L549.026 539.224H564.289Z" fill="#263238" stroke="white" stroke-linecap="round" stroke-linejoin="round"/>
<path d="M549.026 539.224L546.922 528.302H532.167L533.748 539.224H549.026Z" fill="#263238" stroke="white" stroke-linecap="round" stroke-linejoin="round"/>
<path d="M518.47 539.224L517.426 528.302H502.67L503.207 539.224H518.47Z" fill="#263238" stroke="white" stroke-linecap="round" stroke-linejoin="round"/>
<path d="M555.621 573.525H538.701H521.797H504.878H487.959H471.054H454.135H437.231H420.311H403.407H386.488L382.728 586.654H400.274H417.805H435.351H452.897H470.442H487.973H505.519H523.065H540.596H558.142L555.621 573.525Z" fill="#263238" stroke="white" stroke-linecap="round" stroke-linejoin="round"/>
<path d="M533.748 539.224L532.167 528.302H517.426L518.47 539.224H533.748Z" fill="#263238" stroke="white" stroke-linecap="round" stroke-linejoin="round"/>
<path d="M672.25 609.721H296.356V615.047H672.25V609.721Z" fill="#263238" stroke="#263238" stroke-linecap="round" stroke-linejoin="round"/>
<path opacity="0.15" d="M584.73 377.849V521.215L543.058 575.539L536.046 578.165L322.272 609.706V616.718L243.972 620.926V543.998H377.476V377.163L584.73 377.849Z" fill="black"/>
<path d="M195.959 528.616C186.336 529.093 175.907 536.434 175.907 536.434L67.1399 620.926H243.972C243.972 620.926 355.618 536.672 358.96 534.255C364.257 530.436 374.76 528.496 374.76 528.496L369.792 528.616H195.959Z" fill="white" stroke="#263238" stroke-linecap="round" stroke-linejoin="round"/>
<path d="M602.768 377.983H366.122" stroke="#263238" stroke-linecap="round" stroke-linejoin="round"/>
<path d="M567.079 326.987C564.76 326.985 562.462 327.44 560.319 328.328C558.176 329.215 556.229 330.516 554.589 332.157C552.949 333.798 551.65 335.747 550.764 337.891C549.879 340.035 549.425 342.332 549.429 344.652V561.604C549.423 564.465 548.732 567.283 547.413 569.822C546.094 572.361 544.185 574.547 541.847 576.197C539.51 577.847 536.81 578.912 533.976 579.304C531.142 579.695 528.255 579.402 525.557 578.448L391.68 530.898C384.658 528.398 377.064 527.973 369.807 529.675V344.652C369.807 339.971 371.667 335.481 374.977 332.171C378.287 328.861 382.776 327.002 387.457 327.002L567.079 326.987Z" fill="white"/>
<mask id="mask0_514_2" style="mask-type:luminance" maskUnits="userSpaceOnUse" x="369" y="326" width="199" height="254">
<path d="M567.079 326.987C564.76 326.985 562.462 327.44 560.319 328.328C558.176 329.215 556.229 330.516 554.589 332.157C552.949 333.798 551.65 335.747 550.764 337.891C549.879 340.035 549.425 342.332 549.429 344.652V561.604C549.423 564.465 548.732 567.283 547.413 569.822C546.094 572.361 544.185 574.547 541.847 576.197C539.51 577.847 536.81 578.912 533.976 579.304C531.142 579.695 528.255 579.402 525.557 578.448L391.68 530.898C384.658 528.398 377.064 527.973 369.807 529.675V344.652C369.807 339.971 371.667 335.481 374.977 332.171C378.287 328.861 382.776 327.002 387.457 327.002L567.079 326.987Z" fill="white"/>
</mask>
<g mask="url(#mask0_514_2)">
<path d="M408.122 536.747L525.542 578.448C528.24 579.402 531.127 579.695 533.961 579.304C536.796 578.912 539.495 577.847 541.833 576.197C544.171 574.547 546.079 572.361 547.398 569.822C548.717 567.283 549.409 564.465 549.414 561.604V536.747H408.122Z" fill="#4D2555"/>
<path opacity="0.6" d="M408.122 536.747L525.542 578.448C528.24 579.402 531.127 579.695 533.961 579.304C536.796 578.912 539.495 577.847 541.833 576.197C544.171 574.547 546.079 572.361 547.398 569.822C548.717 567.283 549.409 564.465 549.414 561.604V536.747H408.122Z" fill="white"/>
<path d="M408.122 565.319L525.542 607.095C528.241 608.049 531.129 608.342 533.965 607.95C536.8 607.557 539.501 606.491 541.839 604.839C544.177 603.188 546.085 601 547.403 598.459C548.721 595.918 549.411 593.098 549.414 590.235V565.319H408.122Z" fill="#4D2555"/>
</g>
<path d="M567.079 326.987C564.76 326.985 562.462 327.44 560.319 328.328C558.176 329.215 556.229 330.516 554.589 332.157C552.949 333.798 551.65 335.747 550.764 337.891C549.879 340.035 549.425 342.332 549.429 344.652V561.604C549.423 564.465 548.732 567.283 547.413 569.822C546.094 572.361 544.185 574.547 541.847 576.197C539.51 577.847 536.81 578.912 533.976 579.304C531.142 579.695 528.255 579.402 525.557 578.448L391.68 530.898C384.658 528.398 377.064 527.973 369.807 529.675V344.652C369.807 339.971 371.667 335.481 374.977 332.171C378.287 328.861 382.776 327.002 387.457 327.002L567.079 326.987Z" stroke="#263238" stroke-linecap="round" stroke-linejoin="round"/>
<path d="M377.401 528.616H369.792" stroke="#263238" stroke-linecap="round" stroke-linejoin="round"/>
<path d="M531.555 579.508H351.918C349.883 579.499 347.864 579.14 345.95 578.448L314.931 567.542L353.499 537.851C358.707 533.462 364.971 530.511 371.672 529.291C378.372 528.072 385.275 528.626 391.695 530.898L525.572 578.448C527.491 579.142 529.514 579.5 531.555 579.508Z" fill="white"/>
<mask id="mask1_514_2" style="mask-type:luminance" maskUnits="userSpaceOnUse" x="314" y="528" width="218" height="52">
<path d="M531.555 579.508H351.918C349.883 579.499 347.864 579.14 345.95 578.448L314.931 567.542L353.499 537.851C358.707 533.462 364.971 530.511 371.672 529.291C378.372 528.072 385.275 528.626 391.695 530.898L525.572 578.448C527.491 579.142 529.514 579.5 531.555 579.508Z" fill="white"/>
</mask>
<g mask="url(#mask1_514_2)">
<path d="M531.555 579.508H351.918C349.882 579.499 347.864 579.14 345.95 578.448L313.006 566.96L353.469 537.851C358.677 533.462 364.941 530.511 371.642 529.291C378.342 528.072 385.245 528.626 391.665 530.898L525.542 578.448C527.47 579.145 529.504 579.503 531.555 579.508Z" fill="#4D2555"/>
<path opacity="0.2" d="M531.555 579.508H351.918C349.882 579.499 347.864 579.14 345.95 578.448L313.006 566.96L353.469 537.851C358.677 533.462 364.941 530.511 371.642 529.291C378.342 528.072 385.245 528.626 391.665 530.898L525.542 578.448C527.47 579.145 529.504 579.503 531.555 579.508Z" fill="black"/>
</g>
<path d="M531.555 579.508H351.918C349.883 579.499 347.864 579.14 345.95 578.448L314.931 567.542L353.499 537.851C358.707 533.462 364.971 530.511 371.672 529.291C378.372 528.072 385.275 528.626 391.695 530.898L525.572 578.448C527.491 579.142 529.514 579.5 531.555 579.508Z" stroke="#263238" stroke-linecap="round" stroke-linejoin="round"/>
<path d="M351.918 579.508H351.53" stroke="#263238" stroke-linecap="round" stroke-linejoin="round"/>
<path d="M531.897 579.508H531.555" stroke="#263238" stroke-linecap="round" stroke-linejoin="round"/>
<path d="M579.552 332.164C577.919 330.519 575.976 329.214 573.835 328.325C571.694 327.436 569.397 326.981 567.079 326.987C548.698 326.987 549.429 344.637 549.429 344.637V377.849H584.729V344.652C584.735 342.332 584.281 340.033 583.392 337.889C582.503 335.746 581.198 333.8 579.552 332.164Z" fill="white"/>
<mask id="mask2_514_2" style="mask-type:luminance" maskUnits="userSpaceOnUse" x="549" y="326" width="36" height="52">
<path d="M579.552 332.164C577.919 330.519 575.976 329.214 573.835 328.325C571.694 327.436 569.397 326.981 567.079 326.987C548.698 326.987 549.429 344.637 549.429 344.637V377.849H584.729V344.652C584.735 342.332 584.281 340.033 583.392 337.889C582.503 335.746 581.198 333.8 579.552 332.164Z" fill="white"/>
</mask>
<g mask="url(#mask2_514_2)">
<path d="M579.552 332.164C577.919 330.519 575.976 329.214 573.835 328.325C571.694 327.436 569.397 326.981 567.079 326.987C548.698 326.987 549.429 344.637 549.429 344.637V377.849H584.729V344.652C584.735 342.332 584.281 340.033 583.392 337.889C582.503 335.746 581.198 333.8 579.552 332.164Z" fill="#4D2555"/>
<path opacity="0.2" d="M579.552 332.164C577.919 330.519 575.976 329.214 573.835 328.325C571.694 327.436 569.397 326.981 567.079 326.987C548.698 326.987 549.429 344.637 549.429 344.637V377.849H584.729V344.652C584.735 342.332 584.281 340.033 583.392 337.889C582.503 335.746 581.198 333.8 579.552 332.164Z" fill="black"/>
</g>
<path d="M579.552 332.164C577.919 330.519 575.976 329.214 573.835 328.325C571.694 327.436 569.397 326.981 567.079 326.987C548.698 326.987 549.429 344.637 549.429 344.637V377.849H584.729V344.652C584.735 342.332 584.281 340.033 583.392 337.889C582.503 335.746 581.198 333.8 579.552 332.164Z" stroke="#263238" stroke-linecap="round" stroke-linejoin="round"/>
<g opacity="0.15">
<path d="M386.279 357.394V357.707V365.242V365.555V373.09V373.403V380.923V381.236V388.77V389.084V396.618V396.932V404.451V404.765V412.299V412.613V420.147V420.461V427.98V428.294V435.828V436.141V443.989H403.332V436.141V435.828V428.294V427.98V420.461V420.147V412.613V412.299V404.765V404.451V396.932V396.618V389.084V388.77V381.236V380.923V373.403V373.09V365.555V365.242V357.707V357.394V349.561H386.279V357.394Z" fill="black"/>
<path d="M520.738 349.561H520.38H504.057H503.684H487.362H486.989H470.681H470.308H453.986H453.613H437.305H436.932H420.61H420.237H403.556V357.707H420.237H420.61H436.932H437.305H453.613H453.986H470.308H470.681H486.989H487.362H503.684H504.057H520.38H520.738H537.433V349.561H520.738Z" fill="black"/>
</g>
<path d="M403.332 349.561H386.279V357.722H403.332V349.561Z" stroke="#263238" stroke-width="0.25" stroke-linecap="round" stroke-linejoin="round"/>
<path d="M403.332 357.394H386.279V365.555H403.332V357.394Z" stroke="#263238" stroke-width="0.25" stroke-linecap="round" stroke-linejoin="round"/>
<path d="M403.332 365.242H386.279V373.403H403.332V365.242Z" stroke="#263238" stroke-width="0.25" stroke-linecap="round" stroke-linejoin="round"/>
<path d="M403.332 373.09H386.279V381.251H403.332V373.09Z" stroke="#263238" stroke-width="0.25" stroke-linecap="round" stroke-linejoin="round"/>
<path d="M403.332 380.923H386.279V389.084H403.332V380.923Z" stroke="#263238" stroke-width="0.25" stroke-linecap="round" stroke-linejoin="round"/>
<path d="M403.332 388.77H386.279V396.932H403.332V388.77Z" stroke="#263238" stroke-width="0.25" stroke-linecap="round" stroke-linejoin="round"/>
<path d="M403.332 396.618H386.279V404.78H403.332V396.618Z" stroke="#263238" stroke-width="0.25" stroke-linecap="round" stroke-linejoin="round"/>
<path d="M403.332 404.451H386.279V412.613H403.332V404.451Z" stroke="#263238" stroke-width="0.25" stroke-linecap="round" stroke-linejoin="round"/>
<path d="M403.332 412.299H386.279V420.461H403.332V412.299Z" stroke="#263238" stroke-width="0.25" stroke-linecap="round" stroke-linejoin="round"/>
<path d="M403.332 420.147H386.279V428.308H403.332V420.147Z" stroke="#263238" stroke-width="0.25" stroke-linecap="round" stroke-linejoin="round"/>
<path d="M403.332 427.98H386.279V436.141H403.332V427.98Z" stroke="#263238" stroke-width="0.25" stroke-linecap="round" stroke-linejoin="round"/>
<path d="M403.332 435.828H386.279V443.989H403.332V435.828Z" stroke="#263238" stroke-width="0.25" stroke-linecap="round" stroke-linejoin="round"/>
<path d="M420.61 349.561H403.556V357.722H420.61V349.561Z" stroke="#263238" stroke-width="0.25" stroke-linecap="round" stroke-linejoin="round"/>
<path d="M437.29 349.561H420.237V357.722H437.29V349.561Z" stroke="#263238" stroke-width="0.25" stroke-linecap="round" stroke-linejoin="round"/>
<path d="M453.986 349.561H436.932V357.722H453.986V349.561Z" stroke="#263238" stroke-width="0.25" stroke-linecap="round" stroke-linejoin="round"/>
<path d="M470.666 349.561H453.613V357.722H470.666V349.561Z" stroke="#263238" stroke-width="0.25" stroke-linecap="round" stroke-linejoin="round"/>
<path d="M487.362 349.561H470.308V357.722H487.362V349.561Z" stroke="#263238" stroke-width="0.25" stroke-linecap="round" stroke-linejoin="round"/>
<path d="M504.042 349.561H486.989V357.722H504.042V349.561Z" stroke="#263238" stroke-width="0.25" stroke-linecap="round" stroke-linejoin="round"/>
<path d="M520.738 349.561H503.684V357.722H520.738V349.561Z" stroke="#263238" stroke-width="0.25" stroke-linecap="round" stroke-linejoin="round"/>
<path d="M537.433 349.561H520.38V357.722H537.433V349.561Z" stroke="#263238" stroke-width="0.25" stroke-linecap="round" stroke-linejoin="round"/>
<path d="M537.418 357.707H403.332V443.974H537.418V357.707Z" stroke="#263238" stroke-width="0.25" stroke-linecap="round" stroke-linejoin="round"/>
<path d="M420.386 357.707V443.96" stroke="#263238" stroke-width="0.25" stroke-linecap="round" stroke-linejoin="round"/>
<path d="M437.081 357.707V443.96" stroke="#263238" stroke-width="0.25" stroke-linecap="round" stroke-linejoin="round"/>
<path d="M453.777 357.707V443.96" stroke="#263238" stroke-width="0.25" stroke-linecap="round" stroke-linejoin="round"/>
<path d="M470.472 357.707V443.96" stroke="#263238" stroke-width="0.25" stroke-linecap="round" stroke-linejoin="round"/>
<path d="M487.153 357.707V443.96" stroke="#263238" stroke-width="0.25" stroke-linecap="round" stroke-linejoin="round"/>
<path d="M503.848 357.707V443.96" stroke="#263238" stroke-width="0.25" stroke-linecap="round" stroke-linejoin="round"/>
<path d="M520.544 357.707V443.96" stroke="#263238" stroke-width="0.25" stroke-linecap="round" stroke-linejoin="round"/>
<path d="M403.332 365.555H537.329" stroke="#263238" stroke-width="0.25" stroke-linecap="round" stroke-linejoin="round"/>
<path d="M403.332 373.373H537.329" stroke="#263238" stroke-width="0.25" stroke-linecap="round" stroke-linejoin="round"/>
<path d="M403.332 381.191H537.329" stroke="#263238" stroke-width="0.25" stroke-linecap="round" stroke-linejoin="round"/>
<path d="M403.332 389.009H537.329" stroke="#263238" stroke-width="0.25" stroke-linecap="round" stroke-linejoin="round"/>
<path d="M403.332 396.827H537.329" stroke="#263238" stroke-width="0.25" stroke-linecap="round" stroke-linejoin="round"/>
<path d="M403.332 404.63H537.329" stroke="#263238" stroke-width="0.25" stroke-linecap="round" stroke-linejoin="round"/>
<path d="M403.332 412.448H537.329" stroke="#263238" stroke-width="0.25" stroke-linecap="round" stroke-linejoin="round"/>
<path d="M403.332 420.267H537.329" stroke="#263238" stroke-width="0.25" stroke-linecap="round" stroke-linejoin="round"/>
<path d="M403.332 428.085H537.329" stroke="#263238" stroke-width="0.25" stroke-linecap="round" stroke-linejoin="round"/>
<path d="M403.332 435.903H537.329" stroke="#263238" stroke-width="0.25" stroke-linecap="round" stroke-linejoin="round"/>
<path d="M317.855 549.623H174.101L184.023 542.088H327.777L317.855 549.623Z" fill="#4D2555"/>
<path d="M98.0243 610.109H94.5032L184.023 542.088H187.559L98.0243 610.109Z" fill="#4D2555"/>
<path d="M286.18 573.644H142.441L153.676 565.229H297.415L286.18 573.644Z" fill="#263238"/>
<path d="M237.795 610.452H94.0408L184.023 542.088H327.777L237.795 610.452Z" stroke="#263238" stroke-width="0.25" stroke-linecap="round" stroke-linejoin="round"/>
<path d="M198.839 542.342L109.244 610.407" stroke="#263238" stroke-width="0.25" stroke-linecap="round" stroke-linejoin="round"/>
<path d="M213.281 542.342L123.687 610.407" stroke="#263238" stroke-width="0.25" stroke-linecap="round" stroke-linejoin="round"/>
<path d="M227.709 542.342L138.114 610.407" stroke="#263238" stroke-width="0.25" stroke-linecap="round" stroke-linejoin="round"/>
<path d="M242.151 542.342L152.557 610.407" stroke="#263238" stroke-width="0.25" stroke-linecap="round" stroke-linejoin="round"/>
<path d="M256.594 542.342L167 610.407" stroke="#263238" stroke-width="0.25" stroke-linecap="round" stroke-linejoin="round"/>
<path d="M271.037 542.342L181.427 610.407" stroke="#263238" stroke-width="0.25" stroke-linecap="round" stroke-linejoin="round"/>
<path d="M285.464 542.342L195.87 610.407" stroke="#263238" stroke-width="0.25" stroke-linecap="round" stroke-linejoin="round"/>
<path d="M299.907 542.342L210.312 610.407" stroke="#263238" stroke-width="0.25" stroke-linecap="round" stroke-linejoin="round"/>
<path d="M314.349 542.342L224.74 610.407" stroke="#263238" stroke-width="0.25" stroke-linecap="round" stroke-linejoin="round"/>
<path d="M165.299 556.501H308.62" stroke="#263238" stroke-width="0.25" stroke-linecap="round" stroke-linejoin="round"/>
<path d="M153.855 565.199H297.176" stroke="#263238" stroke-width="0.25" stroke-linecap="round" stroke-linejoin="round"/>
<path d="M142.411 573.898H285.733" stroke="#263238" stroke-width="0.25" stroke-linecap="round" stroke-linejoin="round"/>
<path d="M130.968 582.581H274.289" stroke="#263238" stroke-width="0.25" stroke-linecap="round" stroke-linejoin="round"/>
<path d="M119.524 591.28H262.845" stroke="#263238" stroke-width="0.25" stroke-linecap="round" stroke-linejoin="round"/>
<path d="M108.08 599.978H251.402" stroke="#263238" stroke-width="0.25" stroke-linecap="round" stroke-linejoin="round"/>
<path d="M537.657 450.569H386.145V456.134H537.657V450.569Z" fill="#4D2555"/>
<path d="M389.86 450.569H386.145V522.245H389.86V450.569Z" fill="#4D2555"/>
<path d="M537.657 450.569H386.145V522.618H537.657V450.569Z" stroke="#263238" stroke-width="0.25" stroke-linecap="round" stroke-linejoin="round"/>
<path d="M402.109 450.838V522.573" stroke="#263238" stroke-width="0.25" stroke-linecap="round" stroke-linejoin="round"/>
<path d="M417.327 450.838V522.573" stroke="#263238" stroke-width="0.25" stroke-linecap="round" stroke-linejoin="round"/>
<path d="M432.546 450.838V522.573" stroke="#263238" stroke-width="0.25" stroke-linecap="round" stroke-linejoin="round"/>
<path d="M447.764 450.838V522.573" stroke="#263238" stroke-width="0.25" stroke-linecap="round" stroke-linejoin="round"/>
<path d="M462.982 450.838V522.573" stroke="#263238" stroke-width="0.25" stroke-linecap="round" stroke-linejoin="round"/>
<path d="M478.201 450.838V522.573" stroke="#263238" stroke-width="0.25" stroke-linecap="round" stroke-linejoin="round"/>
<path d="M493.419 450.838V522.573" stroke="#263238" stroke-width="0.25" stroke-linecap="round" stroke-linejoin="round"/>
<path d="M508.623 450.838V522.573" stroke="#263238" stroke-width="0.25" stroke-linecap="round" stroke-linejoin="round"/>
<path d="M523.841 450.838V522.573" stroke="#263238" stroke-width="0.25" stroke-linecap="round" stroke-linejoin="round"/>
<path d="M386.398 465.758H537.463" stroke="#263238" stroke-width="0.25" stroke-linecap="round" stroke-linejoin="round"/>
<path d="M386.398 474.933H537.463" stroke="#263238" stroke-width="0.25" stroke-linecap="round" stroke-linejoin="round"/>
<path d="M386.398 484.094H537.463" stroke="#263238" stroke-width="0.25" stroke-linecap="round" stroke-linejoin="round"/>
<path d="M386.398 493.255H537.463" stroke="#263238" stroke-width="0.25" stroke-linecap="round" stroke-linejoin="round"/>
<path d="M386.398 502.416H537.463" stroke="#263238" stroke-width="0.25" stroke-linecap="round" stroke-linejoin="round"/>
<path d="M386.398 511.577H537.463" stroke="#263238" stroke-width="0.25" stroke-linecap="round" stroke-linejoin="round"/>
<path d="M487.496 496.553H481.185V511.293H487.496V496.553Z" fill="#263238" stroke="#263238" stroke-width="0.5" stroke-miterlimit="10"/>
<path d="M497.612 487.72H491.301V511.308H497.612V487.72Z" fill="#4D2555" stroke="#263238" stroke-width="0.5" stroke-miterlimit="10"/>
<path d="M507.713 472.979H501.401V511.308H507.713V472.979Z" fill="#263238" stroke="#263238" stroke-width="0.5" stroke-miterlimit="10"/>
<path d="M517.828 487.287H511.517V511.293H517.828V487.287Z" fill="#4D2555" stroke="#263238" stroke-width="0.5" stroke-miterlimit="10"/>
<path d="M527.929 472.979H521.618V511.308H527.929V472.979Z" fill="#263238" stroke="#263238" stroke-width="0.5" stroke-miterlimit="10"/>
<path d="M422.519 493.583V511.1C417.874 511.1 413.419 509.254 410.134 505.969C406.849 502.684 405.003 498.229 405.003 493.583C405.003 488.938 406.849 484.483 410.134 481.198C413.419 477.913 417.874 476.067 422.519 476.067V493.583Z" fill="#4D2555" stroke="#263238" stroke-width="0.5" stroke-miterlimit="10"/>
<path d="M422.519 493.583L439.17 488.167C439.887 490.356 440.165 492.664 439.988 494.96C439.811 497.256 439.183 499.495 438.139 501.548C437.095 503.6 435.657 505.427 433.906 506.923C432.155 508.418 430.126 509.554 427.935 510.264C426.19 510.849 424.36 511.141 422.519 511.129V493.583Z" fill="white" stroke="#263238" stroke-width="0.5" stroke-miterlimit="10"/>
<path d="M422.519 493.583V476.067C426.227 476.024 429.85 477.179 432.85 479.358C435.849 481.538 438.066 484.628 439.17 488.168L422.519 493.583Z" fill="#263238" stroke="#263238" stroke-width="0.5" stroke-miterlimit="10"/>
</svg>
