<svg version="1.2" xmlns="http://www.w3.org/2000/svg" viewBox="0 0 642 523" width="642" height="523"><defs><clipPath clipPathUnits="userSpaceOnUse" id="cp1"><path d="m511.08 200.99c-2.32 0-4.62 0.45-6.76 1.34-2.14 0.88-4.09 2.19-5.73 3.83-1.64 1.64-2.94 3.59-3.83 5.73-0.88 2.15-1.34 4.44-1.33 6.76v216.95c-0.01 2.87-0.7 5.68-2.02 8.22-1.32 2.54-3.23 4.73-5.56 6.38-2.34 1.65-5.04 2.71-7.87 3.1-2.84 0.4-5.72 0.1-8.42-0.85l-133.88-47.55c-7.02-2.5-14.62-2.93-21.87-1.23v-185.02c0-4.68 1.86-9.17 5.17-12.48 3.31-3.31 7.8-5.17 12.48-5.17z"/></clipPath><clipPath clipPathUnits="userSpaceOnUse" id="cp2"><path d="m475.55 453.51h-179.63c-2.04-0.01-4.06-0.37-5.97-1.06l-31.02-10.91 38.57-29.69c5.21-4.39 11.47-7.34 18.17-8.56 6.7-1.22 13.6-0.66 20.02 1.61l133.88 47.55c1.92 0.69 3.94 1.05 5.98 1.06z"/></clipPath><clipPath clipPathUnits="userSpaceOnUse" id="cp3"><path d="m523.55 206.16c-1.63-1.64-3.57-2.95-5.71-3.84-2.15-0.88-4.44-1.34-6.76-1.33-18.38 0-17.65 17.65-17.65 17.65v33.21h35.3v-33.2c0.01-2.32-0.45-4.62-1.34-6.76-0.89-2.14-2.19-4.09-3.84-5.73z"/></clipPath></defs><style>.a{fill:#4d2555}.b{opacity:.8;fill:#fff}.c{opacity:.4;fill:#fff}.d{opacity:.1}.e{fill:#263238;stroke:#263238;stroke-linecap:round;stroke-linejoin:round}.f{fill:#fff;stroke:#263238;stroke-linecap:round;stroke-linejoin:round}.g{fill:#4d2555;stroke:#263238;stroke-linecap:round;stroke-linejoin:round}.h{fill:#263238;stroke:#fff;stroke-linecap:round;stroke-linejoin:round}.i{fill:none;stroke:#263238;stroke-linecap:round;stroke-linejoin:round}.j{fill:#fff}.k{opacity:.6;fill:#fff}.l{opacity:.2}.m{fill:none;stroke:#263238;stroke-linecap:round;stroke-linejoin:round;stroke-width:.4}.n{fill:#263238}.o{fill:#263238;stroke:#263238;stroke-miterlimit:10;stroke-width:.5}.p{fill:#4d2555;stroke:#263238;stroke-miterlimit:10;stroke-width:.5}.q{fill:#fff;stroke:#263238;stroke-miterlimit:10;stroke-width:.5}</style><path class="a" d="m624.9 340.7c0 0 30.1-158.8-51.7-248.9-72.3-79.5-186.5-110.4-279.8-44.7-33.1 23.4-57.3 68.9-96.1 83-43.5 15.7-99.4 21.4-139.8 88.9-40.4 67.6-25.9 154.4 27.9 200.5 53.9 46.2 148.1 1.2 233-2.2 84.9-3.4 262 119.4 306.5-76.6z"/><path class="b" d="m624.9 340.7c0 0 30.1-158.8-51.7-248.9-72.3-79.5-186.5-110.4-279.8-44.7-33.1 23.4-57.3 68.9-96.1 83-43.5 15.7-99.4 21.4-139.8 88.9-40.4 67.6-25.9 154.4 27.9 200.5 53.9 46.2 148.1 1.2 233-2.2 84.9-3.4 262 119.4 306.5-76.6z"/><path class="a" d="m332.5 100.8h94.8v26.9h-94.8c-2 0-4-0.8-5.4-2.2-1.4-1.4-2.2-3.4-2.2-5.4v-11.7c0-2 0.8-3.9 2.2-5.4 1.4-1.4 3.4-2.2 5.4-2.2z"/><path class="a" d="m427.3 67.2h-89c-3.5 0-6.9 1.4-9.5 3.9-2.5 2.5-3.9 5.9-3.9 9.5 0 3.6 1.4 7 3.9 9.5 2.6 2.5 6 3.9 9.5 3.9h89z"/><path class="a" d="m467.7 36.2h-32.4v90.2h32.4z"/><path class="a" d="m508.1 36.2h-32.3v90.2h32.3z"/><path class="a" d="m548.5 36.2h-32.3v90.2h32.3z"/><path class="c" d="m332.5 100.8h94.8v26.9h-94.8c-2 0-4-0.8-5.4-2.2-1.4-1.4-2.2-3.4-2.2-5.4v-11.7c0-2 0.8-3.9 2.2-5.4 1.4-1.4 3.4-2.2 5.4-2.2z"/><path class="c" d="m427.3 67.2h-89c-3.5 0-6.9 1.4-9.5 3.9-2.5 2.5-3.9 5.9-3.9 9.5 0 3.6 1.4 7 3.9 9.5 2.6 2.5 6 3.9 9.5 3.9h89z"/><path class="c" d="m467.7 36.2h-32.4v90.2h32.4z"/><path class="c" d="m508.1 36.2h-32.3v90.2h32.3z"/><path class="c" d="m548.5 36.2h-32.3v90.2h32.3z"/><path class="a" d="m568 128.9h-253.9v15h20.6v37.3h12.3v-37.3h182.2v37.3h12.3v-37.3h26.5z"/><path class="d" d="m568 128.9h-253.9v15h20.6v37.3h12.3v-37.3h182.2v37.3h12.3v-37.3h26.5z"/><path fill-rule="evenodd" class="a" d="m274.6 175.9c2.4 4.2-1.8 9.1-8.5 7.4-3.8-1-7.4-2.9-10.4-5.5q0 0.1 0 0.2l-0.4-0.4q-6.3 4.6-13 8.5c1.1-0.4 2.2-0.9 3.4-1.2 4.1-1.1 8.1-1.3 10 2.2 2.5 4.3-1.7 9.1-8.4 7.5-3.9-1-7.5-2.9-10.5-5.5l-0.1 0.1c-6.7 3.6-13.7 6.6-20.5 9.8q2.4-0.4 4.9-0.5c4.2-0.2 8.2 0.6 9.3 4.4 1.4 4.8-3.9 8.5-10 5.3-3.3-1.7-6.2-4.1-8.4-7.1-6.4 3.1-12.5 6.9-18.1 11.3q2.2-0.7 4.5-1.2c4.1-0.8 8.2-0.6 9.9 3 2.1 4.4-2.4 8.9-9 6.8-3.4-1.2-6.5-3-9.1-5.4-5.1 4.5-9.5 9.8-13.1 15.6q-2.6 4.4-4.6 9.1 1.8-1.5 3.6-2.8c3.5-2.3 7.3-3.7 10.3-0.9 3.6 3.3 1 9.2-5.9 9.7-3.3 0.1-6.6-0.3-9.8-1.4q-1.7 4.8-2.9 9.7-2 8.5-2.6 17.2 2.1-1.9 4.4-3.5c3.6-2.4 7.3-3.7 10.3-1 3.6 3.4 1.1 9.3-5.8 9.7-3.1 0.2-6.3-0.2-9.2-1.2-0.1 1.4-0.1 2.7-0.1 4.1q-0.1 3.7 0.1 7.4 0.4 2.5 0.8 5.1 0.6 3.5 1.3 6.9 0.4-1.8 1.1-3.5c1.4-3.9 3.6-7.3 7.6-6.9 4.9 0.5 6.4 6.8 1.1 11.3-2.5 2.1-5.5 3.7-8.6 4.7 0.7 3.2 1.4 6.3 2.2 9.5q0.4 1.6 0.8 3.1 0.5-1.7 1.1-3.4c1.4-4 3.6-7.4 7.6-6.9 4.9 0.5 6.4 6.8 1.1 11.2-2.3 2-5 3.5-7.9 4.5l0.7 0.4c0.4 0.2 2.3 6.8 4.5 14.4h25.8v70.3h-55.4v-70.3h22.1q-1.9-6.3-3.7-12.8l-0.1-0.1q-0.5-0.3-1-0.7c-2.6-0.1-5.2-0.7-7.6-1.7-4.9-2.1-5.7-6.9-3.3-9.7q-1.7-2.3-3.3-4.5c-3.4 1.7-7.1 2.5-10.8 2.5-6.5-0.2-8.8-6.3-5.3-10 2.8-3 6.4-1.7 9.7 0.6q2 1.4 3.7 3.1-1.2-1.9-2.3-3.7-3.1-5-5.9-10c-3.1 1.3-6.4 2-9.8 2-6.5-0.2-8.8-6.3-5.3-10 2.8-3 6.4-1.7 9.7 0.6q1.3 0.9 2.5 1.9-0.7-1.3-1.4-2.6c-1.6-3-3-6.2-4.5-9.3-0.3-0.9-0.7-1.6-1-2.4-3.5 1-7.1 1.1-10.6 0.4-6.4-1.5-7.5-7.9-3.4-10.8 3.4-2.4 6.7-0.5 9.5 2.4 0.9 0.9 1.7 1.9 2.5 3l-0.9-2.3q-4.2-11.4-6.7-23.2c-3.7 0.6-7.4 0.4-10.9-0.7-6.2-2.1-6.7-8.6-2.3-11.1 3.6-2.1 6.7 0.2 9.2 3.3q1.8 2.4 3.2 4.9c-0.9-4.3-1.6-8.8-2.2-13.3-0.5-2.8-0.7-5.6-1-8.4-3.8 0.2-7.6-0.5-11-2.1-5.9-2.9-5.5-9.4-0.8-11.3 3.8-1.6 6.6 1 8.6 4.5q1.7 3 3 6.2c-0.2-3.1-0.5-6.3-0.5-9.5q-0.3-10.3 0.7-20.5-0.7 10.2 0 20.5c0.1 3.3 0.5 6.6 0.8 9.9q0.9-3.8 2.3-7.6c1.6-3.9 4-7.1 8-6.5 4.8 0.7 6 7.1 0.6 11.3-3.2 2.4-6.8 4-10.7 4.8 0.4 2.8 0.7 5.7 1.2 8.5 0.8 4.6 1.7 9 2.7 13.5q0.4-3.3 1.2-6.6c1.1-4 3.1-7.6 7-7.5 5 0.1 7 6.2 2.1 11.1-2.7 2.7-6 4.7-9.6 6q3 11.7 7.5 22.9l1.5 3.3q0.1-2.8 0.5-5.5c0.7-4.2 2.2-7.9 6.2-8.2 4.9-0.4 7.5 5.5 3.2 10.8-2.3 2.8-5.1 5-8.3 6.7q0.5 1.1 1.1 2.2c1.6 3.1 3 6.1 4.7 9.1l1.8 3.6q-0.3-2.4-0.4-4.8c-0.2-4.2 0.7-8.1 4.6-9.2 4.7-1.3 8.4 4 5.1 10.1-1.7 3.1-4 5.9-6.9 8 1.9 3.2 3.8 6.3 5.8 9.3 0-1.4 0.5-2.7 1.5-3.7 0.4-2.7 1.7-4.9 4.4-5.7 0.8-0.2 1.6-0.2 2.4-0.1 0.9 0.2 1.6 0.6 2.2 1.2q-1.1-8.7-1.7-17.4c-1.9-1.6-3.5-3.5-4.7-5.6-3.1-5.2 0-9.9 4.3-9.9q0.1-4.7 0.4-9.3 0.4-6.2 1.2-12.4-0.1-0.2-0.1-0.4c-3.3-0.7-6.3-2.2-8.9-4.2-5.1-4-3.3-10.2 1.7-11.1 4-0.7 6.1 2.4 7.4 6.2q0.4 1.1 0.7 2.2 0.2-0.2 0.5-0.5 0.2-1.3 0.4-2.6 1.7-8.1 4.3-16.1c-3.3-1.2-6.2-3.1-8.5-5.6-4.5-4.8-1.8-10.7 3.3-10.8 4.1-0.1 5.7 3.4 6.4 7.3q0.3 2.2 0.4 4.3c2.6-6.8 5.7-13.4 9.5-19.6-2.9-2.1-5.3-4.9-7-8.1-2.9-5.9 1.4-10.8 6.3-9.4 4 1.1 4.6 4.8 4.1 8.8q-0.4 2.6-1 5.1c3.8-5.8 8.2-11.1 13.1-16-2.3-2.7-3.9-6-4.8-9.5-1.4-6.4 3.9-10.1 8.4-7.6 3.6 2.1 3.3 5.8 1.8 9.6q-0.9 2.2-2 4.3c1.7-1.6 3.5-3.2 5.3-4.7q3.7-3 7.6-5.8c-2.5-2.9-4.3-6.3-5.2-10-1.4-6.3 3.9-10 8.4-7.6 3.6 2.1 3.3 5.8 1.8 9.6q-1.5 3.5-3.4 6.8c1.5-1.1 3.1-2.2 4.6-3.2q0.7-0.5 1.4-1c1.1-0.7 2.2-1.4 3.3-2.2l1.1-0.7 6-3.9 1.6-1c-2.4-2.8-4.2-6.2-5.1-9.8-1.4-6.4 3.9-10.1 8.4-7.6 3.6 2 3.3 5.8 1.8 9.5q-1.4 3.5-3.3 6.7l2.2-1.5 2-1.3q2-1.3 3.9-2.7l1.5-1.1q1.3-1.1 2.7-2.1 0.8-0.7 1.6-1.3l1.3-1.2c-2.6-2.8-4.4-6.3-5.3-10.1-1.4-6.4 3.9-10.1 8.4-7.6 3.5 2.1 3.3 5.8 1.8 9.6q-1.5 3.6-3.5 6.9l0.6-0.5c5.7-5 10.9-10.5 15.6-16.4 4.7-5.9 8.6-12.4 11.6-19.4-2.9 7-6.7 13.6-11.3 19.6-1.1 1.5-2.4 3.3-3.4 4.5q-1.6 1.9-3.2 3.7-0.2 0.2-0.5 0.5-3.8 4.2-7.9 8 3.2-1.5 6.6-2.5c4.1-1.2 8.1-1.3 10.1 2.2 2.4 4.2-1.8 9.1-8.5 7.4-3.8-0.9-7.3-2.7-10.2-5.3q-1.2 1.1-2.5 2.2c-1.5 1.2-3 2.4-4.5 3.6q-1.8 1.4-3.7 2.7-1 0.8-2 1.5 2.3-1 4.7-1.7c4.1-1.1 8.1-1.3 10 2.2 2.5 4.3-1.7 9.1-8.4 7.5-3.8-1-7.3-2.8-10.2-5.3l-3.3 2.3c-3.5 2.4-7.1 4.8-10.6 7.3q1.4-0.5 2.8-0.9c4.1-1.2 8.1-1.3 10.1 2.2 2.4 4.2-1.8 9.1-8.5 7.4-3.5-0.9-6.8-2.5-9.7-4.8q-3.9 3-7.7 6.2c-1.9 1.7-3.8 3.4-5.6 5.2q2.7-1.2 5.6-2.1c4.1-1.1 8.1-1.3 10 2.2 2.5 4.3-1.8 9.1-8.4 7.5-3.6-0.9-7-2.6-9.9-5-4.4 4.6-8.4 9.5-11.9 14.8 1.1-0.8 2.3-1.6 3.5-2.3 3.6-2.1 7.5-3.2 10.3-0.3 3.4 3.6 0.4 9.3-6.4 9.3-3.5 0-7-0.8-10.2-2.2-3.4 5.8-6.2 11.8-8.5 18q1-1.3 2.2-2.5c2.9-3 6.3-5.2 9.8-3.2 0.7 0.4 1.3 1 1.8 1.7q0.4-1.2 1.4-2.1c0.6-0.6 1.3-1 2.2-1.2 0.8-0.3 1.6-0.4 2.5-0.2 0.8 0.1 1.6 0.4 2.3 0.9 3.5 2.2 2.8 6 1.1 9.7q-0.9 2-2.1 3.8l0.2-0.1c5.7-4.3 11.9-8 18.5-11-1.7-3.2-2.5-6.8-2.5-10.4 0.1-6.6 6.2-9 9.9-5.5 3 2.8 1.8 6.4-0.5 9.7q-1.7 2.5-3.8 4.7l1.1-0.5c6.9-3.1 14-5.9 20.7-9.2-2.3-2.8-3.9-6-4.7-9.5-1.5-6.4 3.9-10.1 8.3-7.6 3.6 2 3.3 5.8 1.8 9.5q-1.3 3.3-3.1 6.4l0.5-0.2q8.5-4.4 16.3-9.8c-2.3-2.8-4-6.1-4.8-9.6-1.5-6.4 3.8-10.1 8.3-7.6 3.6 2.1 3.3 5.8 1.8 9.5q-1.2 3.1-2.9 6c8.1-5.8 15.7-12.2 22.8-19.1q-9.1 9.3-19.2 17.4-2.3 1.8-4.5 3.4 4.1-1.9 8.5-3.3c4-1.2 8-1.2 9.8 2.3zm-80.8 36.6h0.1q0-0.1 0-0.1 0 0-0.1 0.1zm-34.7 98.1q0 0 0 0-0.1 0-0.1 0zm0 0c1 0 2 0.1 2.9 0.6 0.9 0.4 1.8 1 2.4 1.8q-0.8-3.5-1.5-7.1l-0.9 0.2v-0.3q-3-0.2-5.9-1.1-0.5 0.5-0.9 1 1.9 2.5 3.9 4.9zm4.9-56.9q1.4-5.2 3.3-10.3-2.2-1.5-4-3.4-0.4 3.8-0.5 7.7-0.2 5.5-0.2 11l0.2 0.4q0.6-2.7 1.2-5.4zm6.3-16.9q0-0.1 0-0.2 0 0.1 0 0.2zm0-0.2c0.6-1.1 1.1-2.3 1.8-3.4q-0.8 0.3-1.7 0.5 0 0.5 0 1.1c0 0.6-0.1 1.2-0.1 1.8zm7.8-12.6q0 0 0-0.1 0 0.1 0 0.1zm-0.1-0.1c3-3.8 6.4-7.3 10.1-10.4-1.8-2.6-3-5.5-3.7-8.5-1.2 1.7-3 3-5.1 3.5-3.3 1-6.9 1.2-10.3 0.8q-2.5 8-3.9 16.1c0 0.2-0.1 0.5-0.1 0.7l0.8 0.1h0.2l0.1-0.1c2.4-3.5 5.5-6.2 9.2-4.7q0.9 0.3 1.6 1 0.7 0.7 1.1 1.5z"/><path class="e" d="m295.6 198.2h265.2c3.2 0 6.2 1.2 8.5 3.4 2.2 2.3 3.5 5.3 3.5 8.5v186.1h-289.1v-186.2c0-3.1 1.3-6.1 3.5-8.4 2.2-2.2 5.3-3.4 8.4-3.4z"/><path class="f" d="m616.1 483.7h-375.7l43.3-87.5h289z"/><path class="g" d="m555.2 213.8h-254v166.7h254z"/><path class="h" d="m416.2 423.9l0.5-10.7h-15.3l-1 10.7z"/><path class="h" d="m447.7 423.9l-0.5-10.7h-15.3v10.7z"/><path class="h" d="m529.9 435.3h16.3l-3.8-11.4h-15.8z"/><path class="h" d="m400.4 423.9l1-10.7h-15.3l-1.5 10.7z"/><path class="h" d="m368.8 423.9l2-10.7h-15.2l-2.6 10.7z"/><path class="h" d="m510.9 423.9l-2.6-10.7h-15.3l2.1 10.7z"/><path class="h" d="m526.6 423.9l-3-10.7h-15.3l2.6 10.7z"/><path class="h" d="m353 423.9l2.6-10.7h-15.3l-3.1 10.7z"/><path class="h" d="m463.5 423.9l-1-10.7h-15.3l0.5 10.7z"/><path class="h" d="m542.4 423.9l-3.6-10.7h-15.2l3 10.7z"/><path class="h" d="m495.1 423.9l-2.1-10.7h-15.3l1.6 10.7z"/><path class="h" d="m479.3 423.9l-1.6-10.7h-15.2l1 10.7z"/><path class="h" d="m431.9 423.9v-10.7h-15.2l-0.5 10.7z"/><path class="h" d="m321.5 423.9h-15.8l-4.4 11.4h16.4z"/><path class="h" d="m325 413.2h-15.2l-4.1 10.7h15.8z"/><path class="h" d="m337.2 423.9l3.1-10.7h-15.3l-3.5 10.7z"/><path class="h" d="m296.7 447.5l-5.1 13.2h17.6l4.4-13.2z"/><path class="h" d="m317.7 435.3h-16.4l-4.6 12.2h16.9z"/><path class="h" d="m313.6 447.5l-4.4 13.2h17.5l3.8-13.2z"/><path class="h" d="m384.6 423.9l1.5-10.7h-15.3l-2 10.7z"/><path class="h" d="m383 435.3l1.6-11.4h-15.8l-2.2 11.4z"/><path class="h" d="m366.6 435.3l2.2-11.4h-15.8l-2.7 11.4z"/><path class="h" d="m399.3 435.3l1.1-11.4h-15.8l-1.6 11.4z"/><path class="h" d="m337.2 423.9h-15.7l-3.8 11.4h16.3z"/><path class="h" d="m533.4 447.5h17l-4.2-12.2h-16.3z"/><path class="h" d="m350.3 435.3l2.7-11.4h-15.8l-3.2 11.4z"/><path class="h" d="m317.7 435.3l-4.1 12.2h16.9l3.5-12.2z"/><path class="h" d="m497.3 435.3l-2.2-11.4h-15.8l1.6 11.4z"/><path class="h" d="m480.9 435.3l-1.6-11.4h-15.8l1.1 11.4z"/><path class="h" d="m529.9 435.3l-3.3-11.4h-15.7l2.7 11.4z"/><path class="h" d="m432 435.3l-0.1-11.4h-15.7l-0.6 11.4z"/><path class="h" d="m464.6 435.3l-1.1-11.4h-15.8l0.6 11.4z"/><path class="h" d="m448.3 435.3l-0.6-11.4h-15.8l0.1 11.4z"/><path class="h" d="m415.6 435.3l0.6-11.4h-15.8l-1.1 11.4z"/><path class="h" d="m464.6 435.3l1.2 12.2h16.9l-1.8-12.2z"/><path class="h" d="m480.9 435.3l1.8 12.2h16.9l-2.3-12.2z"/><path class="h" d="m334 435.3l-3.5 12.2h16.9l2.9-12.2z"/><path class="h" d="m497.3 435.3l2.3 12.2h16.9l-2.9-12.2z"/><path class="h" d="m432 435.3v12.2h16.9l-0.6-12.2z"/><path class="h" d="m513.6 435.3l2.9 12.2h16.9l-3.5-12.2z"/><path class="h" d="m448.3 435.3l0.6 12.2h16.9l-1.2-12.2z"/><path class="h" d="m366.6 435.3l-2.3 12.2h16.9l1.8-12.2z"/><path class="h" d="m350.3 435.3l-2.9 12.2h16.9l2.3-12.2z"/><path class="h" d="m415.6 435.3l-0.5 12.2h16.9v-12.2z"/><path class="h" d="m399.3 435.3l-1.2 12.2h17l0.5-12.2z"/><path class="h" d="m383 435.3l-1.8 12.2h16.9l1.2-12.2z"/><path class="h" d="m513.6 435.3l-2.7-11.4h-15.8l2.2 11.4z"/><path class="h" d="m325 413.2l3.7-10.9h-14.8l-4.1 10.9z"/><path class="h" d="m309.8 413.2h-14.1l-4.6 10.7h14.6z"/><path class="h" d="m313.9 402.3h-13.6l-4.6 10.9h14.1z"/><path class="h" d="m305.7 423.9h-14.6l-4.8 11.4h15z"/><path class="h" d="m301.3 435.3h-15l-5.3 12.2h15.7z"/><path class="h" d="m296.7 447.5h-15.7l-5.6 13.2h16.2z"/><path class="h" d="m558.2 423.9l4.4 11.4h14.4l-4.8-11.4z"/><path class="h" d="m567.3 447.5h14.9l-5.2-12.2h-14.4z"/><path class="h" d="m572.3 460.7h15.5l-5.6-13.2h-14.9z"/><path class="h" d="m447.2 413.2l-0.5-10.9h-14.8v10.9z"/><path class="h" d="m558.2 423.9h14l-4.6-10.7h-13.5z"/><path class="h" d="m550.4 447.5h16.9l-4.7-12.2h-16.4z"/><path class="h" d="m340.3 413.2l3.1-10.9h-14.7l-3.7 10.9z"/><path class="h" d="m538.8 413.2l3.6 10.7h15.8l-4.1-10.7z"/><path class="h" d="m567.6 413.2l-4.6-10.9h-13.1l4.2 10.9z"/><path class="h" d="m554.1 413.2l-4.2-10.9h-14.7l3.6 10.9z"/><path class="h" d="m499.6 447.5l2.5 13.2h17.6l-3.2-13.2z"/><path class="h" d="m554.8 460.7h17.5l-5-13.2h-16.9z"/><path class="h" d="m538.8 413.2l-3.6-10.9h-14.8l3.2 10.9z"/><path class="h" d="m533.4 447.5l3.8 13.2h17.6l-4.4-13.2z"/><path class="h" d="m516.5 447.5l3.2 13.2h17.5l-3.8-13.2z"/><path class="h" d="m546.2 435.3h16.4l-4.4-11.4h-15.8z"/><path class="h" d="m401.4 413.2l1-10.9h-14.7l-1.6 10.9z"/><path class="h" d="m523.6 413.2l-3.2-10.9h-14.7l2.6 10.9z"/><path class="h" d="m386.1 413.2l1.6-10.9h-14.8l-2.1 10.9z"/><path class="h" d="m431.9 413.2v-10.9h-14.7l-0.5 10.9z"/><path class="h" d="m370.8 413.2l2.1-10.9h-14.7l-2.6 10.9z"/><path class="h" d="m355.6 413.2l2.6-10.9h-14.8l-3.1 10.9z"/><path class="h" d="m416.7 413.2l0.5-10.9h-14.8l-1 10.9z"/><path class="h" d="m508.3 413.2l-2.6-10.9h-14.8l2.1 10.9z"/><path class="h" d="m493 413.2l-2.1-10.9h-14.7l1.5 10.9z"/><path class="h" d="m462.5 413.2l-1.1-10.9h-14.7l0.5 10.9z"/><path class="h" d="m499.6 447.5h-16.9-16.9-16.9-16.9-16.9-17-16.9-16.9-16.9-16.9l-3.8 13.2h17.6 17.5 17.6 17.5 17.5 17.6 17.5 17.6 17.5 17.5z"/><path class="h" d="m477.7 413.2l-1.5-10.9h-14.8l1.1 10.9z"/><path class="e" d="m616.3 483.7h-375.9v5.3h375.9z"/><path class="d" d="m528.7 251.8v143.4l-41.6 54.3-7.1 2.7-213.7 31.5v7l-78.3 4.2v-76.9h133.5v-166.8z"/><path class="f" d="m140 402.6c-9.7 0.5-20.1 7.8-20.1 7.8l-108.8 84.5h176.9c0 0 111.6-84.2 115-86.6 5.3-3.9 15.8-5.8 15.8-5.8l-5 0.1z"/><path class="i" d="m546.8 252h-236.7"/><path class="j" d="m511.1 201c-2.3 0-4.6 0.4-6.8 1.3-2.1 0.9-4.1 2.2-5.7 3.9-1.7 1.6-3 3.5-3.8 5.7-0.9 2.1-1.4 4.4-1.4 6.8v216.9c0 2.9-0.7 5.7-2 8.2-1.3 2.6-3.2 4.7-5.6 6.4-2.3 1.6-5 2.7-7.8 3.1-2.9 0.4-5.7 0.1-8.4-0.9l-133.9-47.5c-7-2.5-14.6-2.9-21.9-1.2v-185c0-4.7 1.9-9.2 5.2-12.5 3.3-3.3 7.8-5.2 12.5-5.2z"/><g clip-path="url(#cp1)"><path class="a" d="m352.1 410.7l117.4 41.7c2.7 1 5.6 1.3 8.5 0.9 2.8-0.4 5.5-1.5 7.8-3.1 2.4-1.7 4.3-3.8 5.6-6.4 1.3-2.5 2-5.3 2-8.2v-24.9z"/><path class="k" d="m352.1 410.7l117.4 41.7c2.7 1 5.6 1.3 8.5 0.9 2.8-0.4 5.5-1.5 7.8-3.1 2.4-1.7 4.3-3.8 5.6-6.4 1.3-2.5 2-5.3 2-8.2v-24.9z"/><path class="a" d="m352.1 439.3l117.4 41.8c2.7 0.9 5.6 1.2 8.5 0.9 2.8-0.4 5.5-1.5 7.8-3.2 2.4-1.6 4.3-3.8 5.6-6.3 1.3-2.6 2-5.4 2-8.3v-24.9z"/></g><path fill-rule="evenodd" class="i" d="m511.1 201c-2.3 0-4.6 0.4-6.8 1.3-2.1 0.9-4.1 2.2-5.7 3.9-1.7 1.6-3 3.5-3.8 5.7-0.9 2.1-1.4 4.4-1.4 6.8v216.9c0 2.9-0.7 5.7-2 8.2-1.3 2.6-3.2 4.7-5.6 6.4-2.3 1.6-5 2.7-7.8 3.1-2.9 0.4-5.7 0.1-8.4-0.9l-133.9-47.5c-7-2.5-14.6-2.9-21.9-1.2v-185c0-4.7 1.9-9.2 5.2-12.5 3.3-3.3 7.8-5.2 12.5-5.2z"/><path class="i" d="m321.4 402.6h-7.6"/><path class="j" d="m475.6 453.5h-179.7c-2 0-4-0.4-6-1.1l-31-10.9 38.6-29.6c5.2-4.4 11.5-7.4 18.2-8.6 6.7-1.2 13.6-0.7 20 1.6l133.9 47.5c1.9 0.7 3.9 1.1 6 1.1z"/><g clip-path="url(#cp2)"><path class="a" d="m475.6 453.5h-179.7c-2 0-4-0.4-6-1.1l-32.9-11.4 40.5-29.1c5.2-4.4 11.4-7.4 18.1-8.6 6.7-1.2 13.6-0.7 20.1 1.6l133.8 47.5c2 0.7 4 1.1 6.1 1.1z"/><path class="l" d="m475.6 453.5h-179.7c-2 0-4-0.4-6-1.1l-32.9-11.4 40.5-29.1c5.2-4.4 11.4-7.4 18.1-8.6 6.7-1.2 13.6-0.7 20.1 1.6l133.8 47.5c2 0.7 4 1.1 6.1 1.1z"/></g><path fill-rule="evenodd" class="i" d="m475.6 453.5h-179.7c-2 0-4-0.4-6-1.1l-31-10.9 38.6-29.6c5.2-4.4 11.5-7.4 18.2-8.6 6.7-1.2 13.6-0.7 20 1.6l133.9 47.5c1.9 0.7 3.9 1.1 6 1.1z"/><path class="i" d="m295.9 453.5h-0.4"/><path class="i" d="m475.9 453.5h-0.3"/><path class="j" d="m523.6 206.2c-1.7-1.7-3.6-3-5.8-3.9-2.1-0.9-4.4-1.3-6.7-1.3-18.4 0-17.7 17.6-17.7 17.6v33.2h35.3v-33.1c0-2.4-0.4-4.7-1.3-6.8-0.9-2.2-2.2-4.1-3.8-5.7z"/><g clip-path="url(#cp3)"><path class="a" d="m523.6 206.2c-1.7-1.7-3.6-3-5.8-3.9-2.1-0.9-4.4-1.3-6.7-1.3-18.4 0-17.7 17.6-17.7 17.6v33.2h35.3v-33.1c0-2.4-0.4-4.7-1.3-6.8-0.9-2.2-2.2-4.1-3.8-5.7z"/><path class="l" d="m523.6 206.2c-1.7-1.7-3.6-3-5.8-3.9-2.1-0.9-4.4-1.3-6.7-1.3-18.4 0-17.7 17.6-17.7 17.6v33.2h35.3v-33.1c0-2.4-0.4-4.7-1.3-6.8-0.9-2.2-2.2-4.1-3.8-5.7z"/></g><path fill-rule="evenodd" class="i" d="m523.6 206.2c-1.7-1.7-3.6-3-5.8-3.9-2.1-0.9-4.4-1.3-6.7-1.3-18.4 0-17.7 17.6-17.7 17.6v33.2h35.3v-33.1c0-2.4-0.4-4.7-1.3-6.8-0.9-2.2-2.2-4.1-3.8-5.7z"/><g style="opacity:.1"><path  d="m330.3 231.4v0.3 7.5 0.4 7.5 0.3 7.5 0.3 7.6 0.3 7.5 0.3 7.6 0.3 7.5 0.3 7.5 0.4 7.5 0.3 7.5 0.3 7.9h17v-7.9-0.3-7.5-0.3-7.5-0.4-7.5-0.3-7.5-0.3-7.6-0.3-7.5-0.3-7.6-0.3-7.5-0.3-7.5-0.4-7.5-0.3-7.8h-17z"/><path  d="m464.7 223.6h-0.3-16.3-0.4-16.3-0.4-16.3-0.4-16.3-0.4-16.3-0.4-16.3-0.4-16.6v8.1h16.6 0.4 16.3 0.4 16.3 0.4 16.3 0.4 16.3 0.4 16.3 0.4 16.3 0.3 16.7v-8.1z"/></g><path fill-rule="evenodd" class="m" d="m347.3 223.6h-17v8.1h17z"/><path fill-rule="evenodd" class="m" d="m347.3 231.4h-17v8.2h17z"/><path fill-rule="evenodd" class="m" d="m347.3 239.2h-17v8.2h17z"/><path fill-rule="evenodd" class="m" d="m347.3 247.1h-17v8.2h17z"/><path fill-rule="evenodd" class="m" d="m347.3 254.9h-17v8.2h17z"/><path fill-rule="evenodd" class="m" d="m347.3 262.8h-17v8.1h17z"/><path fill-rule="evenodd" class="m" d="m347.3 270.6h-17v8.2h17z"/><path fill-rule="evenodd" class="m" d="m347.3 278.5h-17v8.1h17z"/><path fill-rule="evenodd" class="m" d="m347.3 286.3h-17v8.2h17z"/><path fill-rule="evenodd" class="m" d="m347.3 294.1h-17v8.2h17z"/><path fill-rule="evenodd" class="m" d="m347.3 302h-17v8.1h17z"/><path fill-rule="evenodd" class="m" d="m347.3 309.8h-17v8.2h17z"/><path fill-rule="evenodd" class="m" d="m364.6 223.6h-17v8.1h17z"/><path fill-rule="evenodd" class="m" d="m381.3 223.6h-17.1v8.1h17.1z"/><path fill-rule="evenodd" class="m" d="m398 223.6h-17.1v8.1h17.1z"/><path fill-rule="evenodd" class="m" d="m414.7 223.6h-17.1v8.1h17.1z"/><path fill-rule="evenodd" class="m" d="m431.4 223.6h-17.1v8.1h17.1z"/><path fill-rule="evenodd" class="m" d="m448 223.6h-17v8.1h17z"/><path fill-rule="evenodd" class="m" d="m464.7 223.6h-17v8.1h17z"/><path fill-rule="evenodd" class="m" d="m481.4 223.6h-17v8.1h17z"/><path fill-rule="evenodd" class="m" d="m481.4 231.7h-134.1v86.3h134.1z"/><path class="m" d="m364.4 231.7v86.3"/><path class="m" d="m381.1 231.7v86.3"/><path class="m" d="m397.8 231.7v86.3"/><path class="m" d="m414.5 231.7v86.3"/><path class="m" d="m431.2 231.7v86.3"/><path class="m" d="m447.8 231.7v86.3"/><path class="m" d="m464.5 231.7v86.3"/><path class="m" d="m347.3 239.6h134"/><path class="m" d="m347.3 247.4h134"/><path class="m" d="m347.3 255.2h134"/><path class="m" d="m347.3 263h134"/><path class="m" d="m347.3 270.8h134"/><path class="m" d="m347.3 278.6h134"/><path class="m" d="m347.3 286.4h134"/><path class="m" d="m347.3 294.3h134"/><path class="m" d="m347.3 302.1h134"/><path class="m" d="m347.3 309.9h134"/><path class="a" d="m261.9 423.6h-143.8l9.9-7.5h143.8z"/><path class="a" d="m42 484.1h-3.5l89.5-68h3.6z"/><path class="n" d="m230.2 447.6h-143.8l11.3-8.4h143.7z"/><path fill-rule="evenodd" class="m" d="m181.8 484.5h-143.8l90-68.4h143.8z"/><path class="m" d="m142.8 416.3l-89.6 68.1"/><path class="m" d="m157.3 416.3l-89.6 68.1"/><path class="m" d="m171.7 416.3l-89.6 68.1"/><path class="m" d="m186.2 416.3l-89.6 68.1"/><path class="m" d="m200.6 416.3l-89.6 68.1"/><path class="m" d="m215 416.3l-89.6 68.1"/><path class="m" d="m229.5 416.3l-89.6 68.1"/><path class="m" d="m243.9 416.3l-89.6 68.1"/><path class="m" d="m258.3 416.3l-89.6 68.1"/><path class="m" d="m109.3 430.5h143.3"/><path class="m" d="m97.9 439.2h143.3"/><path class="m" d="m86.4 447.9h143.3"/><path class="m" d="m75 456.6h143.3"/><path class="m" d="m63.5 465.3h143.3"/><path class="m" d="m52.1 474h143.3"/><path class="a" d="m481.7 324.6h-151.6v5.5h151.6z"/><path class="a" d="m333.9 324.6h-3.8v71.6h3.8z"/><path fill-rule="evenodd" class="m" d="m481.7 324.6h-151.6v72h151.6z"/><path class="m" d="m346.1 324.8v71.8"/><path class="m" d="m361.3 324.8v71.8"/><path class="m" d="m376.5 324.8v71.8"/><path class="m" d="m391.8 324.8v71.8"/><path class="m" d="m407 324.8v71.8"/><path class="m" d="m422.2 324.8v71.8"/><path class="m" d="m437.4 324.8v71.8"/><path class="m" d="m452.6 324.8v71.8"/><path class="m" d="m467.8 324.8v71.8"/><path class="m" d="m330.4 339.8h151.1"/><path class="m" d="m330.4 348.9h151.1"/><path class="m" d="m330.4 358.1h151.1"/><path class="m" d="m330.4 367.3h151.1"/><path class="m" d="m330.4 376.4h151.1"/><path class="m" d="m330.4 385.6h151.1"/><path class="o" d="m431.5 370.6h-6.3v14.7h6.3z"/><path class="p" d="m441.6 361.7h-6.3v23.6h6.3z"/><path class="o" d="m451.7 347h-6.3v38.3h6.3z"/><path class="p" d="m461.8 361.3h-6.3v24h6.3z"/><path class="o" d="m471.9 347h-6.3v38.3h6.3z"/><path class="p" d="m366.5 367.6v17.5c-4.6 0-9.1-1.8-12.4-5.1-3.3-3.3-5.1-7.8-5.1-12.4 0-4.7 1.8-9.1 5.1-12.4 3.3-3.3 7.8-5.1 12.4-5.1z"/><path class="q" d="m366.5 367.6l16.7-5.4c0.7 2.2 1 4.5 0.8 6.8-0.2 2.3-0.8 4.5-1.9 6.5-1 2.1-2.4 3.9-4.2 5.4-1.7 1.5-3.8 2.7-6 3.4-1.7 0.5-3.5 0.8-5.4 0.8z"/><path class="o" d="m366.5 367.6v-17.5c3.7-0.1 7.4 1.1 10.4 3.3 2.9 2.1 5.2 5.2 6.3 8.8z"/></svg>