<svg width="23" height="23" viewBox="0 0 23 23" fill="none" xmlns="http://www.w3.org/2000/svg">
<rect width="23" height="23" rx="5" fill="#C0C9DA" fill-opacity="0.63"/>
<path d="M13.375 6.34375C13.375 5.97291 13.2651 5.6104 13.059 5.30206C12.853 4.99371 12.5602 4.75339 12.2176 4.61148C11.875 4.46956 11.498 4.43243 11.1342 4.50478C10.7705 4.57713 10.4364 4.7557 10.1742 5.01793C9.91199 5.28015 9.73341 5.61424 9.66106 5.97796C9.58872 6.34167 9.62585 6.71867 9.76776 7.06128C9.90968 7.40389 10.15 7.69673 10.4583 7.90276C10.7667 8.10878 11.1292 8.21875 11.5 8.21875C11.9973 8.21875 12.4742 8.02121 12.8259 7.66958C13.1775 7.31795 13.375 6.84103 13.375 6.34375ZM11.5 7.28125C11.3146 7.28125 11.1334 7.22627 10.9792 7.12325C10.825 7.02024 10.7049 6.87382 10.6339 6.70252C10.5629 6.53121 10.5444 6.34271 10.5805 6.16085C10.6167 5.979 10.706 5.81195 10.8371 5.68084C10.9682 5.54973 11.1353 5.46044 11.3171 5.42426C11.499 5.38809 11.6875 5.40666 11.8588 5.47761C12.0301 5.54857 12.1765 5.66873 12.2795 5.8229C12.3826 5.97707 12.4375 6.15833 12.4375 6.34375C12.4375 6.59239 12.3388 6.83085 12.1629 7.00666C11.9871 7.18248 11.7487 7.28125 11.5 7.28125ZM17.5645 9.13926C17.5111 8.87674 17.3678 8.64109 17.1591 8.47302C16.9505 8.30496 16.6898 8.21502 16.4219 8.21875H6.57816C6.31102 8.21874 6.0519 8.31001 5.84372 8.47742C5.63555 8.64483 5.49082 8.87835 5.43353 9.13927C5.37623 9.40019 5.40979 9.67286 5.52867 9.91209C5.64754 10.1513 5.84458 10.3428 6.08715 10.4547H6.09476L9.0684 11.7643L7.83793 16.4354C7.70918 16.719 7.69836 17.0421 7.80786 17.3337C7.91736 17.6253 8.13821 17.8614 8.42181 17.9901C8.70542 18.1189 9.02855 18.1297 9.32013 18.0202C9.61171 17.9107 9.84785 17.6899 9.9766 17.4063L11.5 14.7771L13.0235 17.4063C13.1589 17.6778 13.3943 17.8862 13.6802 17.9877C13.9661 18.0892 14.2802 18.0758 14.5565 17.9505C14.8328 17.8251 15.0497 17.5974 15.1615 17.3154C15.2734 17.0334 15.2715 16.7189 15.1563 16.4383L13.9258 11.7672L16.8994 10.4576H16.9071C17.1535 10.3494 17.3543 10.1583 17.4744 9.91742C17.5945 9.67655 17.6264 9.4012 17.5645 9.13926ZM16.5215 9.60215L13.1858 11.0705C13.0837 11.1155 13.0009 11.1955 12.9525 11.296C12.9041 11.3965 12.8931 11.511 12.9215 11.6189L14.2616 16.7148C14.2684 16.7421 14.278 16.7686 14.2903 16.7939C14.3099 16.836 14.3167 16.8829 14.3096 16.9288C14.3026 16.9747 14.282 17.0175 14.2507 17.0517C14.2193 17.0859 14.1784 17.11 14.1333 17.121C14.0882 17.1319 14.0409 17.1293 13.9973 17.1133C13.939 17.0919 13.8916 17.0483 13.8655 16.992C13.8595 16.9793 13.8529 16.967 13.8455 16.9551L11.9055 13.6094C11.8643 13.5383 11.8052 13.4794 11.734 13.4384C11.6628 13.3974 11.5822 13.3758 11.5 13.3758C11.4179 13.3758 11.3372 13.3974 11.2661 13.4384C11.1949 13.4794 11.1358 13.5383 11.0946 13.6094L9.15629 16.9521C9.14895 16.9641 9.1423 16.9764 9.13636 16.9891C9.11021 17.0454 9.0628 17.089 9.00453 17.1104C8.96094 17.1263 8.91359 17.129 8.86849 17.118C8.82338 17.1071 8.78255 17.0829 8.75117 17.0487C8.71978 17.0145 8.69927 16.9718 8.69221 16.9259C8.68516 16.88 8.6919 16.8331 8.71156 16.791C8.72382 16.7657 8.73344 16.7392 8.74027 16.7119L10.0786 11.6172C10.107 11.5093 10.096 11.3948 10.0476 11.2942C9.99913 11.1937 9.91641 11.1137 9.81429 11.0688L6.47855 9.60215C6.43067 9.5793 6.39196 9.54088 6.36874 9.49318C6.34553 9.44547 6.33918 9.3913 6.35075 9.33952C6.36232 9.28775 6.39111 9.24142 6.43242 9.20813C6.47373 9.17484 6.52511 9.15655 6.57816 9.15625H16.4219C16.4751 9.15615 16.5268 9.17416 16.5684 9.20731C16.61 9.24047 16.6391 9.28679 16.6509 9.33867C16.6627 9.39055 16.6565 9.4449 16.6333 9.49278C16.6101 9.54067 16.5713 9.57924 16.5233 9.60215H16.5215Z" fill="white"/>
</svg>
