<svg width="23" height="23" viewBox="0 0 23 23" fill="none" xmlns="http://www.w3.org/2000/svg">
<rect width="23" height="23" rx="5" fill="#C0C9DA" fill-opacity="0.63"/>
<path d="M16.6562 7.28125H14.3125V6.8125C14.3125 6.43954 14.1643 6.08185 13.9006 5.81813C13.6369 5.55441 13.2792 5.40625 12.9062 5.40625H10.0938C9.72079 5.40625 9.3631 5.55441 9.09938 5.81813C8.83566 6.08185 8.6875 6.43954 8.6875 6.8125V7.28125H6.34375C6.09511 7.28125 5.85665 7.38002 5.68084 7.55584C5.50502 7.73165 5.40625 7.97011 5.40625 8.21875V15.7188C5.40625 15.9674 5.50502 16.2058 5.68084 16.3817C5.85665 16.5575 6.09511 16.6562 6.34375 16.6562H16.6562C16.9049 16.6562 17.1433 16.5575 17.3192 16.3817C17.495 16.2058 17.5938 15.9674 17.5938 15.7188V8.21875C17.5938 7.97011 17.495 7.73165 17.3192 7.55584C17.1433 7.38002 16.9049 7.28125 16.6562 7.28125ZM9.625 6.8125C9.625 6.68818 9.67439 6.56895 9.76229 6.48104C9.8502 6.39314 9.96943 6.34375 10.0938 6.34375H12.9062C13.0306 6.34375 13.1498 6.39314 13.2377 6.48104C13.3256 6.56895 13.375 6.68818 13.375 6.8125V7.28125H9.625V6.8125ZM16.6562 8.21875V10.6568C15.0741 11.518 13.3014 11.9691 11.5 11.9688C9.69871 11.9691 7.92603 11.5183 6.34375 10.6574V8.21875H16.6562ZM16.6562 15.7188H6.34375V11.7133C7.94918 12.4986 9.71281 12.9066 11.5 12.9062C13.2872 12.9063 15.0508 12.4981 16.6562 11.7127V15.7188ZM10.0938 10.5625C10.0938 10.4382 10.1431 10.319 10.231 10.231C10.319 10.1431 10.4382 10.0938 10.5625 10.0938H12.4375C12.5618 10.0938 12.681 10.1431 12.769 10.231C12.8569 10.319 12.9062 10.4382 12.9062 10.5625C12.9062 10.6868 12.8569 10.806 12.769 10.894C12.681 10.9819 12.5618 11.0312 12.4375 11.0312H10.5625C10.4382 11.0312 10.319 10.9819 10.231 10.894C10.1431 10.806 10.0938 10.6868 10.0938 10.5625Z" fill="white"/>
</svg>
